<mxfile host="app.diagrams.net" modified="2022-10-01T18:58:50.289Z" agent="5.0 (Macintosh; Intel Mac OS X 10_15_7) AppleWebKit/537.36 (KHTML, like Gecko) Chrome/105.0.0.0 Safari/537.36" version="20.3.3" etag="_0CpxZXcb7lhAGdnJdpp" type="github">
  <diagram id="lm39UnG0xP7g4V9K822q" name="第 1 页">
    <mxGraphModel dx="4214" dy="4368" grid="1" gridSize="10" guides="1" tooltips="1" connect="1" arrows="1" fold="1" page="1" pageScale="1" pageWidth="827" pageHeight="1169" math="0" shadow="0">
      <root>
        <mxCell id="0" />
        <mxCell id="1" parent="0" />
        <mxCell id="JjG118tm9zApAH-lwlYX-848" value="" style="rounded=1;whiteSpace=wrap;html=1;shadow=1;glass=0;dashed=1;labelBackgroundColor=none;labelBorderColor=none;sketch=1;fillStyle=auto;fontFamily=Comic Sans MS;fontSize=16;gradientDirection=north;opacity=90;" parent="1" vertex="1">
          <mxGeometry x="-1790" y="-1230" width="3490" height="2390" as="geometry" />
        </mxCell>
        <mxCell id="lZq7xQ4H-G2b-LCNkSoX-203" value="" style="rounded=1;whiteSpace=wrap;html=1;sketch=1;shadow=1;glass=0;dashed=1;dashPattern=1 4;strokeColor=default;fontFamily=Comic Sans MS;fillColor=default;labelBorderColor=none;fillStyle=auto;gradientDirection=north;opacity=90;gradientColor=none;fontSize=16;labelBackgroundColor=none;" vertex="1" parent="1">
          <mxGeometry x="349.5" y="-1054.6800000000003" width="1195" height="960" as="geometry" />
        </mxCell>
        <mxCell id="lZq7xQ4H-G2b-LCNkSoX-76" value="" style="rounded=1;whiteSpace=wrap;html=1;shadow=1;glass=0;dashed=1;labelBorderColor=none;sketch=1;fillStyle=auto;fontFamily=Comic Sans MS;fontSize=12;strokeColor=#10739e;fillColor=#b1ddf0;gradientDirection=north;opacity=50;gradientColor=none;" vertex="1" parent="1">
          <mxGeometry x="-455.5" y="-1044.6800000000003" width="790" height="960" as="geometry" />
        </mxCell>
        <mxCell id="JjG118tm9zApAH-lwlYX-82" style="edgeStyle=orthogonalEdgeStyle;rounded=0;sketch=1;orthogonalLoop=1;jettySize=auto;html=1;exitX=0.28;exitY=0.999;exitDx=0;exitDy=0;entryX=0.5;entryY=0;entryDx=0;entryDy=0;shadow=1;fontFamily=Comic Sans MS;fontSize=12;endArrow=none;endFill=0;exitPerimeter=0;" parent="1" source="lZq7xQ4H-G2b-LCNkSoX-76" target="JjG118tm9zApAH-lwlYX-75" edge="1">
          <mxGeometry relative="1" as="geometry">
            <mxPoint x="-185.45999999999998" y="370" as="sourcePoint" />
            <Array as="points">
              <mxPoint x="-230" y="-86" />
            </Array>
          </mxGeometry>
        </mxCell>
        <mxCell id="JjG118tm9zApAH-lwlYX-83" value="provide data" style="edgeLabel;html=1;align=center;verticalAlign=middle;resizable=0;points=[];fontSize=12;fontFamily=Comic Sans MS;" parent="JjG118tm9zApAH-lwlYX-82" vertex="1" connectable="0">
          <mxGeometry x="-0.065" y="3" relative="1" as="geometry">
            <mxPoint x="-3" y="-16" as="offset" />
          </mxGeometry>
        </mxCell>
        <mxCell id="53iojEwprmRMJmLowlNo-5" value="" style="rounded=1;whiteSpace=wrap;html=1;fontFamily=Comic Sans MS;glass=0;shadow=1;sketch=1;opacity=90;" parent="1" vertex="1">
          <mxGeometry x="459.53999999999996" y="-57.03999999999997" width="1084.96" height="740" as="geometry" />
        </mxCell>
        <mxCell id="53iojEwprmRMJmLowlNo-3" value="Mintable&lt;br&gt;ERC20" style="shape=card;whiteSpace=wrap;html=1;shadow=1;rounded=1;sketch=1;fontFamily=Comic Sans MS;fillColor=#fff2cc;gradientColor=#ffd966;strokeColor=#d6b656;" parent="1" vertex="1">
          <mxGeometry x="504.03999999999996" y="2.9600000000000293" width="90" height="114.21" as="geometry" />
        </mxCell>
        <mxCell id="53iojEwprmRMJmLowlNo-4" value="Mintable&lt;br&gt;ERC721" style="shape=card;whiteSpace=wrap;html=1;shadow=1;rounded=1;sketch=1;fontFamily=Comic Sans MS;fillColor=#fff2cc;gradientColor=#ffd966;strokeColor=#d6b656;" parent="1" vertex="1">
          <mxGeometry x="844.7699999999999" y="2.9600000000000293" width="90" height="114.21" as="geometry" />
        </mxCell>
        <mxCell id="53iojEwprmRMJmLowlNo-6" value="Tokens" style="text;html=1;strokeColor=none;fillColor=none;align=center;verticalAlign=middle;whiteSpace=wrap;rounded=0;fontFamily=Comic Sans MS;fontSize=22;shadow=1;sketch=1;" parent="1" vertex="1">
          <mxGeometry x="544.5" y="-41.03999999999997" width="60" height="30" as="geometry" />
        </mxCell>
        <mxCell id="53iojEwprmRMJmLowlNo-8" value="contains" style="swimlane;fontStyle=0;childLayout=stackLayout;horizontal=1;startSize=30;horizontalStack=0;resizeParent=1;resizeParentMax=0;resizeLast=0;collapsible=1;marginBottom=0;rounded=1;shadow=1;sketch=1;glass=0;fontFamily=Comic Sans MS;fillColor=#fff2cc;gradientColor=#ffd966;strokeColor=#d6b656;" parent="1" vertex="1">
          <mxGeometry x="934.7699999999999" y="15.059999999999938" width="200" height="90" as="geometry" />
        </mxCell>
        <mxCell id="53iojEwprmRMJmLowlNo-9" value="WrappedPunk, CryptoPunkMarket" style="text;strokeColor=none;fillColor=none;align=left;verticalAlign=middle;spacingLeft=4;spacingRight=4;overflow=hidden;points=[[0,0.5],[1,0.5]];portConstraint=eastwest;rotatable=0;fontFamily=Comic Sans MS;shadow=1;sketch=1;" parent="53iojEwprmRMJmLowlNo-8" vertex="1">
          <mxGeometry y="30" width="200" height="30" as="geometry" />
        </mxCell>
        <mxCell id="53iojEwprmRMJmLowlNo-10" value="MintableERC721" style="text;strokeColor=none;fillColor=none;align=left;verticalAlign=middle;spacingLeft=4;spacingRight=4;overflow=hidden;points=[[0,0.5],[1,0.5]];portConstraint=eastwest;rotatable=0;fontFamily=Comic Sans MS;shadow=1;sketch=1;" parent="53iojEwprmRMJmLowlNo-8" vertex="1">
          <mxGeometry y="60" width="200" height="30" as="geometry" />
        </mxCell>
        <mxCell id="53iojEwprmRMJmLowlNo-12" value="contains" style="swimlane;fontStyle=0;childLayout=stackLayout;horizontal=1;startSize=30;horizontalStack=0;resizeParent=1;resizeParentMax=0;resizeLast=0;collapsible=1;marginBottom=0;rounded=1;shadow=1;sketch=1;glass=0;fontFamily=Comic Sans MS;fillColor=#fff2cc;gradientColor=#ffd966;strokeColor=#d6b656;" parent="1" vertex="1">
          <mxGeometry x="594.04" y="15.059999999999938" width="140" height="90" as="geometry" />
        </mxCell>
        <mxCell id="53iojEwprmRMJmLowlNo-13" value="WETH" style="text;strokeColor=none;fillColor=none;align=left;verticalAlign=middle;spacingLeft=4;spacingRight=4;overflow=hidden;points=[[0,0.5],[1,0.5]];portConstraint=eastwest;rotatable=0;fontFamily=Comic Sans MS;shadow=1;sketch=1;" parent="53iojEwprmRMJmLowlNo-12" vertex="1">
          <mxGeometry y="30" width="140" height="30" as="geometry" />
        </mxCell>
        <mxCell id="53iojEwprmRMJmLowlNo-14" value="MintableERC720" style="text;strokeColor=none;fillColor=none;align=left;verticalAlign=middle;spacingLeft=4;spacingRight=4;overflow=hidden;points=[[0,0.5],[1,0.5]];portConstraint=eastwest;rotatable=0;fontFamily=Comic Sans MS;shadow=1;sketch=1;" parent="53iojEwprmRMJmLowlNo-12" vertex="1">
          <mxGeometry y="60" width="140" height="30" as="geometry" />
        </mxCell>
        <mxCell id="JjG118tm9zApAH-lwlYX-842" style="edgeStyle=orthogonalEdgeStyle;rounded=0;sketch=1;orthogonalLoop=1;jettySize=auto;html=1;exitX=0;exitY=0;exitDx=60;exitDy=0;exitPerimeter=0;entryX=1;entryY=0.5;entryDx=0;entryDy=0;shadow=1;labelBorderColor=none;fontFamily=Comic Sans MS;fontSize=16;fontColor=#000000;startArrow=none;startFill=0;endArrow=classicThin;endFill=1;" parent="1" source="53iojEwprmRMJmLowlNo-15" target="JjG118tm9zApAH-lwlYX-815" edge="1">
          <mxGeometry relative="1" as="geometry" />
        </mxCell>
        <mxCell id="53iojEwprmRMJmLowlNo-15" value="PoolAddress&lt;br&gt;Provider" style="shape=card;whiteSpace=wrap;html=1;shadow=1;rounded=1;sketch=1;fontFamily=Comic Sans MS;fillColor=#dae8fc;gradientColor=#7ea6e0;strokeColor=#6c8ebf;" parent="1" vertex="1">
          <mxGeometry x="-790" y="-41.04000000000008" width="90" height="114.21" as="geometry" />
        </mxCell>
        <mxCell id="53iojEwprmRMJmLowlNo-16" value="contains" style="swimlane;fontStyle=0;childLayout=stackLayout;horizontal=1;startSize=30;horizontalStack=0;resizeParent=1;resizeParentMax=0;resizeLast=0;collapsible=1;marginBottom=0;rounded=1;shadow=1;sketch=1;glass=0;fontFamily=Comic Sans MS;" parent="1" vertex="1">
          <mxGeometry x="-700" y="-39.999999999999964" width="157" height="330" as="geometry" />
        </mxCell>
        <mxCell id="53iojEwprmRMJmLowlNo-17" value="updatePoolImpl" style="text;strokeColor=none;fillColor=none;align=left;verticalAlign=middle;spacingLeft=4;spacingRight=4;overflow=hidden;points=[[0,0.5],[1,0.5]];portConstraint=eastwest;rotatable=0;fontFamily=Comic Sans MS;" parent="53iojEwprmRMJmLowlNo-16" vertex="1">
          <mxGeometry y="30" width="157" height="30" as="geometry" />
        </mxCell>
        <mxCell id="53iojEwprmRMJmLowlNo-18" value="setPoolConfiguratorImpl" style="text;strokeColor=none;fillColor=none;align=left;verticalAlign=middle;spacingLeft=4;spacingRight=4;overflow=hidden;points=[[0,0.5],[1,0.5]];portConstraint=eastwest;rotatable=0;fontFamily=Comic Sans MS;" parent="53iojEwprmRMJmLowlNo-16" vertex="1">
          <mxGeometry y="60" width="157" height="30" as="geometry" />
        </mxCell>
        <mxCell id="lZq7xQ4H-G2b-LCNkSoX-210" value="setAddressAsProxy" style="text;strokeColor=none;fillColor=none;align=left;verticalAlign=middle;spacingLeft=4;spacingRight=4;overflow=hidden;points=[[0,0.5],[1,0.5]];portConstraint=eastwest;rotatable=0;fontFamily=Comic Sans MS;" vertex="1" parent="53iojEwprmRMJmLowlNo-16">
          <mxGeometry y="90" width="157" height="30" as="geometry" />
        </mxCell>
        <mxCell id="lZq7xQ4H-G2b-LCNkSoX-209" value="setAddress" style="text;strokeColor=none;fillColor=none;align=left;verticalAlign=middle;spacingLeft=4;spacingRight=4;overflow=hidden;points=[[0,0.5],[1,0.5]];portConstraint=eastwest;rotatable=0;fontFamily=Comic Sans MS;" vertex="1" parent="53iojEwprmRMJmLowlNo-16">
          <mxGeometry y="120" width="157" height="30" as="geometry" />
        </mxCell>
        <mxCell id="53iojEwprmRMJmLowlNo-19" value="setPoolDataProvider" style="text;strokeColor=none;fillColor=none;align=left;verticalAlign=middle;spacingLeft=4;spacingRight=4;overflow=hidden;points=[[0,0.5],[1,0.5]];portConstraint=eastwest;rotatable=0;fontFamily=Comic Sans MS;" parent="53iojEwprmRMJmLowlNo-16" vertex="1">
          <mxGeometry y="150" width="157" height="30" as="geometry" />
        </mxCell>
        <mxCell id="53iojEwprmRMJmLowlNo-20" value="setACLManager" style="text;strokeColor=none;fillColor=none;align=left;verticalAlign=middle;spacingLeft=4;spacingRight=4;overflow=hidden;points=[[0,0.5],[1,0.5]];portConstraint=eastwest;rotatable=0;fontFamily=Comic Sans MS;" parent="53iojEwprmRMJmLowlNo-16" vertex="1">
          <mxGeometry y="180" width="157" height="30" as="geometry" />
        </mxCell>
        <mxCell id="lZq7xQ4H-G2b-LCNkSoX-1" value="setACL_ADMIN" style="text;strokeColor=none;fillColor=none;align=left;verticalAlign=middle;spacingLeft=4;spacingRight=4;overflow=hidden;points=[[0,0.5],[1,0.5]];portConstraint=eastwest;rotatable=0;fontFamily=Comic Sans MS;" vertex="1" parent="53iojEwprmRMJmLowlNo-16">
          <mxGeometry y="210" width="157" height="30" as="geometry" />
        </mxCell>
        <mxCell id="lZq7xQ4H-G2b-LCNkSoX-2" value="setWETH" style="text;strokeColor=none;fillColor=none;align=left;verticalAlign=middle;spacingLeft=4;spacingRight=4;overflow=hidden;points=[[0,0.5],[1,0.5]];portConstraint=eastwest;rotatable=0;fontFamily=Comic Sans MS;" vertex="1" parent="53iojEwprmRMJmLowlNo-16">
          <mxGeometry y="240" width="157" height="30" as="geometry" />
        </mxCell>
        <mxCell id="lZq7xQ4H-G2b-LCNkSoX-3" value="setMarketId" style="text;strokeColor=none;fillColor=none;align=left;verticalAlign=middle;spacingLeft=4;spacingRight=4;overflow=hidden;points=[[0,0.5],[1,0.5]];portConstraint=eastwest;rotatable=0;fontFamily=Comic Sans MS;" vertex="1" parent="53iojEwprmRMJmLowlNo-16">
          <mxGeometry y="270" width="157" height="30" as="geometry" />
        </mxCell>
        <mxCell id="53iojEwprmRMJmLowlNo-21" value="setPriceOracle" style="text;strokeColor=none;fillColor=none;align=left;verticalAlign=middle;spacingLeft=4;spacingRight=4;overflow=hidden;points=[[0,0.5],[1,0.5]];portConstraint=eastwest;rotatable=0;fontFamily=Comic Sans MS;" parent="53iojEwprmRMJmLowlNo-16" vertex="1">
          <mxGeometry y="300" width="157" height="30" as="geometry" />
        </mxCell>
        <mxCell id="53iojEwprmRMJmLowlNo-29" value="PoolAddresses&lt;br&gt;Provider&lt;br&gt;Registry" style="shape=card;whiteSpace=wrap;html=1;shadow=1;rounded=1;sketch=1;fontFamily=Comic Sans MS;fillColor=#dae8fc;gradientColor=#7ea6e0;strokeColor=#6c8ebf;" parent="1" vertex="1">
          <mxGeometry x="-1142" y="-41.04000000000019" width="90" height="114.21" as="geometry" />
        </mxCell>
        <mxCell id="53iojEwprmRMJmLowlNo-34" value="contains" style="swimlane;fontStyle=0;childLayout=stackLayout;horizontal=1;startSize=30;horizontalStack=0;resizeParent=1;resizeParentMax=0;resizeLast=0;collapsible=1;marginBottom=0;rounded=1;shadow=1;sketch=1;glass=0;fontFamily=Comic Sans MS;" parent="1" vertex="1">
          <mxGeometry x="-1052" y="-43.940000000000055" width="200" height="120" as="geometry" />
        </mxCell>
        <mxCell id="53iojEwprmRMJmLowlNo-35" value="getAddressesProvidersList" style="text;strokeColor=none;fillColor=none;align=left;verticalAlign=middle;spacingLeft=4;spacingRight=4;overflow=hidden;points=[[0,0.5],[1,0.5]];portConstraint=eastwest;rotatable=0;fontFamily=Comic Sans MS;" parent="53iojEwprmRMJmLowlNo-34" vertex="1">
          <mxGeometry y="30" width="200" height="30" as="geometry" />
        </mxCell>
        <mxCell id="53iojEwprmRMJmLowlNo-39" value="registerAddressesProvider(un)" style="text;strokeColor=none;fillColor=none;align=left;verticalAlign=middle;spacingLeft=4;spacingRight=4;overflow=hidden;points=[[0,0.5],[1,0.5]];portConstraint=eastwest;rotatable=0;fontFamily=Comic Sans MS;" parent="53iojEwprmRMJmLowlNo-34" vertex="1">
          <mxGeometry y="60" width="200" height="30" as="geometry" />
        </mxCell>
        <mxCell id="53iojEwprmRMJmLowlNo-40" value="map: id &lt;=&gt; AddressesProviders" style="text;strokeColor=none;fillColor=none;align=left;verticalAlign=middle;spacingLeft=4;spacingRight=4;overflow=hidden;points=[[0,0.5],[1,0.5]];portConstraint=eastwest;rotatable=0;fontFamily=Comic Sans MS;" parent="53iojEwprmRMJmLowlNo-34" vertex="1">
          <mxGeometry y="90" width="200" height="30" as="geometry" />
        </mxCell>
        <mxCell id="s4ikNIAql8R8ZUYxvxw--95" style="edgeStyle=orthogonalEdgeStyle;rounded=0;sketch=1;orthogonalLoop=1;jettySize=auto;html=1;entryX=0;entryY=0.5;entryDx=0;entryDy=0;shadow=1;fontFamily=Comic Sans MS;exitX=1;exitY=0.5;exitDx=0;exitDy=0;" parent="1" source="53iojEwprmRMJmLowlNo-17" target="lZq7xQ4H-G2b-LCNkSoX-76" edge="1">
          <mxGeometry relative="1" as="geometry">
            <mxPoint x="-550" y="-580" as="sourcePoint" />
            <mxPoint x="-479.99999999999955" y="76.89500000000044" as="targetPoint" />
            <Array as="points">
              <mxPoint x="-510" y="5" />
              <mxPoint x="-510" y="-565" />
            </Array>
          </mxGeometry>
        </mxCell>
        <mxCell id="s4ikNIAql8R8ZUYxvxw--96" value="&lt;span style=&quot;font-size: 12px; text-align: left; background-color: rgb(248, 249, 250);&quot;&gt;updatePoolImpl&lt;/span&gt;" style="edgeLabel;html=1;align=center;verticalAlign=middle;resizable=0;points=[];fontFamily=Comic Sans MS;fontSize=14;" parent="s4ikNIAql8R8ZUYxvxw--95" vertex="1" connectable="0">
          <mxGeometry x="-0.1453" y="2" relative="1" as="geometry">
            <mxPoint x="-8" y="183" as="offset" />
          </mxGeometry>
        </mxCell>
        <mxCell id="lZq7xQ4H-G2b-LCNkSoX-245" style="edgeStyle=none;rounded=0;orthogonalLoop=1;jettySize=auto;html=1;exitX=0.5;exitY=1;exitDx=0;exitDy=0;exitPerimeter=0;strokeWidth=1;fontSize=22;endArrow=classic;endFill=1;fillColor=default;dashed=1;" edge="1" parent="1" source="s4ikNIAql8R8ZUYxvxw--97">
          <mxGeometry relative="1" as="geometry">
            <mxPoint x="160" y="310" as="targetPoint" />
            <Array as="points">
              <mxPoint x="-388" y="20" />
              <mxPoint x="160" y="20" />
            </Array>
          </mxGeometry>
        </mxCell>
        <mxCell id="s4ikNIAql8R8ZUYxvxw--97" value="Pool&lt;br&gt;Configuration&lt;br&gt;logic" style="shape=card;whiteSpace=wrap;html=1;shadow=1;rounded=1;sketch=1;fontFamily=Comic Sans MS;fillColor=#dae8fc;gradientColor=#7ea6e0;strokeColor=#6c8ebf;" parent="1" vertex="1">
          <mxGeometry x="-432.84" y="-369.3300000000002" width="90" height="114.21" as="geometry" />
        </mxCell>
        <mxCell id="s4ikNIAql8R8ZUYxvxw--98" value="contains" style="swimlane;fontStyle=0;childLayout=stackLayout;horizontal=1;startSize=30;horizontalStack=0;resizeParent=1;resizeParentMax=0;resizeLast=0;collapsible=1;marginBottom=0;rounded=1;shadow=1;sketch=1;glass=0;fontFamily=Comic Sans MS;" parent="1" vertex="1">
          <mxGeometry x="-342.84" y="-369.33" width="190" height="120" as="geometry" />
        </mxCell>
        <mxCell id="s4ikNIAql8R8ZUYxvxw--99" value="setReserveXXX / initReserve" style="text;strokeColor=none;fillColor=none;align=left;verticalAlign=middle;spacingLeft=4;spacingRight=4;overflow=hidden;points=[[0,0.5],[1,0.5]];portConstraint=eastwest;rotatable=0;fontFamily=Comic Sans MS;" parent="s4ikNIAql8R8ZUYxvxw--98" vertex="1">
          <mxGeometry y="30" width="190" height="30" as="geometry" />
        </mxCell>
        <mxCell id="s4ikNIAql8R8ZUYxvxw--112" value="setBorror/Supply Cap" style="text;strokeColor=none;fillColor=none;align=left;verticalAlign=middle;spacingLeft=4;spacingRight=4;overflow=hidden;points=[[0,0.5],[1,0.5]];portConstraint=eastwest;rotatable=0;fontFamily=Comic Sans MS;" parent="s4ikNIAql8R8ZUYxvxw--98" vertex="1">
          <mxGeometry y="60" width="190" height="30" as="geometry" />
        </mxCell>
        <mxCell id="s4ikNIAql8R8ZUYxvxw--113" value="setLiquidationProtocalFee" style="text;strokeColor=none;fillColor=none;align=left;verticalAlign=middle;spacingLeft=4;spacingRight=4;overflow=hidden;points=[[0,0.5],[1,0.5]];portConstraint=eastwest;rotatable=0;fontFamily=Comic Sans MS;" parent="s4ikNIAql8R8ZUYxvxw--98" vertex="1">
          <mxGeometry y="90" width="190" height="30" as="geometry" />
        </mxCell>
        <mxCell id="JjG118tm9zApAH-lwlYX-11" value="" style="rounded=1;whiteSpace=wrap;html=1;shadow=1;glass=0;dashed=1;sketch=1;fontFamily=Comic Sans MS;opacity=90;" parent="1" vertex="1">
          <mxGeometry x="-1502" y="355.67" width="1140" height="694.33" as="geometry" />
        </mxCell>
        <mxCell id="JjG118tm9zApAH-lwlYX-12" value="" style="rounded=1;whiteSpace=wrap;html=1;shadow=1;glass=0;dashed=1;sketch=1;fontFamily=Comic Sans MS;opacity=90;" parent="1" vertex="1">
          <mxGeometry x="-997" y="481.6500000000001" width="590" height="489.28" as="geometry" />
        </mxCell>
        <mxCell id="JjG118tm9zApAH-lwlYX-13" value="" style="rounded=1;whiteSpace=wrap;html=1;shadow=1;glass=0;dashed=1;sketch=1;fontColor=#E64980;fontFamily=Comic Sans MS;opacity=50;" parent="1" vertex="1">
          <mxGeometry x="-1437" y="640.9299999999998" width="110" height="255.92" as="geometry" />
        </mxCell>
        <mxCell id="JjG118tm9zApAH-lwlYX-14" style="edgeStyle=orthogonalEdgeStyle;rounded=0;sketch=1;orthogonalLoop=1;jettySize=auto;html=1;exitX=1;exitY=0.5;exitDx=0;exitDy=0;entryX=0;entryY=0;entryDx=0;entryDy=72.10499999999999;entryPerimeter=0;shadow=1;fontColor=#E64980;fontFamily=Comic Sans MS;" parent="1" source="JjG118tm9zApAH-lwlYX-16" target="JjG118tm9zApAH-lwlYX-37" edge="1">
          <mxGeometry relative="1" as="geometry">
            <Array as="points">
              <mxPoint x="-1107" y="610" />
              <mxPoint x="-1080" y="610" />
              <mxPoint x="-1080" y="802" />
            </Array>
            <mxPoint x="-947" y="747.2628400000001" as="targetPoint" />
          </mxGeometry>
        </mxCell>
        <mxCell id="JjG118tm9zApAH-lwlYX-15" value="getPrice" style="edgeLabel;html=1;align=center;verticalAlign=middle;resizable=0;points=[];fontColor=#000000;fontFamily=Comic Sans MS;" parent="JjG118tm9zApAH-lwlYX-14" vertex="1" connectable="0">
          <mxGeometry x="-0.0505" y="-1" relative="1" as="geometry">
            <mxPoint x="4" y="45" as="offset" />
          </mxGeometry>
        </mxCell>
        <mxCell id="JjG118tm9zApAH-lwlYX-16" value="" style="rounded=1;whiteSpace=wrap;html=1;shadow=1;sketch=1;glass=0;dashed=1;fontFamily=Comic Sans MS;fillColor=#b1ddf0;strokeColor=#10739e;opacity=50;" parent="1" vertex="1">
          <mxGeometry x="-1237" y="460" width="130" height="297.95" as="geometry" />
        </mxCell>
        <mxCell id="JjG118tm9zApAH-lwlYX-18" style="edgeStyle=orthogonalEdgeStyle;rounded=0;orthogonalLoop=1;jettySize=auto;html=1;exitX=1;exitY=0.5;exitDx=0;exitDy=0;entryX=0;entryY=0.5;entryDx=0;entryDy=0;shadow=1;fontFamily=Comic Sans MS;" parent="1" source="JjG118tm9zApAH-lwlYX-19" target="JjG118tm9zApAH-lwlYX-28" edge="1">
          <mxGeometry relative="1" as="geometry">
            <Array as="points">
              <mxPoint x="-860" y="559" />
              <mxPoint x="-860" y="557" />
            </Array>
          </mxGeometry>
        </mxCell>
        <mxCell id="JjG118tm9zApAH-lwlYX-19" value="on-chain-market" style="rounded=1;whiteSpace=wrap;html=1;shadow=1;fontFamily=Comic Sans MS;fillColor=#b1ddf0;strokeColor=#10739e;opacity=50;sketch=1;" parent="1" vertex="1">
          <mxGeometry x="-947" y="540.0000000000001" width="90" height="37.1" as="geometry" />
        </mxCell>
        <mxCell id="JjG118tm9zApAH-lwlYX-21" value="opensea" style="rounded=1;whiteSpace=wrap;html=1;shadow=1;fontFamily=Comic Sans MS;fillColor=#b1ddf0;strokeColor=#10739e;opacity=50;sketch=1;" parent="1" vertex="1">
          <mxGeometry x="-947" y="577.1" width="90" height="30" as="geometry" />
        </mxCell>
        <mxCell id="JjG118tm9zApAH-lwlYX-25" style="edgeStyle=orthogonalEdgeStyle;rounded=0;orthogonalLoop=1;jettySize=auto;html=1;exitX=0.5;exitY=1;exitDx=0;exitDy=0;exitPerimeter=0;entryX=0.5;entryY=0;entryDx=0;entryDy=0;shadow=1;fontFamily=Comic Sans MS;" parent="1" source="JjG118tm9zApAH-lwlYX-26" target="JjG118tm9zApAH-lwlYX-30" edge="1">
          <mxGeometry relative="1" as="geometry" />
        </mxCell>
        <mxCell id="JjG118tm9zApAH-lwlYX-26" value="postgres" style="shape=cylinder3;whiteSpace=wrap;html=1;boundedLbl=1;backgroundOutline=1;size=15;shadow=1;sketch=0;fontFamily=Comic Sans MS;fillColor=#b1ddf0;strokeColor=#10739e;opacity=50;" parent="1" vertex="1">
          <mxGeometry x="-527" y="516.6500000000001" width="60" height="80" as="geometry" />
        </mxCell>
        <mxCell id="JjG118tm9zApAH-lwlYX-27" style="edgeStyle=orthogonalEdgeStyle;rounded=0;orthogonalLoop=1;jettySize=auto;html=1;exitX=1;exitY=0.5;exitDx=0;exitDy=0;entryX=0;entryY=0.5;entryDx=0;entryDy=0;entryPerimeter=0;shadow=1;fontFamily=Comic Sans MS;" parent="1" source="JjG118tm9zApAH-lwlYX-28" target="JjG118tm9zApAH-lwlYX-26" edge="1">
          <mxGeometry relative="1" as="geometry" />
        </mxCell>
        <mxCell id="JjG118tm9zApAH-lwlYX-28" value="fetcher" style="rounded=1;whiteSpace=wrap;html=1;fillColor=#d80073;strokeColor=#A50040;fontColor=#ffffff;shadow=1;fontFamily=Comic Sans MS;" parent="1" vertex="1">
          <mxGeometry x="-790" y="526.6499999999999" width="120" height="60" as="geometry" />
        </mxCell>
        <mxCell id="JjG118tm9zApAH-lwlYX-29" style="edgeStyle=orthogonalEdgeStyle;rounded=0;orthogonalLoop=1;jettySize=auto;html=1;exitX=0;exitY=0.5;exitDx=0;exitDy=0;shadow=1;fontFamily=Comic Sans MS;entryX=1;entryY=0.5;entryDx=0;entryDy=0;" parent="1" source="JjG118tm9zApAH-lwlYX-30" edge="1" target="JjG118tm9zApAH-lwlYX-32">
          <mxGeometry relative="1" as="geometry">
            <mxPoint x="-597" y="741.6500000000001" as="targetPoint" />
          </mxGeometry>
        </mxCell>
        <mxCell id="JjG118tm9zApAH-lwlYX-30" value="processor" style="rounded=1;whiteSpace=wrap;html=1;fillColor=#d80073;fontColor=#ffffff;strokeColor=#A50040;shadow=1;fontFamily=Comic Sans MS;" parent="1" vertex="1">
          <mxGeometry x="-557" y="716.0500000000002" width="120" height="60" as="geometry" />
        </mxCell>
        <mxCell id="JjG118tm9zApAH-lwlYX-31" value="" style="rounded=1;whiteSpace=wrap;html=1;shadow=1;glass=0;sketch=1;fontFamily=Comic Sans MS;fillColor=#b1ddf0;strokeColor=#10739e;opacity=50;" parent="1" vertex="1">
          <mxGeometry x="-790" y="701.6500000000001" width="120" height="214.38" as="geometry" />
        </mxCell>
        <mxCell id="JjG118tm9zApAH-lwlYX-32" value="price" style="rounded=1;whiteSpace=wrap;html=1;shadow=1;fontFamily=Comic Sans MS;sketch=1;fillColor=#b1ddf0;strokeColor=#10739e;opacity=50;" parent="1" vertex="1">
          <mxGeometry x="-790" y="724.6500000000001" width="120" height="42.81" as="geometry" />
        </mxCell>
        <mxCell id="JjG118tm9zApAH-lwlYX-33" style="edgeStyle=orthogonalEdgeStyle;rounded=0;orthogonalLoop=1;jettySize=auto;html=1;exitX=0;exitY=0.5;exitDx=0;exitDy=0;entryX=1;entryY=0.5;entryDx=0;entryDy=0;entryPerimeter=0;shadow=1;fontFamily=Comic Sans MS;" parent="1" source="JjG118tm9zApAH-lwlYX-34" target="JjG118tm9zApAH-lwlYX-37" edge="1">
          <mxGeometry relative="1" as="geometry" />
        </mxCell>
        <mxCell id="JjG118tm9zApAH-lwlYX-34" value="ema" style="rounded=1;whiteSpace=wrap;html=1;shadow=1;fontFamily=Comic Sans MS;sketch=1;fillColor=#b1ddf0;strokeColor=#10739e;opacity=50;" parent="1" vertex="1">
          <mxGeometry x="-790" y="766.0300000000002" width="120" height="42.81" as="geometry" />
        </mxCell>
        <mxCell id="JjG118tm9zApAH-lwlYX-35" value="twap" style="rounded=1;whiteSpace=wrap;html=1;shadow=1;fontFamily=Comic Sans MS;sketch=1;fillColor=#b1ddf0;strokeColor=#10739e;opacity=50;" parent="1" vertex="1">
          <mxGeometry x="-790" y="808.8400000000001" width="120" height="42.81" as="geometry" />
        </mxCell>
        <mxCell id="JjG118tm9zApAH-lwlYX-36" value="..." style="rounded=1;whiteSpace=wrap;html=1;shadow=1;fontFamily=Comic Sans MS;sketch=1;fillColor=#b1ddf0;strokeColor=#10739e;opacity=50;" parent="1" vertex="1">
          <mxGeometry x="-790" y="851.6500000000001" width="120" height="42.81" as="geometry" />
        </mxCell>
        <mxCell id="JjG118tm9zApAH-lwlYX-37" value="NFT&lt;br&gt;FloorPrice" style="shape=card;whiteSpace=wrap;html=1;shadow=1;rounded=1;sketch=1;fontFamily=Comic Sans MS;fillColor=#d5e8d4;gradientColor=#97d077;strokeColor=#82b366;" parent="1" vertex="1">
          <mxGeometry x="-937" y="730.3299999999999" width="90" height="114.21" as="geometry" />
        </mxCell>
        <mxCell id="JjG118tm9zApAH-lwlYX-43" style="edgeStyle=orthogonalEdgeStyle;rounded=0;orthogonalLoop=1;jettySize=auto;html=1;exitX=1;exitY=0.5;exitDx=0;exitDy=0;exitPerimeter=0;shadow=1;fontFamily=Comic Sans MS;" parent="1" target="JjG118tm9zApAH-lwlYX-50" edge="1">
          <mxGeometry relative="1" as="geometry">
            <Array as="points">
              <mxPoint x="-1247" y="774.9600000000003" />
              <mxPoint x="-1247" y="691.9600000000003" />
            </Array>
            <mxPoint x="-1347" y="775.155" as="sourcePoint" />
          </mxGeometry>
        </mxCell>
        <mxCell id="JjG118tm9zApAH-lwlYX-46" style="edgeStyle=orthogonalEdgeStyle;rounded=0;orthogonalLoop=1;jettySize=auto;html=1;exitX=1;exitY=0.5;exitDx=0;exitDy=0;exitPerimeter=0;entryX=0;entryY=0;entryDx=0;entryDy=72.10499999999999;entryPerimeter=0;shadow=1;fontFamily=Comic Sans MS;" parent="1" target="JjG118tm9zApAH-lwlYX-53" edge="1">
          <mxGeometry relative="1" as="geometry">
            <Array as="points">
              <mxPoint x="-1247" y="774.9600000000003" />
              <mxPoint x="-1247" y="569.9599999999998" />
            </Array>
            <mxPoint x="-1347" y="775.155" as="sourcePoint" />
          </mxGeometry>
        </mxCell>
        <mxCell id="JjG118tm9zApAH-lwlYX-47" value="setAssetSource" style="edgeLabel;html=1;align=center;verticalAlign=middle;resizable=0;points=[];fontFamily=Comic Sans MS;" parent="JjG118tm9zApAH-lwlYX-46" vertex="1" connectable="0">
          <mxGeometry x="-0.7665" y="-4" relative="1" as="geometry">
            <mxPoint x="11" y="-4" as="offset" />
          </mxGeometry>
        </mxCell>
        <mxCell id="JjG118tm9zApAH-lwlYX-48" value="" style="edgeStyle=orthogonalEdgeStyle;rounded=0;sketch=1;orthogonalLoop=1;jettySize=auto;html=1;shadow=1;fontColor=#000000;fontFamily=Comic Sans MS;entryX=0;entryY=0;entryDx=0;entryDy=72.10499999999999;entryPerimeter=0;" parent="1" source="JjG118tm9zApAH-lwlYX-49" target="JjG118tm9zApAH-lwlYX-54" edge="1">
          <mxGeometry relative="1" as="geometry">
            <Array as="points">
              <mxPoint x="-1380" y="970" />
              <mxPoint x="-1310" y="970" />
            </Array>
          </mxGeometry>
        </mxCell>
        <mxCell id="lZq7xQ4H-G2b-LCNkSoX-261" style="edgeStyle=none;rounded=0;orthogonalLoop=1;jettySize=auto;html=1;exitX=1;exitY=0.5;exitDx=0;exitDy=0;exitPerimeter=0;entryX=0;entryY=0;entryDx=0;entryDy=72.10499999999999;entryPerimeter=0;strokeWidth=1;fontSize=22;endArrow=classic;endFill=1;fillColor=default;" edge="1" parent="1" source="JjG118tm9zApAH-lwlYX-49" target="lZq7xQ4H-G2b-LCNkSoX-257">
          <mxGeometry relative="1" as="geometry">
            <Array as="points">
              <mxPoint x="-1337" y="845" />
              <mxPoint x="-1310" y="845" />
            </Array>
          </mxGeometry>
        </mxCell>
        <mxCell id="JjG118tm9zApAH-lwlYX-49" value="ParaspacePrice&lt;br&gt;Oracle" style="shape=card;whiteSpace=wrap;html=1;shadow=1;rounded=1;sketch=1;fontFamily=Comic Sans MS;fillColor=#dae8fc;gradientColor=#7ea6e0;strokeColor=#6c8ebf;" parent="1" vertex="1">
          <mxGeometry x="-1427" y="770.0999999999999" width="90" height="114.21" as="geometry" />
        </mxCell>
        <mxCell id="JjG118tm9zApAH-lwlYX-50" value="ERC721Oracle&lt;br&gt;Wrapper&lt;br&gt;XXX......" style="shape=card;whiteSpace=wrap;html=1;shadow=1;rounded=1;sketch=1;fontFamily=Comic Sans MS;fillColor=#d5e8d4;gradientColor=#97d077;strokeColor=#82b366;" parent="1" vertex="1">
          <mxGeometry x="-1217" y="634.9600000000003" width="90" height="114.21" as="geometry" />
        </mxCell>
        <mxCell id="JjG118tm9zApAH-lwlYX-53" value="ERC721Oracle&lt;br&gt;Wrapper&lt;br&gt;MAYC" style="shape=card;whiteSpace=wrap;html=1;shadow=1;rounded=1;sketch=1;fontFamily=Comic Sans MS;fillColor=#d5e8d4;gradientColor=#97d077;strokeColor=#82b366;" parent="1" vertex="1">
          <mxGeometry x="-1217" y="497.95999999999975" width="90" height="114.21" as="geometry" />
        </mxCell>
        <mxCell id="JjG118tm9zApAH-lwlYX-54" value="AssetSource&lt;br&gt;" style="shape=card;whiteSpace=wrap;html=1;shadow=1;rounded=1;sketch=1;fontFamily=Comic Sans MS;fillColor=#d5e8d4;gradientColor=#97d077;strokeColor=#82b366;" parent="1" vertex="1">
          <mxGeometry x="-1217" y="896.8500000000003" width="90" height="114.21" as="geometry" />
        </mxCell>
        <mxCell id="JjG118tm9zApAH-lwlYX-55" style="edgeStyle=orthogonalEdgeStyle;rounded=0;sketch=1;orthogonalLoop=1;jettySize=auto;html=1;exitX=0.5;exitY=0;exitDx=0;exitDy=0;exitPerimeter=0;entryX=0.5;entryY=1;entryDx=0;entryDy=0;shadow=1;fontColor=#E64980;fontFamily=Comic Sans MS;" parent="1" source="JjG118tm9zApAH-lwlYX-57" target="JjG118tm9zApAH-lwlYX-61" edge="1">
          <mxGeometry relative="1" as="geometry" />
        </mxCell>
        <mxCell id="JjG118tm9zApAH-lwlYX-56" value="&lt;span style=&quot;color: rgb(0, 0, 0);&quot;&gt;setAssetSource&lt;/span&gt;" style="edgeLabel;html=1;align=center;verticalAlign=middle;resizable=0;points=[];fontColor=#E64980;fontFamily=Comic Sans MS;" parent="JjG118tm9zApAH-lwlYX-55" vertex="1" connectable="0">
          <mxGeometry x="0.0223" relative="1" as="geometry">
            <mxPoint as="offset" />
          </mxGeometry>
        </mxCell>
        <mxCell id="JjG118tm9zApAH-lwlYX-57" value="fallback&lt;br&gt;Oracle" style="shape=card;whiteSpace=wrap;html=1;shadow=1;rounded=1;sketch=1;fontFamily=Comic Sans MS;fillColor=#dae8fc;gradientColor=#7ea6e0;strokeColor=#6c8ebf;" parent="1" vertex="1">
          <mxGeometry x="-1427" y="650.0099999999998" width="90" height="114.21" as="geometry" />
        </mxCell>
        <mxCell id="JjG118tm9zApAH-lwlYX-58" value="NFT&lt;br&gt;PriceAgregators" style="text;html=1;strokeColor=none;fillColor=none;align=center;verticalAlign=middle;whiteSpace=wrap;rounded=0;shadow=1;glass=0;dashed=1;sketch=1;fontFamily=Comic Sans MS;" parent="1" vertex="1">
          <mxGeometry x="-1217" y="465.0699999999999" width="90" height="30" as="geometry" />
        </mxCell>
        <mxCell id="JjG118tm9zApAH-lwlYX-59" style="edgeStyle=orthogonalEdgeStyle;rounded=0;sketch=1;orthogonalLoop=1;jettySize=auto;html=1;exitX=0.5;exitY=0;exitDx=0;exitDy=0;entryX=0.5;entryY=1;entryDx=0;entryDy=0;shadow=1;fontColor=#000000;fontFamily=Comic Sans MS;" parent="1" source="JjG118tm9zApAH-lwlYX-61" target="JjG118tm9zApAH-lwlYX-62" edge="1">
          <mxGeometry relative="1" as="geometry" />
        </mxCell>
        <mxCell id="JjG118tm9zApAH-lwlYX-60" value="getPrice" style="edgeLabel;html=1;align=center;verticalAlign=middle;resizable=0;points=[];fontColor=#000000;fontFamily=Comic Sans MS;" parent="JjG118tm9zApAH-lwlYX-59" vertex="1" connectable="0">
          <mxGeometry x="0.1107" y="2" relative="1" as="geometry">
            <mxPoint as="offset" />
          </mxGeometry>
        </mxCell>
        <mxCell id="JjG118tm9zApAH-lwlYX-61" value="&lt;span style=&quot;color: rgb(0, 0, 0);&quot;&gt;PriceAgregators&lt;/span&gt;" style="rounded=1;whiteSpace=wrap;html=1;shadow=1;glass=0;dashed=1;sketch=1;fontFamily=Comic Sans MS;fillColor=#b1ddf0;strokeColor=#10739e;opacity=50;" parent="1" vertex="1">
          <mxGeometry x="-1457" y="517.1199999999999" width="150" height="50" as="geometry" />
        </mxCell>
        <mxCell id="JjG118tm9zApAH-lwlYX-62" value="chainlink or other sources" style="text;html=1;strokeColor=none;fillColor=none;align=center;verticalAlign=middle;whiteSpace=wrap;rounded=0;shadow=1;glass=0;dashed=1;sketch=1;fontColor=#000000;fontFamily=Comic Sans MS;" parent="1" vertex="1">
          <mxGeometry x="-1472" y="442.1199999999999" width="180" height="30" as="geometry" />
        </mxCell>
        <mxCell id="JjG118tm9zApAH-lwlYX-74" value="ProtocolData&lt;br&gt;Provider" style="shape=card;whiteSpace=wrap;html=1;shadow=1;rounded=1;sketch=1;fontFamily=Comic Sans MS;fillColor=#dae8fc;gradientColor=#7ea6e0;strokeColor=#6c8ebf;" parent="1" vertex="1">
          <mxGeometry x="-445.00000000000006" y="54.53999999999976" width="90" height="114.21" as="geometry" />
        </mxCell>
        <mxCell id="JjG118tm9zApAH-lwlYX-75" value="contains" style="swimlane;fontStyle=0;childLayout=stackLayout;horizontal=1;startSize=30;horizontalStack=0;resizeParent=1;resizeParentMax=0;resizeLast=0;collapsible=1;marginBottom=0;rounded=1;shadow=1;sketch=1;glass=0;fontFamily=Comic Sans MS;" parent="1" vertex="1">
          <mxGeometry x="-355" y="54.539999999999985" width="250" height="150" as="geometry" />
        </mxCell>
        <mxCell id="JjG118tm9zApAH-lwlYX-76" value="getAllReservesTokens" style="text;strokeColor=none;fillColor=none;align=left;verticalAlign=middle;spacingLeft=4;spacingRight=4;overflow=hidden;points=[[0,0.5],[1,0.5]];portConstraint=eastwest;rotatable=0;fontFamily=Comic Sans MS;" parent="JjG118tm9zApAH-lwlYX-75" vertex="1">
          <mxGeometry y="30" width="250" height="30" as="geometry" />
        </mxCell>
        <mxCell id="JjG118tm9zApAH-lwlYX-77" value="getAllPTokens" style="text;strokeColor=none;fillColor=none;align=left;verticalAlign=middle;spacingLeft=4;spacingRight=4;overflow=hidden;points=[[0,0.5],[1,0.5]];portConstraint=eastwest;rotatable=0;fontFamily=Comic Sans MS;" parent="JjG118tm9zApAH-lwlYX-75" vertex="1">
          <mxGeometry y="60" width="250" height="30" as="geometry" />
        </mxCell>
        <mxCell id="JjG118tm9zApAH-lwlYX-84" value="getLiquidationProtocolFee" style="text;strokeColor=none;fillColor=none;align=left;verticalAlign=middle;spacingLeft=4;spacingRight=4;overflow=hidden;points=[[0,0.5],[1,0.5]];portConstraint=eastwest;rotatable=0;fontFamily=Comic Sans MS;" parent="JjG118tm9zApAH-lwlYX-75" vertex="1">
          <mxGeometry y="90" width="250" height="30" as="geometry" />
        </mxCell>
        <mxCell id="JjG118tm9zApAH-lwlYX-78" value="and many data infoXXX...." style="text;strokeColor=none;fillColor=none;align=left;verticalAlign=middle;spacingLeft=4;spacingRight=4;overflow=hidden;points=[[0,0.5],[1,0.5]];portConstraint=eastwest;rotatable=0;fontFamily=Comic Sans MS;" parent="JjG118tm9zApAH-lwlYX-75" vertex="1">
          <mxGeometry y="120" width="250" height="30" as="geometry" />
        </mxCell>
        <mxCell id="JjG118tm9zApAH-lwlYX-245" value="PToken" style="shape=card;whiteSpace=wrap;html=1;shadow=1;rounded=1;sketch=1;fontFamily=Comic Sans MS;fillColor=#dae8fc;gradientColor=#7ea6e0;strokeColor=#6c8ebf;" parent="1" vertex="1">
          <mxGeometry x="502.53999999999996" y="171.63999999999987" width="90" height="114.21" as="geometry" />
        </mxCell>
        <mxCell id="JjG118tm9zApAH-lwlYX-246" value="contains" style="swimlane;fontStyle=0;childLayout=stackLayout;horizontal=1;startSize=30;horizontalStack=0;resizeParent=1;resizeParentMax=0;resizeLast=0;collapsible=1;marginBottom=0;rounded=1;shadow=1;sketch=1;glass=0;fontFamily=Comic Sans MS;" parent="1" vertex="1">
          <mxGeometry x="592.54" y="168.75" width="200" height="120" as="geometry" />
        </mxCell>
        <mxCell id="JjG118tm9zApAH-lwlYX-249" value="mint / burn" style="text;strokeColor=none;fillColor=none;align=left;verticalAlign=middle;spacingLeft=4;spacingRight=4;overflow=hidden;points=[[0,0.5],[1,0.5]];portConstraint=eastwest;rotatable=0;fontFamily=Comic Sans MS;shadow=1;sketch=1;" parent="JjG118tm9zApAH-lwlYX-246" vertex="1">
          <mxGeometry y="30" width="200" height="30" as="geometry" />
        </mxCell>
        <mxCell id="JjG118tm9zApAH-lwlYX-250" value="transferOnLiquidation" style="text;strokeColor=none;fillColor=none;align=left;verticalAlign=middle;spacingLeft=4;spacingRight=4;overflow=hidden;points=[[0,0.5],[1,0.5]];portConstraint=eastwest;rotatable=0;fontFamily=Comic Sans MS;shadow=1;sketch=1;" parent="JjG118tm9zApAH-lwlYX-246" vertex="1">
          <mxGeometry y="60" width="200" height="30" as="geometry" />
        </mxCell>
        <mxCell id="JjG118tm9zApAH-lwlYX-251" value="mintToTreasury" style="text;strokeColor=none;fillColor=none;align=left;verticalAlign=middle;spacingLeft=4;spacingRight=4;overflow=hidden;points=[[0,0.5],[1,0.5]];portConstraint=eastwest;rotatable=0;fontFamily=Comic Sans MS;shadow=1;sketch=1;" parent="JjG118tm9zApAH-lwlYX-246" vertex="1">
          <mxGeometry y="90" width="200" height="30" as="geometry" />
        </mxCell>
        <mxCell id="JjG118tm9zApAH-lwlYX-252" value="NToken" style="shape=card;whiteSpace=wrap;html=1;shadow=1;rounded=1;sketch=1;fontFamily=Comic Sans MS;fillColor=#dae8fc;gradientColor=#7ea6e0;strokeColor=#6c8ebf;" parent="1" vertex="1">
          <mxGeometry x="844.7699999999999" y="174.52999999999997" width="90" height="114.21" as="geometry" />
        </mxCell>
        <mxCell id="JjG118tm9zApAH-lwlYX-253" value="contains" style="swimlane;fontStyle=0;childLayout=stackLayout;horizontal=1;startSize=30;horizontalStack=0;resizeParent=1;resizeParentMax=0;resizeLast=0;collapsible=1;marginBottom=0;rounded=1;shadow=1;sketch=1;glass=0;fontFamily=Comic Sans MS;" parent="1" vertex="1">
          <mxGeometry x="934.7699999999999" y="171.6400000000001" width="200" height="120" as="geometry" />
        </mxCell>
        <mxCell id="JjG118tm9zApAH-lwlYX-254" value="mint / burn" style="text;strokeColor=none;fillColor=none;align=left;verticalAlign=middle;spacingLeft=4;spacingRight=4;overflow=hidden;points=[[0,0.5],[1,0.5]];portConstraint=eastwest;rotatable=0;fontFamily=Comic Sans MS;shadow=1;sketch=1;" parent="JjG118tm9zApAH-lwlYX-253" vertex="1">
          <mxGeometry y="30" width="200" height="30" as="geometry" />
        </mxCell>
        <mxCell id="JjG118tm9zApAH-lwlYX-255" value="transferOnLiquidation" style="text;strokeColor=none;fillColor=none;align=left;verticalAlign=middle;spacingLeft=4;spacingRight=4;overflow=hidden;points=[[0,0.5],[1,0.5]];portConstraint=eastwest;rotatable=0;fontFamily=Comic Sans MS;shadow=1;sketch=1;" parent="JjG118tm9zApAH-lwlYX-253" vertex="1">
          <mxGeometry y="60" width="200" height="30" as="geometry" />
        </mxCell>
        <mxCell id="JjG118tm9zApAH-lwlYX-256" value="mintToTreasury" style="text;strokeColor=none;fillColor=none;align=left;verticalAlign=middle;spacingLeft=4;spacingRight=4;overflow=hidden;points=[[0,0.5],[1,0.5]];portConstraint=eastwest;rotatable=0;fontFamily=Comic Sans MS;shadow=1;sketch=1;" parent="JjG118tm9zApAH-lwlYX-253" vertex="1">
          <mxGeometry y="90" width="200" height="30" as="geometry" />
        </mxCell>
        <mxCell id="JjG118tm9zApAH-lwlYX-257" value="StableDebt&lt;br&gt;Token" style="shape=card;whiteSpace=wrap;html=1;shadow=1;rounded=1;sketch=1;fontFamily=Comic Sans MS;fillColor=#dae8fc;gradientColor=#7ea6e0;strokeColor=#6c8ebf;" parent="1" vertex="1">
          <mxGeometry x="604.5" y="518.74" width="90" height="114.21" as="geometry" />
        </mxCell>
        <mxCell id="JjG118tm9zApAH-lwlYX-258" value="contains" style="swimlane;fontStyle=0;childLayout=stackLayout;horizontal=1;startSize=30;horizontalStack=0;resizeParent=1;resizeParentMax=0;resizeLast=0;collapsible=1;marginBottom=0;rounded=1;shadow=1;sketch=1;glass=0;fontFamily=Comic Sans MS;" parent="1" vertex="1">
          <mxGeometry x="694.4999999999999" y="530.84" width="247" height="90" as="geometry" />
        </mxCell>
        <mxCell id="JjG118tm9zApAH-lwlYX-259" value="getUserStableRate" style="text;strokeColor=none;fillColor=none;align=left;verticalAlign=middle;spacingLeft=4;spacingRight=4;overflow=hidden;points=[[0,0.5],[1,0.5]];portConstraint=eastwest;rotatable=0;fontFamily=Comic Sans MS;shadow=1;sketch=1;" parent="JjG118tm9zApAH-lwlYX-258" vertex="1">
          <mxGeometry y="30" width="247" height="30" as="geometry" />
        </mxCell>
        <mxCell id="JjG118tm9zApAH-lwlYX-260" value="balanceOf(calculateCompoundedInterest)" style="text;strokeColor=none;fillColor=none;align=left;verticalAlign=middle;spacingLeft=4;spacingRight=4;overflow=hidden;points=[[0,0.5],[1,0.5]];portConstraint=eastwest;rotatable=0;fontFamily=Comic Sans MS;shadow=1;sketch=1;" parent="JjG118tm9zApAH-lwlYX-258" vertex="1">
          <mxGeometry y="60" width="247" height="30" as="geometry" />
        </mxCell>
        <mxCell id="JjG118tm9zApAH-lwlYX-262" value="VariableDebt&lt;br&gt;Token" style="shape=card;whiteSpace=wrap;html=1;shadow=1;rounded=1;sketch=1;fontFamily=Comic Sans MS;fillColor=#dae8fc;gradientColor=#7ea6e0;strokeColor=#6c8ebf;" parent="1" vertex="1">
          <mxGeometry x="1054.27" y="518.7299999999998" width="90" height="114.21" as="geometry" />
        </mxCell>
        <mxCell id="JjG118tm9zApAH-lwlYX-263" value="contains" style="swimlane;fontStyle=0;childLayout=stackLayout;horizontal=1;startSize=30;horizontalStack=0;resizeParent=1;resizeParentMax=0;resizeLast=0;collapsible=1;marginBottom=0;rounded=1;shadow=1;sketch=1;glass=0;fontFamily=Comic Sans MS;" parent="1" vertex="1">
          <mxGeometry x="1144.27" y="530.83" width="247" height="90" as="geometry" />
        </mxCell>
        <mxCell id="JjG118tm9zApAH-lwlYX-264" value="getUserStableRate" style="text;strokeColor=none;fillColor=none;align=left;verticalAlign=middle;spacingLeft=4;spacingRight=4;overflow=hidden;points=[[0,0.5],[1,0.5]];portConstraint=eastwest;rotatable=0;fontFamily=Comic Sans MS;shadow=1;sketch=1;" parent="JjG118tm9zApAH-lwlYX-263" vertex="1">
          <mxGeometry y="30" width="247" height="30" as="geometry" />
        </mxCell>
        <mxCell id="JjG118tm9zApAH-lwlYX-265" value="balanceOf(calculateCompoundedInterest)" style="text;strokeColor=none;fillColor=none;align=left;verticalAlign=middle;spacingLeft=4;spacingRight=4;overflow=hidden;points=[[0,0.5],[1,0.5]];portConstraint=eastwest;rotatable=0;fontFamily=Comic Sans MS;shadow=1;sketch=1;" parent="JjG118tm9zApAH-lwlYX-263" vertex="1">
          <mxGeometry y="60" width="247" height="30" as="geometry" />
        </mxCell>
        <mxCell id="JjG118tm9zApAH-lwlYX-266" value="Delegation&lt;br&gt;AwarePToken" style="shape=card;whiteSpace=wrap;html=1;shadow=1;rounded=1;sketch=1;fontFamily=Comic Sans MS;fillColor=#dae8fc;gradientColor=#7ea6e0;strokeColor=#6c8ebf;" parent="1" vertex="1">
          <mxGeometry x="1204.5" y="174.52999999999997" width="90" height="114.21" as="geometry" />
        </mxCell>
        <mxCell id="JjG118tm9zApAH-lwlYX-272" value="Default &lt;br&gt;Reserve&lt;br&gt;InterestRate&lt;br&gt;Strategy" style="shape=card;whiteSpace=wrap;html=1;shadow=1;rounded=1;sketch=1;fontFamily=Comic Sans MS;fillColor=#dae8fc;gradientColor=#7ea6e0;strokeColor=#6c8ebf;" parent="1" vertex="1">
          <mxGeometry x="604.5" y="350.8599999999999" width="90" height="114.21" as="geometry" />
        </mxCell>
        <mxCell id="JjG118tm9zApAH-lwlYX-273" value="contains" style="swimlane;fontStyle=0;childLayout=stackLayout;horizontal=1;startSize=30;horizontalStack=0;resizeParent=1;resizeParentMax=0;resizeLast=0;collapsible=1;marginBottom=0;rounded=1;shadow=1;sketch=1;glass=0;fontFamily=Comic Sans MS;" parent="1" vertex="1">
          <mxGeometry x="694.4999999999999" y="332.96000000000004" width="170.46" height="150" as="geometry" />
        </mxCell>
        <mxCell id="JjG118tm9zApAH-lwlYX-274" value="getVariableRateSlope1 / 2" style="text;strokeColor=none;fillColor=none;align=left;verticalAlign=middle;spacingLeft=4;spacingRight=4;overflow=hidden;points=[[0,0.5],[1,0.5]];portConstraint=eastwest;rotatable=0;fontFamily=Comic Sans MS;shadow=1;sketch=1;" parent="JjG118tm9zApAH-lwlYX-273" vertex="1">
          <mxGeometry y="30" width="170.46" height="30" as="geometry" />
        </mxCell>
        <mxCell id="JjG118tm9zApAH-lwlYX-276" value="getStableRateSlope1 / 2" style="text;strokeColor=none;fillColor=none;align=left;verticalAlign=middle;spacingLeft=4;spacingRight=4;overflow=hidden;points=[[0,0.5],[1,0.5]];portConstraint=eastwest;rotatable=0;fontFamily=Comic Sans MS;shadow=1;sketch=1;" parent="JjG118tm9zApAH-lwlYX-273" vertex="1">
          <mxGeometry y="60" width="170.46" height="30" as="geometry" />
        </mxCell>
        <mxCell id="JjG118tm9zApAH-lwlYX-275" value="getBaseXXXBorrowRate" style="text;strokeColor=none;fillColor=none;align=left;verticalAlign=middle;spacingLeft=4;spacingRight=4;overflow=hidden;points=[[0,0.5],[1,0.5]];portConstraint=eastwest;rotatable=0;fontFamily=Comic Sans MS;shadow=1;sketch=1;" parent="JjG118tm9zApAH-lwlYX-273" vertex="1">
          <mxGeometry y="90" width="170.46" height="30" as="geometry" />
        </mxCell>
        <mxCell id="JjG118tm9zApAH-lwlYX-277" value="getStableRateExcessOffset" style="text;strokeColor=none;fillColor=none;align=left;verticalAlign=middle;spacingLeft=4;spacingRight=4;overflow=hidden;points=[[0,0.5],[1,0.5]];portConstraint=eastwest;rotatable=0;fontFamily=Comic Sans MS;shadow=1;sketch=1;" parent="JjG118tm9zApAH-lwlYX-273" vertex="1">
          <mxGeometry y="120" width="170.46" height="30" as="geometry" />
        </mxCell>
        <mxCell id="JjG118tm9zApAH-lwlYX-290" value="Default&lt;br&gt;Reserve&lt;br&gt;Auction&lt;br&gt;Strategy" style="shape=card;whiteSpace=wrap;html=1;shadow=1;rounded=1;sketch=1;fontFamily=Comic Sans MS;fillColor=#dae8fc;gradientColor=#7ea6e0;strokeColor=#6c8ebf;" parent="1" vertex="1">
          <mxGeometry x="1010" y="345.7899999999999" width="90" height="114.21" as="geometry" />
        </mxCell>
        <mxCell id="JjG118tm9zApAH-lwlYX-296" value="Others" style="shape=card;whiteSpace=wrap;html=1;shadow=1;rounded=1;sketch=1;fontFamily=Comic Sans MS;fillColor=#fff2cc;gradientColor=#ffd966;strokeColor=#d6b656;" parent="1" vertex="1">
          <mxGeometry x="1204.5" y="2.9500000000000384" width="90" height="114.21" as="geometry" />
        </mxCell>
        <mxCell id="JjG118tm9zApAH-lwlYX-297" value="contains" style="swimlane;fontStyle=0;childLayout=stackLayout;horizontal=1;startSize=30;horizontalStack=0;resizeParent=1;resizeParentMax=0;resizeLast=0;collapsible=1;marginBottom=0;rounded=1;shadow=1;sketch=1;glass=0;fontFamily=Comic Sans MS;fillColor=#fff2cc;gradientColor=#ffd966;strokeColor=#d6b656;" parent="1" vertex="1">
          <mxGeometry x="1294.5" y="15.049999999999947" width="200" height="60" as="geometry" />
        </mxCell>
        <mxCell id="JjG118tm9zApAH-lwlYX-299" value="XXX" style="text;strokeColor=none;fillColor=none;align=left;verticalAlign=middle;spacingLeft=4;spacingRight=4;overflow=hidden;points=[[0,0.5],[1,0.5]];portConstraint=eastwest;rotatable=0;fontFamily=Comic Sans MS;shadow=1;sketch=1;" parent="JjG118tm9zApAH-lwlYX-297" vertex="1">
          <mxGeometry y="30" width="200" height="30" as="geometry" />
        </mxCell>
        <mxCell id="JjG118tm9zApAH-lwlYX-300" value="" style="endArrow=none;dashed=1;html=1;rounded=0;shadow=1;sketch=1;fontFamily=Comic Sans MS;fontSize=14;fontColor=#000000;exitX=-0.001;exitY=0.277;exitDx=0;exitDy=0;exitPerimeter=0;entryX=1;entryY=0.281;entryDx=0;entryDy=0;entryPerimeter=0;" parent="1" source="53iojEwprmRMJmLowlNo-5" target="53iojEwprmRMJmLowlNo-5" edge="1">
          <mxGeometry width="50" height="50" relative="1" as="geometry">
            <mxPoint x="865.5799999999999" y="332.96000000000004" as="sourcePoint" />
            <mxPoint x="915.5799999999999" y="282.96000000000004" as="targetPoint" />
          </mxGeometry>
        </mxCell>
        <mxCell id="JjG118tm9zApAH-lwlYX-301" value="" style="endArrow=none;dashed=1;html=1;rounded=0;shadow=1;sketch=1;fontFamily=Comic Sans MS;fontSize=14;fontColor=#000000;exitX=0;exitY=0.5;exitDx=0;exitDy=0;entryX=1;entryY=0.5;entryDx=0;entryDy=0;" parent="1" source="53iojEwprmRMJmLowlNo-5" target="53iojEwprmRMJmLowlNo-5" edge="1">
          <mxGeometry width="50" height="50" relative="1" as="geometry">
            <mxPoint x="468.45007999999973" y="174.55999999999995" as="sourcePoint" />
            <mxPoint x="1554.4950399999998" y="171.86000000000013" as="targetPoint" />
          </mxGeometry>
        </mxCell>
        <mxCell id="JjG118tm9zApAH-lwlYX-302" value="" style="endArrow=none;dashed=1;html=1;rounded=0;shadow=1;sketch=1;fontFamily=Comic Sans MS;fontSize=14;fontColor=#000000;exitX=0;exitY=0.75;exitDx=0;exitDy=0;entryX=1;entryY=0.75;entryDx=0;entryDy=0;" parent="1" source="53iojEwprmRMJmLowlNo-5" target="53iojEwprmRMJmLowlNo-5" edge="1">
          <mxGeometry width="50" height="50" relative="1" as="geometry">
            <mxPoint x="469.5350400000008" y="354.55999999999995" as="sourcePoint" />
            <mxPoint x="1558.8348800000003" y="352.75999999999976" as="targetPoint" />
          </mxGeometry>
        </mxCell>
        <mxCell id="JjG118tm9zApAH-lwlYX-303" value="" style="endArrow=none;dashed=1;html=1;dashPattern=1 3;strokeWidth=2;rounded=0;shadow=1;sketch=1;fontFamily=Comic Sans MS;fontSize=14;fontColor=#000000;exitX=0.325;exitY=-0.001;exitDx=0;exitDy=0;exitPerimeter=0;" parent="1" source="53iojEwprmRMJmLowlNo-5" edge="1">
          <mxGeometry width="50" height="50" relative="1" as="geometry">
            <mxPoint x="924.4999999999999" y="352.96000000000004" as="sourcePoint" />
            <mxPoint x="814.4999999999999" y="312.96000000000004" as="targetPoint" />
          </mxGeometry>
        </mxCell>
        <mxCell id="JjG118tm9zApAH-lwlYX-304" value="" style="endArrow=none;dashed=1;html=1;dashPattern=1 3;strokeWidth=2;rounded=0;shadow=1;sketch=1;fontFamily=Comic Sans MS;fontSize=14;fontColor=#000000;exitX=0.651;exitY=-0.004;exitDx=0;exitDy=0;exitPerimeter=0;" parent="1" source="53iojEwprmRMJmLowlNo-5" edge="1">
          <mxGeometry width="50" height="50" relative="1" as="geometry">
            <mxPoint x="822.1520000000008" y="-47.94000000000006" as="sourcePoint" />
            <mxPoint x="1169.5" y="312.96000000000004" as="targetPoint" />
          </mxGeometry>
        </mxCell>
        <mxCell id="lZq7xQ4H-G2b-LCNkSoX-250" style="edgeStyle=none;rounded=0;orthogonalLoop=1;jettySize=auto;html=1;exitX=0.5;exitY=0;exitDx=0;exitDy=0;exitPerimeter=0;entryX=0;entryY=0.5;entryDx=0;entryDy=0;strokeWidth=1;fontSize=22;endArrow=classic;endFill=1;fillColor=default;" edge="1" parent="1" source="JjG118tm9zApAH-lwlYX-378" target="53iojEwprmRMJmLowlNo-5">
          <mxGeometry relative="1" as="geometry">
            <Array as="points">
              <mxPoint x="87" y="313" />
            </Array>
          </mxGeometry>
        </mxCell>
        <mxCell id="JjG118tm9zApAH-lwlYX-378" value="Reserves&lt;br&gt;SetupHelper" style="shape=card;whiteSpace=wrap;html=1;shadow=1;rounded=1;sketch=1;fontFamily=Comic Sans MS;fillColor=#d5e8d4;gradientColor=#97d077;strokeColor=#82b366;" parent="1" vertex="1">
          <mxGeometry x="42.15999999999998" y="368.75" width="90" height="114.21" as="geometry" />
        </mxCell>
        <mxCell id="JjG118tm9zApAH-lwlYX-379" value="contains" style="swimlane;fontStyle=0;childLayout=stackLayout;horizontal=1;startSize=30;horizontalStack=0;resizeParent=1;resizeParentMax=0;resizeLast=0;collapsible=1;marginBottom=0;rounded=1;shadow=1;sketch=1;glass=0;fontFamily=Comic Sans MS;" parent="1" vertex="1">
          <mxGeometry x="132.15999999999994" y="395.85" width="135" height="60" as="geometry" />
        </mxCell>
        <mxCell id="JjG118tm9zApAH-lwlYX-380" value="configureReserves" style="text;strokeColor=none;fillColor=none;align=left;verticalAlign=middle;spacingLeft=4;spacingRight=4;overflow=hidden;points=[[0,0.5],[1,0.5]];portConstraint=eastwest;rotatable=0;fontFamily=Comic Sans MS;" parent="JjG118tm9zApAH-lwlYX-379" vertex="1">
          <mxGeometry y="30" width="135" height="30" as="geometry" />
        </mxCell>
        <mxCell id="JjG118tm9zApAH-lwlYX-386" value="&lt;div style=&quot;text-align: left;&quot;&gt;init and configure reserves&lt;/div&gt;" style="edgeLabel;html=1;align=center;verticalAlign=middle;resizable=0;points=[];fontSize=16;fontFamily=Comic Sans MS;fontColor=#000000;" parent="1" vertex="1" connectable="0">
          <mxGeometry x="199.65999999999994" y="300.0000000000005" as="geometry" />
        </mxCell>
        <mxCell id="JjG118tm9zApAH-lwlYX-656" value="ACL&lt;br&gt;Manager" style="shape=card;whiteSpace=wrap;html=1;shadow=1;rounded=1;sketch=1;fontFamily=Comic Sans MS;fillColor=#dae8fc;gradientColor=#7ea6e0;strokeColor=#6c8ebf;" parent="1" vertex="1">
          <mxGeometry x="-1052" y="139.99999999999986" width="90" height="114.21" as="geometry" />
        </mxCell>
        <mxCell id="JjG118tm9zApAH-lwlYX-657" value="contains" style="swimlane;fontStyle=0;childLayout=stackLayout;horizontal=1;startSize=30;horizontalStack=0;resizeParent=1;resizeParentMax=0;resizeLast=0;collapsible=1;marginBottom=0;rounded=1;shadow=1;sketch=1;glass=0;fontFamily=Comic Sans MS;" parent="1" vertex="1">
          <mxGeometry x="-962" y="167.09999999999974" width="140" height="60" as="geometry" />
        </mxCell>
        <mxCell id="JjG118tm9zApAH-lwlYX-658" value="add/remove" style="text;strokeColor=none;fillColor=none;align=left;verticalAlign=middle;spacingLeft=4;spacingRight=4;overflow=hidden;points=[[0,0.5],[1,0.5]];portConstraint=eastwest;rotatable=0;fontFamily=Comic Sans MS;" parent="JjG118tm9zApAH-lwlYX-657" vertex="1">
          <mxGeometry y="30" width="140" height="30" as="geometry" />
        </mxCell>
        <mxCell id="JjG118tm9zApAH-lwlYX-661" value="multi-sources" style="text;html=1;strokeColor=none;fillColor=none;align=center;verticalAlign=middle;whiteSpace=wrap;rounded=0;shadow=1;glass=0;dashed=1;labelBorderColor=none;sketch=1;fillStyle=auto;fontFamily=Comic Sans MS;fontSize=16;fontColor=#000000;" parent="1" vertex="1">
          <mxGeometry x="-957" y="510.0000000000001" width="110" height="30" as="geometry" />
        </mxCell>
        <mxCell id="JjG118tm9zApAH-lwlYX-662" value="looksrare" style="rounded=1;whiteSpace=wrap;html=1;shadow=1;fontFamily=Comic Sans MS;fillColor=#b1ddf0;strokeColor=#10739e;opacity=50;sketch=1;" parent="1" vertex="1">
          <mxGeometry x="-947" y="607.1" width="90" height="32.9" as="geometry" />
        </mxCell>
        <mxCell id="JjG118tm9zApAH-lwlYX-676" value="nftfloorprice" style="rounded=1;whiteSpace=wrap;html=1;shadow=1;fontFamily=Comic Sans MS;fillColor=#b1ddf0;strokeColor=#10739e;opacity=50;sketch=1;" parent="1" vertex="1">
          <mxGeometry x="-947" y="640.0000000000001" width="90" height="35.8" as="geometry" />
        </mxCell>
        <mxCell id="JjG118tm9zApAH-lwlYX-815" value="" style="rounded=1;whiteSpace=wrap;html=1;shadow=1;dashed=1;labelBorderColor=#E64980;sketch=1;fillStyle=auto;fontFamily=Comic Sans MS;fontSize=12;gradientDirection=north;opacity=90;" parent="1" vertex="1">
          <mxGeometry x="-1502" y="-1160" width="675" height="1075.32" as="geometry" />
        </mxCell>
        <mxCell id="JjG118tm9zApAH-lwlYX-816" value="UiIncentive&lt;br&gt;DataProvider" style="shape=card;whiteSpace=wrap;html=1;shadow=1;rounded=1;sketch=1;fontFamily=Comic Sans MS;fillColor=#dae8fc;gradientColor=#7ea6e0;strokeColor=#6c8ebf;" parent="1" vertex="1">
          <mxGeometry x="-1432" y="-1049.6799999999996" width="90" height="114.21" as="geometry" />
        </mxCell>
        <mxCell id="JjG118tm9zApAH-lwlYX-817" value="contains" style="swimlane;fontStyle=0;childLayout=stackLayout;horizontal=1;startSize=30;horizontalStack=0;resizeParent=1;resizeParentMax=0;resizeLast=0;collapsible=1;marginBottom=0;rounded=1;shadow=1;sketch=1;glass=0;fontFamily=Comic Sans MS;" parent="1" vertex="1">
          <mxGeometry x="-1342" y="-1049.6799999999996" width="190" height="120" as="geometry" />
        </mxCell>
        <mxCell id="JjG118tm9zApAH-lwlYX-818" value="getFullReservesIncentiveData" style="text;strokeColor=none;fillColor=none;align=left;verticalAlign=middle;spacingLeft=4;spacingRight=4;overflow=hidden;points=[[0,0.5],[1,0.5]];portConstraint=eastwest;rotatable=0;fontFamily=Comic Sans MS;" parent="JjG118tm9zApAH-lwlYX-817" vertex="1">
          <mxGeometry y="30" width="190" height="30" as="geometry" />
        </mxCell>
        <mxCell id="JjG118tm9zApAH-lwlYX-819" value="getReservesIncentivesData" style="text;strokeColor=none;fillColor=none;align=left;verticalAlign=middle;spacingLeft=4;spacingRight=4;overflow=hidden;points=[[0,0.5],[1,0.5]];portConstraint=eastwest;rotatable=0;fontFamily=Comic Sans MS;" parent="JjG118tm9zApAH-lwlYX-817" vertex="1">
          <mxGeometry y="60" width="190" height="30" as="geometry" />
        </mxCell>
        <mxCell id="JjG118tm9zApAH-lwlYX-820" value="getUserReservesIncentivesData" style="text;strokeColor=none;fillColor=none;align=left;verticalAlign=middle;spacingLeft=4;spacingRight=4;overflow=hidden;points=[[0,0.5],[1,0.5]];portConstraint=eastwest;rotatable=0;fontFamily=Comic Sans MS;" parent="JjG118tm9zApAH-lwlYX-817" vertex="1">
          <mxGeometry y="90" width="190" height="30" as="geometry" />
        </mxCell>
        <mxCell id="JjG118tm9zApAH-lwlYX-821" value="UIPoolData&lt;br&gt;Provider" style="shape=card;whiteSpace=wrap;html=1;shadow=1;rounded=1;sketch=1;fontFamily=Comic Sans MS;fillColor=#dae8fc;gradientColor=#7ea6e0;strokeColor=#6c8ebf;" parent="1" vertex="1">
          <mxGeometry x="-1127" y="-924.6799999999998" width="90" height="114.21" as="geometry" />
        </mxCell>
        <mxCell id="JjG118tm9zApAH-lwlYX-822" value="contains" style="swimlane;fontStyle=0;childLayout=stackLayout;horizontal=1;startSize=30;horizontalStack=0;resizeParent=1;resizeParentMax=0;resizeLast=0;collapsible=1;marginBottom=0;rounded=1;shadow=1;sketch=1;glass=0;fontFamily=Comic Sans MS;" parent="1" vertex="1">
          <mxGeometry x="-1037" y="-924.6799999999998" width="190" height="180" as="geometry" />
        </mxCell>
        <mxCell id="JjG118tm9zApAH-lwlYX-823" value="getInterestRateStrategySlopes" style="text;strokeColor=none;fillColor=none;align=left;verticalAlign=middle;spacingLeft=4;spacingRight=4;overflow=hidden;points=[[0,0.5],[1,0.5]];portConstraint=eastwest;rotatable=0;fontFamily=Comic Sans MS;" parent="JjG118tm9zApAH-lwlYX-822" vertex="1">
          <mxGeometry y="30" width="190" height="30" as="geometry" />
        </mxCell>
        <mxCell id="JjG118tm9zApAH-lwlYX-824" value="getReservesList" style="text;strokeColor=none;fillColor=none;align=left;verticalAlign=middle;spacingLeft=4;spacingRight=4;overflow=hidden;points=[[0,0.5],[1,0.5]];portConstraint=eastwest;rotatable=0;fontFamily=Comic Sans MS;" parent="JjG118tm9zApAH-lwlYX-822" vertex="1">
          <mxGeometry y="60" width="190" height="30" as="geometry" />
        </mxCell>
        <mxCell id="JjG118tm9zApAH-lwlYX-825" value="getReservesData" style="text;strokeColor=none;fillColor=none;align=left;verticalAlign=middle;spacingLeft=4;spacingRight=4;overflow=hidden;points=[[0,0.5],[1,0.5]];portConstraint=eastwest;rotatable=0;fontFamily=Comic Sans MS;" parent="JjG118tm9zApAH-lwlYX-822" vertex="1">
          <mxGeometry y="90" width="190" height="30" as="geometry" />
        </mxCell>
        <mxCell id="JjG118tm9zApAH-lwlYX-826" value="getUserReservesData" style="text;strokeColor=none;fillColor=none;align=left;verticalAlign=middle;spacingLeft=4;spacingRight=4;overflow=hidden;points=[[0,0.5],[1,0.5]];portConstraint=eastwest;rotatable=0;fontFamily=Comic Sans MS;" parent="JjG118tm9zApAH-lwlYX-822" vertex="1">
          <mxGeometry y="120" width="190" height="30" as="geometry" />
        </mxCell>
        <mxCell id="JjG118tm9zApAH-lwlYX-827" value="getNTokenData" style="text;strokeColor=none;fillColor=none;align=left;verticalAlign=middle;spacingLeft=4;spacingRight=4;overflow=hidden;points=[[0,0.5],[1,0.5]];portConstraint=eastwest;rotatable=0;fontFamily=Comic Sans MS;" parent="JjG118tm9zApAH-lwlYX-822" vertex="1">
          <mxGeometry y="150" width="190" height="30" as="geometry" />
        </mxCell>
        <mxCell id="JjG118tm9zApAH-lwlYX-829" value="WalletBalance&lt;br&gt;Provider" style="shape=card;whiteSpace=wrap;html=1;shadow=1;rounded=1;sketch=1;fontFamily=Comic Sans MS;fillColor=#dae8fc;gradientColor=#7ea6e0;strokeColor=#6c8ebf;" parent="1" vertex="1">
          <mxGeometry x="-1437" y="-889.9999999999998" width="90" height="114.21" as="geometry" />
        </mxCell>
        <mxCell id="JjG118tm9zApAH-lwlYX-830" value="contains" style="swimlane;fontStyle=0;childLayout=stackLayout;horizontal=1;startSize=30;horizontalStack=0;resizeParent=1;resizeParentMax=0;resizeLast=0;collapsible=1;marginBottom=0;rounded=1;shadow=1;sketch=1;glass=0;fontFamily=Comic Sans MS;" parent="1" vertex="1">
          <mxGeometry x="-1347" y="-877.8999999999996" width="190" height="90" as="geometry" />
        </mxCell>
        <mxCell id="JjG118tm9zApAH-lwlYX-831" value="(batch)balanceOf" style="text;strokeColor=none;fillColor=none;align=left;verticalAlign=middle;spacingLeft=4;spacingRight=4;overflow=hidden;points=[[0,0.5],[1,0.5]];portConstraint=eastwest;rotatable=0;fontFamily=Comic Sans MS;" parent="JjG118tm9zApAH-lwlYX-830" vertex="1">
          <mxGeometry y="30" width="190" height="30" as="geometry" />
        </mxCell>
        <mxCell id="JjG118tm9zApAH-lwlYX-832" value="getUserWalletBalances" style="text;strokeColor=none;fillColor=none;align=left;verticalAlign=middle;spacingLeft=4;spacingRight=4;overflow=hidden;points=[[0,0.5],[1,0.5]];portConstraint=eastwest;rotatable=0;fontFamily=Comic Sans MS;" parent="JjG118tm9zApAH-lwlYX-830" vertex="1">
          <mxGeometry y="60" width="190" height="30" as="geometry" />
        </mxCell>
        <mxCell id="JjG118tm9zApAH-lwlYX-833" value="" style="rounded=1;whiteSpace=wrap;html=1;shadow=1;glass=0;dashed=1;labelBorderColor=none;sketch=1;fillStyle=auto;fontFamily=Comic Sans MS;fontSize=12;strokeColor=#10739e;fillColor=#b1ddf0;gradientDirection=north;opacity=50;" parent="1" vertex="1">
          <mxGeometry x="-1472" y="-740" width="620" height="625.32" as="geometry" />
        </mxCell>
        <mxCell id="lZq7xQ4H-G2b-LCNkSoX-278" style="edgeStyle=none;rounded=0;orthogonalLoop=1;jettySize=auto;html=1;exitX=1;exitY=0.5;exitDx=0;exitDy=0;entryX=0;entryY=0.5;entryDx=0;entryDy=0;strokeWidth=1;fontSize=22;endArrow=none;endFill=0;fillColor=default;dashed=1;" edge="1" parent="1" source="JjG118tm9zApAH-lwlYX-834" target="lZq7xQ4H-G2b-LCNkSoX-76">
          <mxGeometry relative="1" as="geometry">
            <Array as="points">
              <mxPoint x="-850" y="-336" />
              <mxPoint x="-850" y="-565" />
            </Array>
          </mxGeometry>
        </mxCell>
        <mxCell id="JjG118tm9zApAH-lwlYX-834" value="&lt;font style=&quot;font-size: 22px;&quot;&gt;opearate&lt;br&gt;&amp;nbsp;tokens&lt;br&gt;via&lt;br&gt;Pool&lt;/font&gt;" style="rounded=1;whiteSpace=wrap;html=1;shadow=1;glass=0;dashed=1;labelBorderColor=none;sketch=1;fillStyle=auto;fontFamily=Comic Sans MS;fontSize=22;fontColor=#000000;strokeColor=default;fillColor=default;gradientColor=#ffffff;gradientDirection=north;" parent="1" vertex="1">
          <mxGeometry x="-992" y="-420.97" width="110" height="169.97" as="geometry" />
        </mxCell>
        <mxCell id="JjG118tm9zApAH-lwlYX-835" value="WETH&lt;br&gt;Gateway" style="shape=card;whiteSpace=wrap;html=1;shadow=1;rounded=1;sketch=1;fontFamily=Comic Sans MS;fillColor=#dae8fc;gradientColor=#7ea6e0;strokeColor=#6c8ebf;" parent="1" vertex="1">
          <mxGeometry x="-1432" y="-265.97000000000025" width="90" height="114.21" as="geometry" />
        </mxCell>
        <mxCell id="lZq7xQ4H-G2b-LCNkSoX-270" style="edgeStyle=none;rounded=0;orthogonalLoop=1;jettySize=auto;html=1;exitX=1;exitY=0.25;exitDx=0;exitDy=0;entryX=0;entryY=0.5;entryDx=0;entryDy=0;strokeWidth=3;fontSize=22;endArrow=none;endFill=0;fillColor=default;dashed=1;" edge="1" parent="1" source="JjG118tm9zApAH-lwlYX-836" target="JjG118tm9zApAH-lwlYX-834">
          <mxGeometry relative="1" as="geometry">
            <Array as="points">
              <mxPoint x="-1050" y="-224" />
              <mxPoint x="-1050" y="-336" />
            </Array>
          </mxGeometry>
        </mxCell>
        <mxCell id="JjG118tm9zApAH-lwlYX-836" value="contains" style="swimlane;fontStyle=0;childLayout=stackLayout;horizontal=1;startSize=30;horizontalStack=0;resizeParent=1;resizeParentMax=0;resizeLast=0;collapsible=1;marginBottom=0;rounded=1;shadow=1;sketch=1;glass=0;fontFamily=Comic Sans MS;" parent="1" vertex="1">
          <mxGeometry x="-1342" y="-238.86999999999992" width="200" height="60" as="geometry" />
        </mxCell>
        <mxCell id="JjG118tm9zApAH-lwlYX-837" value="operate ETH via pool" style="text;strokeColor=none;fillColor=none;align=left;verticalAlign=middle;spacingLeft=4;spacingRight=4;overflow=hidden;points=[[0,0.5],[1,0.5]];portConstraint=eastwest;rotatable=0;fontFamily=Comic Sans MS;" parent="JjG118tm9zApAH-lwlYX-836" vertex="1">
          <mxGeometry y="30" width="200" height="30" as="geometry" />
        </mxCell>
        <mxCell id="JjG118tm9zApAH-lwlYX-838" value="WPUNKS&lt;br&gt;Gateway" style="shape=card;whiteSpace=wrap;html=1;shadow=1;rounded=1;sketch=1;fontFamily=Comic Sans MS;fillColor=#dae8fc;gradientColor=#7ea6e0;strokeColor=#6c8ebf;" parent="1" vertex="1">
          <mxGeometry x="-1432" y="-576.4599999999997" width="90" height="114.21" as="geometry" />
        </mxCell>
        <mxCell id="lZq7xQ4H-G2b-LCNkSoX-236" style="edgeStyle=none;rounded=0;orthogonalLoop=1;jettySize=auto;html=1;exitX=1;exitY=0.25;exitDx=0;exitDy=0;entryX=0;entryY=0.5;entryDx=0;entryDy=0;dashed=1;strokeWidth=3;fontSize=22;endArrow=none;endFill=0;fillColor=default;" edge="1" parent="1" source="JjG118tm9zApAH-lwlYX-839" target="JjG118tm9zApAH-lwlYX-834">
          <mxGeometry relative="1" as="geometry">
            <Array as="points">
              <mxPoint x="-1052" y="-527.68" />
              <mxPoint x="-1052" y="-335.68" />
            </Array>
          </mxGeometry>
        </mxCell>
        <mxCell id="JjG118tm9zApAH-lwlYX-839" value="contains" style="swimlane;fontStyle=0;childLayout=stackLayout;horizontal=1;startSize=30;horizontalStack=0;resizeParent=1;resizeParentMax=0;resizeLast=0;collapsible=1;marginBottom=0;rounded=1;shadow=1;sketch=1;glass=0;fontFamily=Comic Sans MS;" parent="1" vertex="1">
          <mxGeometry x="-1342" y="-542.9699999999997" width="200" height="60" as="geometry" />
        </mxCell>
        <mxCell id="JjG118tm9zApAH-lwlYX-840" value="operate PUNK via pool" style="text;strokeColor=none;fillColor=none;align=left;verticalAlign=middle;spacingLeft=4;spacingRight=4;overflow=hidden;points=[[0,0.5],[1,0.5]];portConstraint=eastwest;rotatable=0;fontFamily=Comic Sans MS;" parent="JjG118tm9zApAH-lwlYX-839" vertex="1">
          <mxGeometry y="30" width="200" height="30" as="geometry" />
        </mxCell>
        <mxCell id="lZq7xQ4H-G2b-LCNkSoX-19" value="Pool&lt;br&gt;Marketplace" style="shape=card;whiteSpace=wrap;html=1;shadow=1;rounded=1;sketch=1;fontFamily=Comic Sans MS;fillColor=#f8cecc;strokeColor=#b85450;gradientColor=#FF99CC;" vertex="1" parent="1">
          <mxGeometry x="-92.83999999999992" y="-253.89" width="90" height="114.21" as="geometry" />
        </mxCell>
        <mxCell id="lZq7xQ4H-G2b-LCNkSoX-20" value="Pool&lt;br&gt;Parameters" style="shape=card;whiteSpace=wrap;html=1;shadow=1;rounded=1;sketch=1;fontFamily=Comic Sans MS;fillColor=#f8cecc;strokeColor=#b85450;gradientColor=#FF99CC;" vertex="1" parent="1">
          <mxGeometry x="-92.83999999999992" y="-624.68" width="90" height="114.21" as="geometry" />
        </mxCell>
        <mxCell id="lZq7xQ4H-G2b-LCNkSoX-22" value="Pool&lt;br&gt;Core" style="shape=card;whiteSpace=wrap;html=1;shadow=1;rounded=1;sketch=1;fontFamily=Comic Sans MS;fillColor=#f8cecc;strokeColor=#b85450;gradientColor=#FF99CC;" vertex="1" parent="1">
          <mxGeometry x="-92.83999999999992" y="-984.68" width="90" height="114.21" as="geometry" />
        </mxCell>
        <mxCell id="lZq7xQ4H-G2b-LCNkSoX-23" value="contains" style="swimlane;fontStyle=0;childLayout=stackLayout;horizontal=1;startSize=30;horizontalStack=0;resizeParent=1;resizeParentMax=0;resizeLast=0;collapsible=1;marginBottom=0;rounded=1;shadow=1;sketch=1;glass=0;fontFamily=Comic Sans MS;" vertex="1" parent="1">
          <mxGeometry x="-2.8400000000001455" y="-984.68" width="250" height="300" as="geometry" />
        </mxCell>
        <mxCell id="lZq7xQ4H-G2b-LCNkSoX-24" value="supply / supplyERC721" style="text;strokeColor=none;fillColor=none;align=left;verticalAlign=middle;spacingLeft=4;spacingRight=4;overflow=hidden;points=[[0,0.5],[1,0.5]];portConstraint=eastwest;rotatable=0;fontFamily=Comic Sans MS;" vertex="1" parent="lZq7xQ4H-G2b-LCNkSoX-23">
          <mxGeometry y="30" width="250" height="30" as="geometry" />
        </mxCell>
        <mxCell id="lZq7xQ4H-G2b-LCNkSoX-25" value="withdraw / withdrawERC721" style="text;strokeColor=none;fillColor=none;align=left;verticalAlign=middle;spacingLeft=4;spacingRight=4;overflow=hidden;points=[[0,0.5],[1,0.5]];portConstraint=eastwest;rotatable=0;fontFamily=Comic Sans MS;" vertex="1" parent="lZq7xQ4H-G2b-LCNkSoX-23">
          <mxGeometry y="60" width="250" height="30" as="geometry" />
        </mxCell>
        <mxCell id="lZq7xQ4H-G2b-LCNkSoX-26" value="borrow" style="text;strokeColor=none;fillColor=none;align=left;verticalAlign=middle;spacingLeft=4;spacingRight=4;overflow=hidden;points=[[0,0.5],[1,0.5]];portConstraint=eastwest;rotatable=0;fontFamily=Comic Sans MS;" vertex="1" parent="lZq7xQ4H-G2b-LCNkSoX-23">
          <mxGeometry y="90" width="250" height="30" as="geometry" />
        </mxCell>
        <mxCell id="lZq7xQ4H-G2b-LCNkSoX-27" value="repay / repayWithPToken" style="text;strokeColor=none;fillColor=none;align=left;verticalAlign=middle;spacingLeft=4;spacingRight=4;overflow=hidden;points=[[0,0.5],[1,0.5]];portConstraint=eastwest;rotatable=0;fontFamily=Comic Sans MS;" vertex="1" parent="lZq7xQ4H-G2b-LCNkSoX-23">
          <mxGeometry y="120" width="250" height="30" as="geometry" />
        </mxCell>
        <mxCell id="lZq7xQ4H-G2b-LCNkSoX-28" value="liquidationCall /liquidationERC721" style="text;strokeColor=none;fillColor=none;align=left;verticalAlign=middle;spacingLeft=4;spacingRight=4;overflow=hidden;points=[[0,0.5],[1,0.5]];portConstraint=eastwest;rotatable=0;fontFamily=Comic Sans MS;" vertex="1" parent="lZq7xQ4H-G2b-LCNkSoX-23">
          <mxGeometry y="150" width="250" height="30" as="geometry" />
        </mxCell>
        <mxCell id="lZq7xQ4H-G2b-LCNkSoX-29" value="setUserUseERC20AsCollateral" style="text;strokeColor=none;fillColor=none;align=left;verticalAlign=middle;spacingLeft=4;spacingRight=4;overflow=hidden;points=[[0,0.5],[1,0.5]];portConstraint=eastwest;rotatable=0;fontFamily=Comic Sans MS;" vertex="1" parent="lZq7xQ4H-G2b-LCNkSoX-23">
          <mxGeometry y="180" width="250" height="30" as="geometry" />
        </mxCell>
        <mxCell id="lZq7xQ4H-G2b-LCNkSoX-75" value="setUserUseERC721AsCollateral" style="text;strokeColor=none;fillColor=none;align=left;verticalAlign=middle;spacingLeft=4;spacingRight=4;overflow=hidden;points=[[0,0.5],[1,0.5]];portConstraint=eastwest;rotatable=0;fontFamily=Comic Sans MS;" vertex="1" parent="lZq7xQ4H-G2b-LCNkSoX-23">
          <mxGeometry y="210" width="250" height="30" as="geometry" />
        </mxCell>
        <mxCell id="lZq7xQ4H-G2b-LCNkSoX-30" value="flashClaim" style="text;strokeColor=none;fillColor=none;align=left;verticalAlign=middle;spacingLeft=4;spacingRight=4;overflow=hidden;points=[[0,0.5],[1,0.5]];portConstraint=eastwest;rotatable=0;fontFamily=Comic Sans MS;" vertex="1" parent="lZq7xQ4H-G2b-LCNkSoX-23">
          <mxGeometry y="240" width="250" height="30" as="geometry" />
        </mxCell>
        <mxCell id="lZq7xQ4H-G2b-LCNkSoX-37" value="start/endAuction" style="text;strokeColor=none;fillColor=none;align=left;verticalAlign=middle;spacingLeft=4;spacingRight=4;overflow=hidden;points=[[0,0.5],[1,0.5]];portConstraint=eastwest;rotatable=0;fontFamily=Comic Sans MS;" vertex="1" parent="lZq7xQ4H-G2b-LCNkSoX-23">
          <mxGeometry y="270" width="250" height="30" as="geometry" />
        </mxCell>
        <mxCell id="lZq7xQ4H-G2b-LCNkSoX-38" value="contains" style="swimlane;fontStyle=0;childLayout=stackLayout;horizontal=1;startSize=30;horizontalStack=0;resizeParent=1;resizeParentMax=0;resizeLast=0;collapsible=1;marginBottom=0;rounded=1;shadow=1;sketch=1;glass=0;fontFamily=Comic Sans MS;" vertex="1" parent="1">
          <mxGeometry x="-2.8400000000001455" y="-624.68" width="270" height="300" as="geometry" />
        </mxCell>
        <mxCell id="lZq7xQ4H-G2b-LCNkSoX-48" value="mintToTreasury" style="text;strokeColor=none;fillColor=none;align=left;verticalAlign=middle;spacingLeft=4;spacingRight=4;overflow=hidden;points=[[0,0.5],[1,0.5]];portConstraint=eastwest;rotatable=0;fontFamily=Comic Sans MS;" vertex="1" parent="lZq7xQ4H-G2b-LCNkSoX-38">
          <mxGeometry y="30" width="270" height="30" as="geometry" />
        </mxCell>
        <mxCell id="lZq7xQ4H-G2b-LCNkSoX-49" value="init/drop reserve" style="text;strokeColor=none;fillColor=none;align=left;verticalAlign=middle;spacingLeft=4;spacingRight=4;overflow=hidden;points=[[0,0.5],[1,0.5]];portConstraint=eastwest;rotatable=0;fontFamily=Comic Sans MS;" vertex="1" parent="lZq7xQ4H-G2b-LCNkSoX-38">
          <mxGeometry y="60" width="270" height="30" as="geometry" />
        </mxCell>
        <mxCell id="lZq7xQ4H-G2b-LCNkSoX-50" value="setReserveInterestRateStrategyAddress" style="text;strokeColor=none;fillColor=none;align=left;verticalAlign=middle;spacingLeft=4;spacingRight=4;overflow=hidden;points=[[0,0.5],[1,0.5]];portConstraint=eastwest;rotatable=0;fontFamily=Comic Sans MS;" vertex="1" parent="lZq7xQ4H-G2b-LCNkSoX-38">
          <mxGeometry y="90" width="270" height="30" as="geometry" />
        </mxCell>
        <mxCell id="lZq7xQ4H-G2b-LCNkSoX-52" value="setReserveAuctionStrategyAddress" style="text;strokeColor=none;fillColor=none;align=left;verticalAlign=middle;spacingLeft=4;spacingRight=4;overflow=hidden;points=[[0,0.5],[1,0.5]];portConstraint=eastwest;rotatable=0;fontFamily=Comic Sans MS;" vertex="1" parent="lZq7xQ4H-G2b-LCNkSoX-38">
          <mxGeometry y="120" width="270" height="30" as="geometry" />
        </mxCell>
        <mxCell id="lZq7xQ4H-G2b-LCNkSoX-51" value="setReserveDynamicConfigsStrategyAddress" style="text;strokeColor=none;fillColor=none;align=left;verticalAlign=middle;spacingLeft=4;spacingRight=4;overflow=hidden;points=[[0,0.5],[1,0.5]];portConstraint=eastwest;rotatable=0;fontFamily=Comic Sans MS;" vertex="1" parent="lZq7xQ4H-G2b-LCNkSoX-38">
          <mxGeometry y="150" width="270" height="30" as="geometry" />
        </mxCell>
        <mxCell id="lZq7xQ4H-G2b-LCNkSoX-53" value="setConfiguration/AuctionConfiguration" style="text;strokeColor=none;fillColor=none;align=left;verticalAlign=middle;spacingLeft=4;spacingRight=4;overflow=hidden;points=[[0,0.5],[1,0.5]];portConstraint=eastwest;rotatable=0;fontFamily=Comic Sans MS;" vertex="1" parent="lZq7xQ4H-G2b-LCNkSoX-38">
          <mxGeometry y="180" width="270" height="30" as="geometry" />
        </mxCell>
        <mxCell id="lZq7xQ4H-G2b-LCNkSoX-63" value="rescueTokens" style="text;strokeColor=none;fillColor=none;align=left;verticalAlign=middle;spacingLeft=4;spacingRight=4;overflow=hidden;points=[[0,0.5],[1,0.5]];portConstraint=eastwest;rotatable=0;fontFamily=Comic Sans MS;" vertex="1" parent="lZq7xQ4H-G2b-LCNkSoX-38">
          <mxGeometry y="210" width="270" height="30" as="geometry" />
        </mxCell>
        <mxCell id="lZq7xQ4H-G2b-LCNkSoX-54" value="setMaxUserTotalAtomicTokens" style="text;strokeColor=none;fillColor=none;align=left;verticalAlign=middle;spacingLeft=4;spacingRight=4;overflow=hidden;points=[[0,0.5],[1,0.5]];portConstraint=eastwest;rotatable=0;fontFamily=Comic Sans MS;" vertex="1" parent="lZq7xQ4H-G2b-LCNkSoX-38">
          <mxGeometry y="240" width="270" height="30" as="geometry" />
        </mxCell>
        <mxCell id="lZq7xQ4H-G2b-LCNkSoX-64" value="increase/decreaseUserTotalAtomicTokens" style="text;strokeColor=none;fillColor=none;align=left;verticalAlign=middle;spacingLeft=4;spacingRight=4;overflow=hidden;points=[[0,0.5],[1,0.5]];portConstraint=eastwest;rotatable=0;fontFamily=Comic Sans MS;" vertex="1" parent="lZq7xQ4H-G2b-LCNkSoX-38">
          <mxGeometry y="270" width="270" height="30" as="geometry" />
        </mxCell>
        <mxCell id="lZq7xQ4H-G2b-LCNkSoX-65" value="contains" style="swimlane;fontStyle=0;childLayout=stackLayout;horizontal=1;startSize=30;horizontalStack=0;resizeParent=1;resizeParentMax=0;resizeLast=0;collapsible=1;marginBottom=0;rounded=1;shadow=1;sketch=1;glass=0;fontFamily=Comic Sans MS;" vertex="1" parent="1">
          <mxGeometry x="-2.8400000000001455" y="-253.89" width="270" height="90" as="geometry" />
        </mxCell>
        <mxCell id="lZq7xQ4H-G2b-LCNkSoX-66" value="(batch) buyWithCredit" style="text;strokeColor=none;fillColor=none;align=left;verticalAlign=middle;spacingLeft=4;spacingRight=4;overflow=hidden;points=[[0,0.5],[1,0.5]];portConstraint=eastwest;rotatable=0;fontFamily=Comic Sans MS;" vertex="1" parent="lZq7xQ4H-G2b-LCNkSoX-65">
          <mxGeometry y="30" width="270" height="30" as="geometry" />
        </mxCell>
        <mxCell id="lZq7xQ4H-G2b-LCNkSoX-67" value="(batch) acceptBidWithCredit" style="text;strokeColor=none;fillColor=none;align=left;verticalAlign=middle;spacingLeft=4;spacingRight=4;overflow=hidden;points=[[0,0.5],[1,0.5]];portConstraint=eastwest;rotatable=0;fontFamily=Comic Sans MS;" vertex="1" parent="lZq7xQ4H-G2b-LCNkSoX-65">
          <mxGeometry y="60" width="270" height="30" as="geometry" />
        </mxCell>
        <mxCell id="lZq7xQ4H-G2b-LCNkSoX-78" value="" style="edgeStyle=orthogonalEdgeStyle;rounded=0;orthogonalLoop=1;jettySize=auto;html=1;endArrow=none;endFill=0;" edge="1" parent="1" target="lZq7xQ4H-G2b-LCNkSoX-20">
          <mxGeometry relative="1" as="geometry">
            <mxPoint x="-349.84000000000003" y="-567.5699999999998" as="sourcePoint" />
          </mxGeometry>
        </mxCell>
        <mxCell id="lZq7xQ4H-G2b-LCNkSoX-79" value="" style="edgeStyle=orthogonalEdgeStyle;rounded=0;orthogonalLoop=1;jettySize=auto;html=1;exitX=1;exitY=0.497;exitDx=0;exitDy=0;exitPerimeter=0;entryX=0;entryY=0;entryDx=0;entryDy=72.10499999999999;entryPerimeter=0;endArrow=none;endFill=0;" edge="1" parent="1" target="lZq7xQ4H-G2b-LCNkSoX-22">
          <mxGeometry relative="1" as="geometry">
            <mxPoint x="-349.84000000000003" y="-567.6899999999997" as="sourcePoint" />
            <mxPoint x="-342.84000000000003" y="-944.68" as="targetPoint" />
            <Array as="points">
              <mxPoint x="-132.83999999999992" y="-567.87" />
              <mxPoint x="-132.83999999999992" y="-912.87" />
            </Array>
          </mxGeometry>
        </mxCell>
        <mxCell id="lZq7xQ4H-G2b-LCNkSoX-80" value="" style="edgeStyle=orthogonalEdgeStyle;rounded=0;orthogonalLoop=1;jettySize=auto;html=1;exitX=0.996;exitY=0.497;exitDx=0;exitDy=0;exitPerimeter=0;entryX=0;entryY=0;entryDx=0;entryDy=72.10499999999999;entryPerimeter=0;endArrow=none;endFill=0;" edge="1" parent="1" target="lZq7xQ4H-G2b-LCNkSoX-19">
          <mxGeometry relative="1" as="geometry">
            <mxPoint x="-350.15199999999993" y="-567.6899999999997" as="sourcePoint" />
            <mxPoint x="-82.83999999999992" y="-902.5749999999999" as="targetPoint" />
            <Array as="points">
              <mxPoint x="-132.5" y="-567.68" />
              <mxPoint x="-132.5" y="-184.68" />
              <mxPoint x="-92.5" y="-184.68" />
            </Array>
          </mxGeometry>
        </mxCell>
        <mxCell id="lZq7xQ4H-G2b-LCNkSoX-134" value="" style="rounded=1;whiteSpace=wrap;html=1;fillColor=default;strokeColor=#FFFFFF;glass=0;shadow=1;sketch=1;dashed=1;" vertex="1" parent="1">
          <mxGeometry x="594.5" y="-851.7799999999999" width="270" height="250" as="geometry" />
        </mxCell>
        <mxCell id="lZq7xQ4H-G2b-LCNkSoX-135" value="" style="rounded=1;whiteSpace=wrap;html=1;glass=0;shadow=1;sketch=1;fillColor=default;strokeColor=#FFFFFF;dashed=1;" vertex="1" parent="1">
          <mxGeometry x="594.5" y="-539.68" width="870" height="400" as="geometry" />
        </mxCell>
        <mxCell id="lZq7xQ4H-G2b-LCNkSoX-136" value="" style="rounded=1;whiteSpace=wrap;html=1;shadow=1;sketch=1;glass=0;dashed=1;strokeColor=#FFFFFF;" vertex="1" parent="1">
          <mxGeometry x="1286.5" y="-1044.6800000000003" width="160" height="190" as="geometry" />
        </mxCell>
        <mxCell id="lZq7xQ4H-G2b-LCNkSoX-137" value="" style="edgeStyle=none;html=1;endArrow=none;endFill=0;strokeColor=default;" edge="1" parent="1" source="lZq7xQ4H-G2b-LCNkSoX-185" target="lZq7xQ4H-G2b-LCNkSoX-140">
          <mxGeometry relative="1" as="geometry" />
        </mxCell>
        <mxCell id="lZq7xQ4H-G2b-LCNkSoX-138" style="edgeStyle=orthogonalEdgeStyle;rounded=1;orthogonalLoop=1;jettySize=auto;html=1;entryX=0;entryY=0.5;entryDx=0;entryDy=0;" edge="1" parent="1" target="lZq7xQ4H-G2b-LCNkSoX-142">
          <mxGeometry relative="1" as="geometry">
            <Array as="points">
              <mxPoint x="414.5" y="-564.68" />
              <mxPoint x="454.5" y="-564.68" />
              <mxPoint x="454.5" y="-339.67999999999995" />
            </Array>
            <mxPoint x="414.5" y="-564.68" as="sourcePoint" />
          </mxGeometry>
        </mxCell>
        <mxCell id="lZq7xQ4H-G2b-LCNkSoX-139" style="edgeStyle=orthogonalEdgeStyle;rounded=1;orthogonalLoop=1;jettySize=auto;html=1;entryX=0;entryY=0.5;entryDx=0;entryDy=0;" edge="1" parent="1" target="lZq7xQ4H-G2b-LCNkSoX-143">
          <mxGeometry relative="1" as="geometry">
            <Array as="points">
              <mxPoint x="454.5" y="-564.68" />
              <mxPoint x="454.5" y="-944.68" />
            </Array>
            <mxPoint x="414.5" y="-564.68" as="sourcePoint" />
          </mxGeometry>
        </mxCell>
        <mxCell id="lZq7xQ4H-G2b-LCNkSoX-140" value="ERC20 Positions" style="rounded=1;whiteSpace=wrap;html=1;fillColor=#fff2cc;strokeColor=#d6b656;sketch=1;" vertex="1" parent="1">
          <mxGeometry x="1306.5" y="-984.68" width="120" height="60" as="geometry" />
        </mxCell>
        <mxCell id="lZq7xQ4H-G2b-LCNkSoX-141" value="ERC721 Positions" style="rounded=1;whiteSpace=wrap;html=1;fillColor=#fff2cc;strokeColor=#d6b656;sketch=1;" vertex="1" parent="1">
          <mxGeometry x="1306.5" y="-924.68" width="120" height="60" as="geometry" />
        </mxCell>
        <mxCell id="lZq7xQ4H-G2b-LCNkSoX-142" value="External&lt;br&gt;User Operation" style="rounded=1;whiteSpace=wrap;html=1;fillColor=#cce5ff;strokeColor=#36393d;glass=0;shadow=0;sketch=1;dashed=1;gradientColor=none;" vertex="1" parent="1">
          <mxGeometry x="494.5" y="-539.68" width="100" height="400" as="geometry" />
        </mxCell>
        <mxCell id="lZq7xQ4H-G2b-LCNkSoX-143" value="Pool Storage" style="rounded=1;whiteSpace=wrap;html=1;fillColor=#cce5ff;strokeColor=#36393d;glass=0;shadow=0;sketch=1;dashed=1;gradientColor=none;" vertex="1" parent="1">
          <mxGeometry x="684.5" y="-1029.68" width="100" height="170" as="geometry" />
        </mxCell>
        <mxCell id="lZq7xQ4H-G2b-LCNkSoX-144" value="reserves" style="rounded=1;whiteSpace=wrap;html=1;fillColor=#f8cecc;strokeColor=#b85450;glass=0;shadow=1;sketch=0;dashed=1;" vertex="1" parent="1">
          <mxGeometry x="784.5" y="-979.68" width="100" height="30" as="geometry" />
        </mxCell>
        <mxCell id="lZq7xQ4H-G2b-LCNkSoX-146" value="Supply&lt;br&gt;Logic" style="shape=card;whiteSpace=wrap;html=1;shadow=1;rounded=1;sketch=1;fontFamily=Comic Sans MS;fillColor=#d5e8d4;gradientColor=#97d077;strokeColor=#82b366;" vertex="1" parent="1">
          <mxGeometry x="614.5" y="-527.6" width="90" height="114.21" as="geometry" />
        </mxCell>
        <mxCell id="lZq7xQ4H-G2b-LCNkSoX-147" value="Pool&lt;br&gt;Logic" style="shape=card;whiteSpace=wrap;html=1;shadow=1;rounded=1;sketch=1;fontFamily=Comic Sans MS;fillColor=#d5e8d4;gradientColor=#97d077;strokeColor=#82b366;" vertex="1" parent="1">
          <mxGeometry x="609.5" y="-849.68" width="90" height="114.21" as="geometry" />
        </mxCell>
        <mxCell id="lZq7xQ4H-G2b-LCNkSoX-148" value="Borrow&lt;br&gt;Logic" style="shape=card;whiteSpace=wrap;html=1;shadow=1;rounded=1;sketch=1;fontFamily=Comic Sans MS;fillColor=#d5e8d4;gradientColor=#97d077;strokeColor=#82b366;" vertex="1" parent="1">
          <mxGeometry x="614.5" y="-399.18000000000006" width="90" height="114.21" as="geometry" />
        </mxCell>
        <mxCell id="lZq7xQ4H-G2b-LCNkSoX-149" value="Liquidation&lt;br&gt;Logic" style="shape=card;whiteSpace=wrap;html=1;shadow=1;rounded=1;sketch=1;fontFamily=Comic Sans MS;fillColor=#d5e8d4;gradientColor=#97d077;strokeColor=#82b366;" vertex="1" parent="1">
          <mxGeometry x="884.5" y="-527.6" width="90" height="114.21" as="geometry" />
        </mxCell>
        <mxCell id="lZq7xQ4H-G2b-LCNkSoX-150" value="Configuration&lt;br&gt;Logic" style="shape=card;whiteSpace=wrap;html=1;shadow=1;rounded=1;sketch=1;fontFamily=Comic Sans MS;fillColor=#d5e8d4;gradientColor=#97d077;strokeColor=#82b366;" vertex="1" parent="1">
          <mxGeometry x="609.5" y="-723.89" width="90" height="114.21" as="geometry" />
        </mxCell>
        <mxCell id="lZq7xQ4H-G2b-LCNkSoX-151" value="FlashClaim&lt;br&gt;Logic" style="shape=card;whiteSpace=wrap;html=1;shadow=1;rounded=1;sketch=1;fontFamily=Comic Sans MS;fillColor=#d5e8d4;gradientColor=#97d077;strokeColor=#82b366;" vertex="1" parent="1">
          <mxGeometry x="884.5" y="-399.18000000000006" width="90" height="114.21" as="geometry" />
        </mxCell>
        <mxCell id="lZq7xQ4H-G2b-LCNkSoX-152" value="Validation&lt;br&gt;Logic" style="shape=card;whiteSpace=wrap;html=1;shadow=1;rounded=1;sketch=1;fontFamily=Comic Sans MS;fillColor=#d5e8d4;gradientColor=#97d077;strokeColor=#82b366;" vertex="1" parent="1">
          <mxGeometry x="1201.5" y="-384.68000000000006" width="90" height="114.21" as="geometry" />
        </mxCell>
        <mxCell id="lZq7xQ4H-G2b-LCNkSoX-153" style="edgeStyle=none;html=1;entryX=1;entryY=0.5;entryDx=0;entryDy=0;endArrow=classic;endFill=1;strokeColor=default;startArrow=none;" edge="1" parent="1" target="lZq7xQ4H-G2b-LCNkSoX-144">
          <mxGeometry relative="1" as="geometry">
            <Array as="points">
              <mxPoint x="944.5" y="-811.68" />
              <mxPoint x="944.5" y="-964.68" />
            </Array>
            <mxPoint x="944.5" y="-764.68" as="sourcePoint" />
          </mxGeometry>
        </mxCell>
        <mxCell id="lZq7xQ4H-G2b-LCNkSoX-154" value="Init/Drop Reserve" style="whiteSpace=wrap;html=1;fontFamily=Comic Sans MS;shadow=1;rounded=1;sketch=0;fillColor=#f5f5f5;fontColor=#333333;strokeColor=#666666;" vertex="1" parent="1">
          <mxGeometry x="699.5" y="-829.68" width="150" height="35" as="geometry" />
        </mxCell>
        <mxCell id="lZq7xQ4H-G2b-LCNkSoX-155" value="userConfigs" style="rounded=1;whiteSpace=wrap;html=1;fillColor=#f8cecc;strokeColor=#b85450;glass=0;shadow=1;sketch=0;dashed=1;" vertex="1" parent="1">
          <mxGeometry x="784.5" y="-939.68" width="100" height="30" as="geometry" />
        </mxCell>
        <mxCell id="lZq7xQ4H-G2b-LCNkSoX-156" style="edgeStyle=none;html=1;exitX=1;exitY=0.5;exitDx=0;exitDy=0;entryX=1;entryY=0.5;entryDx=0;entryDy=0;strokeColor=default;endArrow=none;endFill=0;" edge="1" parent="1" source="lZq7xQ4H-G2b-LCNkSoX-157" target="lZq7xQ4H-G2b-LCNkSoX-144">
          <mxGeometry relative="1" as="geometry">
            <Array as="points">
              <mxPoint x="894.5" y="-1004.68" />
              <mxPoint x="894.5" y="-964.68" />
            </Array>
          </mxGeometry>
        </mxCell>
        <mxCell id="lZq7xQ4H-G2b-LCNkSoX-157" value="reserve list" style="rounded=1;whiteSpace=wrap;html=1;fillColor=#f8cecc;strokeColor=#b85450;glass=0;shadow=1;sketch=0;dashed=1;" vertex="1" parent="1">
          <mxGeometry x="784.5" y="-1019.6800000000001" width="100" height="30" as="geometry" />
        </mxCell>
        <mxCell id="lZq7xQ4H-G2b-LCNkSoX-158" value="some constants" style="rounded=1;whiteSpace=wrap;html=1;fillColor=#f8cecc;strokeColor=#b85450;glass=0;shadow=1;sketch=0;dashed=1;" vertex="1" parent="1">
          <mxGeometry x="784.5" y="-899.68" width="100" height="30" as="geometry" />
        </mxCell>
        <mxCell id="lZq7xQ4H-G2b-LCNkSoX-159" style="edgeStyle=none;html=1;exitX=1;exitY=0.5;exitDx=0;exitDy=0;endArrow=none;endFill=0;strokeColor=default;" edge="1" parent="1" source="lZq7xQ4H-G2b-LCNkSoX-160">
          <mxGeometry relative="1" as="geometry">
            <mxPoint x="944.5" y="-819.68" as="targetPoint" />
            <Array as="points">
              <mxPoint x="944.5" y="-664.68" />
            </Array>
          </mxGeometry>
        </mxCell>
        <mxCell id="lZq7xQ4H-G2b-LCNkSoX-160" value="update Reserve" style="whiteSpace=wrap;html=1;fontFamily=Comic Sans MS;shadow=1;rounded=1;sketch=0;fillColor=#f5f5f5;fontColor=#333333;strokeColor=#666666;" vertex="1" parent="1">
          <mxGeometry x="699.5" y="-682.18" width="150" height="35" as="geometry" />
        </mxCell>
        <mxCell id="lZq7xQ4H-G2b-LCNkSoX-161" value="flash claim" style="whiteSpace=wrap;html=1;fontFamily=Comic Sans MS;fillColor=#fff2cc;strokeColor=#d6b656;shadow=1;rounded=1;sketch=0;" vertex="1" parent="1">
          <mxGeometry x="974.5" y="-357.17999999999995" width="150" height="35" as="geometry" />
        </mxCell>
        <mxCell id="lZq7xQ4H-G2b-LCNkSoX-162" value="borrow ERC20" style="whiteSpace=wrap;html=1;fontFamily=Comic Sans MS;fillColor=#fff2cc;strokeColor=#d6b656;shadow=1;rounded=1;sketch=0;" vertex="1" parent="1">
          <mxGeometry x="704.5" y="-379.18000000000006" width="150" height="35" as="geometry" />
        </mxCell>
        <mxCell id="lZq7xQ4H-G2b-LCNkSoX-163" value="supply ERC20/ERC721" style="whiteSpace=wrap;html=1;fontFamily=Comic Sans MS;fillColor=#fff2cc;strokeColor=#d6b656;shadow=1;rounded=1;sketch=0;" vertex="1" parent="1">
          <mxGeometry x="704.5" y="-522.9900000000004" width="150" height="35" as="geometry" />
        </mxCell>
        <mxCell id="lZq7xQ4H-G2b-LCNkSoX-164" value="withdraw ERC20/ERC721" style="whiteSpace=wrap;html=1;fontFamily=Comic Sans MS;fillColor=#fff2cc;strokeColor=#d6b656;shadow=1;rounded=1;sketch=0;" vertex="1" parent="1">
          <mxGeometry x="704.5" y="-487.99" width="150" height="35" as="geometry" />
        </mxCell>
        <mxCell id="lZq7xQ4H-G2b-LCNkSoX-165" value="repay ERC20" style="whiteSpace=wrap;html=1;fontFamily=Comic Sans MS;fillColor=#fff2cc;strokeColor=#d6b656;shadow=1;rounded=1;sketch=0;" vertex="1" parent="1">
          <mxGeometry x="704.5" y="-334.17999999999995" width="150" height="35" as="geometry" />
        </mxCell>
        <mxCell id="lZq7xQ4H-G2b-LCNkSoX-166" value="liquidate ERC20/ERC721" style="whiteSpace=wrap;html=1;fontFamily=Comic Sans MS;fillColor=#fff2cc;strokeColor=#d6b656;shadow=1;rounded=1;sketch=0;" vertex="1" parent="1">
          <mxGeometry x="974.5" y="-487.99" width="150" height="35" as="geometry" />
        </mxCell>
        <mxCell id="lZq7xQ4H-G2b-LCNkSoX-167" style="edgeStyle=none;html=1;exitX=1;exitY=0.5;exitDx=0;exitDy=0;endArrow=none;endFill=0;strokeColor=default;" edge="1" parent="1" source="lZq7xQ4H-G2b-LCNkSoX-168">
          <mxGeometry relative="1" as="geometry">
            <mxPoint x="944.5" y="-819.68" as="targetPoint" />
            <Array as="points">
              <mxPoint x="944.5" y="-761.68" />
            </Array>
          </mxGeometry>
        </mxCell>
        <mxCell id="lZq7xQ4H-G2b-LCNkSoX-168" value="getUserAccountData" style="whiteSpace=wrap;html=1;fontFamily=Comic Sans MS;shadow=1;rounded=1;sketch=0;fillColor=#fff2cc;strokeColor=#d6b656;" vertex="1" parent="1">
          <mxGeometry x="699.5" y="-779.68" width="150" height="35" as="geometry" />
        </mxCell>
        <mxCell id="lZq7xQ4H-G2b-LCNkSoX-169" value="set ERC20/ERC721 as collateral" style="whiteSpace=wrap;html=1;fontFamily=Comic Sans MS;fillColor=#fff2cc;strokeColor=#d6b656;shadow=1;rounded=1;sketch=0;" vertex="1" parent="1">
          <mxGeometry x="704.5" y="-452.99" width="150" height="35" as="geometry" />
        </mxCell>
        <mxCell id="lZq7xQ4H-G2b-LCNkSoX-170" value="Marketplace&lt;br&gt;Logic" style="shape=card;whiteSpace=wrap;html=1;shadow=1;rounded=1;sketch=1;fontFamily=Comic Sans MS;fillColor=#d5e8d4;gradientColor=#97d077;strokeColor=#82b366;" vertex="1" parent="1">
          <mxGeometry x="734.5" y="-265.9699999999999" width="90" height="114.21" as="geometry" />
        </mxCell>
        <mxCell id="lZq7xQ4H-G2b-LCNkSoX-171" value="accept bid with credit" style="whiteSpace=wrap;html=1;fontFamily=Comic Sans MS;fillColor=#fff2cc;strokeColor=#d6b656;shadow=1;rounded=1;sketch=0;" vertex="1" parent="1">
          <mxGeometry x="824.5" y="-203.41000000000003" width="150" height="35" as="geometry" />
        </mxCell>
        <mxCell id="lZq7xQ4H-G2b-LCNkSoX-172" value="buy with credit" style="whiteSpace=wrap;html=1;fontFamily=Comic Sans MS;fillColor=#fff2cc;strokeColor=#d6b656;shadow=1;rounded=1;sketch=0;" vertex="1" parent="1">
          <mxGeometry x="824.5" y="-249.3300000000001" width="150" height="35" as="geometry" />
        </mxCell>
        <mxCell id="lZq7xQ4H-G2b-LCNkSoX-173" value="Internal&lt;br&gt;Admin Operation" style="rounded=1;whiteSpace=wrap;html=1;fillColor=#cce5ff;strokeColor=#36393d;glass=0;shadow=0;sketch=1;dashed=1;gradientColor=none;" vertex="1" parent="1">
          <mxGeometry x="494.5" y="-849.68" width="100" height="250" as="geometry" />
        </mxCell>
        <mxCell id="lZq7xQ4H-G2b-LCNkSoX-174" value="external" style="text;html=1;strokeColor=#d6b656;fillColor=#fff2cc;align=center;verticalAlign=middle;whiteSpace=wrap;rounded=0;sketch=0;" vertex="1" parent="1">
          <mxGeometry x="794.5" y="-744.68" width="55" height="30" as="geometry" />
        </mxCell>
        <mxCell id="lZq7xQ4H-G2b-LCNkSoX-175" value="supply ERC20/ERC721" style="whiteSpace=wrap;html=1;fontFamily=Comic Sans MS;fillColor=#fff2cc;strokeColor=#d6b656;shadow=1;rounded=1;sketch=0;" vertex="1" parent="1">
          <mxGeometry x="1291.5" y="-405.9700000000005" width="150" height="35" as="geometry" />
        </mxCell>
        <mxCell id="lZq7xQ4H-G2b-LCNkSoX-176" value="borrow ERC20" style="whiteSpace=wrap;html=1;fontFamily=Comic Sans MS;fillColor=#fff2cc;strokeColor=#d6b656;shadow=1;rounded=1;sketch=0;" vertex="1" parent="1">
          <mxGeometry x="1291.5" y="-370.97" width="150" height="35" as="geometry" />
        </mxCell>
        <mxCell id="lZq7xQ4H-G2b-LCNkSoX-177" value="......" style="whiteSpace=wrap;html=1;fontFamily=Comic Sans MS;fillColor=#fff2cc;strokeColor=#d6b656;shadow=1;rounded=1;sketch=0;" vertex="1" parent="1">
          <mxGeometry x="1291.5" y="-335.9699999999999" width="150" height="35" as="geometry" />
        </mxCell>
        <mxCell id="lZq7xQ4H-G2b-LCNkSoX-178" value="buy with credit" style="whiteSpace=wrap;html=1;fontFamily=Comic Sans MS;fillColor=#fff2cc;strokeColor=#d6b656;shadow=1;rounded=1;sketch=0;" vertex="1" parent="1">
          <mxGeometry x="1291.5" y="-300.9699999999999" width="150" height="35" as="geometry" />
        </mxCell>
        <mxCell id="lZq7xQ4H-G2b-LCNkSoX-179" value="" style="endArrow=none;dashed=1;html=1;dashPattern=1 3;strokeWidth=2;exitX=0.646;exitY=1.003;exitDx=0;exitDy=0;exitPerimeter=0;entryX=0.646;entryY=-0.002;entryDx=0;entryDy=0;entryPerimeter=0;fontSize=12;fillColor=default;strokeColor=#FFFFFF;shadow=1;sketch=1;glass=0;" edge="1" parent="1" source="lZq7xQ4H-G2b-LCNkSoX-135" target="lZq7xQ4H-G2b-LCNkSoX-135">
          <mxGeometry width="50" height="50" relative="1" as="geometry">
            <mxPoint x="884.5" y="-289.67999999999995" as="sourcePoint" />
            <mxPoint x="934.5" y="-339.67999999999995" as="targetPoint" />
          </mxGeometry>
        </mxCell>
        <mxCell id="lZq7xQ4H-G2b-LCNkSoX-180" value="" style="shape=flexArrow;endArrow=classic;html=1;strokeColor=default;" edge="1" parent="1">
          <mxGeometry width="50" height="50" relative="1" as="geometry">
            <mxPoint x="1134.5" y="-316.9899999999999" as="sourcePoint" />
            <mxPoint x="1194.5" y="-316.9899999999999" as="targetPoint" />
          </mxGeometry>
        </mxCell>
        <mxCell id="lZq7xQ4H-G2b-LCNkSoX-181" value="" style="shape=actor;whiteSpace=wrap;html=1;fillColor=#fff2cc;strokeColor=#d6b656;sketch=0;gradientColor=#ffffff;" vertex="1" parent="1">
          <mxGeometry x="1316.5" y="-1034.68" width="40" height="50" as="geometry" />
        </mxCell>
        <mxCell id="lZq7xQ4H-G2b-LCNkSoX-182" value="" style="endArrow=none;dashed=1;html=1;dashPattern=1 3;strokeWidth=2;exitX=1;exitY=0.5;exitDx=0;exitDy=0;entryX=1;entryY=0.5;entryDx=0;entryDy=0;" edge="1" parent="1" source="lZq7xQ4H-G2b-LCNkSoX-155" target="lZq7xQ4H-G2b-LCNkSoX-144">
          <mxGeometry width="50" height="50" relative="1" as="geometry">
            <mxPoint x="1054.5" y="-789.68" as="sourcePoint" />
            <mxPoint x="1104.5" y="-839.68" as="targetPoint" />
            <Array as="points">
              <mxPoint x="914.5" y="-924.68" />
              <mxPoint x="914.5" y="-964.68" />
            </Array>
          </mxGeometry>
        </mxCell>
        <mxCell id="lZq7xQ4H-G2b-LCNkSoX-184" value="" style="endArrow=classic;html=1;strokeColor=default;exitX=0.5;exitY=0;exitDx=0;exitDy=0;entryX=0.5;entryY=1;entryDx=0;entryDy=0;" edge="1" parent="1" source="lZq7xQ4H-G2b-LCNkSoX-175" target="lZq7xQ4H-G2b-LCNkSoX-136">
          <mxGeometry width="50" height="50" relative="1" as="geometry">
            <mxPoint x="1004.5" y="-629.68" as="sourcePoint" />
            <mxPoint x="1054.5" y="-679.68" as="targetPoint" />
            <Array as="points">
              <mxPoint x="1366.5" y="-459.68000000000006" />
            </Array>
          </mxGeometry>
        </mxCell>
        <mxCell id="lZq7xQ4H-G2b-LCNkSoX-185" value="" style="shape=actor;whiteSpace=wrap;html=1;fillColor=#fff2cc;strokeColor=#d6b656;sketch=0;shadow=0;gradientColor=#ffffff;" vertex="1" parent="1">
          <mxGeometry x="1346.5" y="-1034.68" width="40" height="50" as="geometry" />
        </mxCell>
        <mxCell id="lZq7xQ4H-G2b-LCNkSoX-186" value="" style="shape=actor;whiteSpace=wrap;html=1;fillColor=#fff2cc;strokeColor=#d6b656;sketch=0;gradientColor=#ffffff;" vertex="1" parent="1">
          <mxGeometry x="1376.5" y="-1034.68" width="40" height="50" as="geometry" />
        </mxCell>
        <mxCell id="lZq7xQ4H-G2b-LCNkSoX-187" value="understanding data abstractly as positions" style="html=1;shadow=1;dashed=0;shape=mxgraph.bootstrap.rrect;rSize=5;strokeColor=none;strokeWidth=1;fillColor=#F8F9FA;fontColor=#000000;whiteSpace=wrap;align=left;verticalAlign=middle;spacingLeft=0;fontStyle=1;fontSize=14;spacing=5;glass=0;sketch=1;" vertex="1" parent="1">
          <mxGeometry x="944.5" y="-974.68" width="300" height="20" as="geometry" />
        </mxCell>
        <mxCell id="lZq7xQ4H-G2b-LCNkSoX-188" value="" style="endArrow=none;dashed=1;html=1;dashPattern=1 3;strokeWidth=2;shadow=1;sketch=1;fontSize=12;fillColor=default;strokeColor=#FFFFFF;glass=0;" edge="1" parent="1">
          <mxGeometry width="50" height="50" relative="1" as="geometry">
            <mxPoint x="1364.5" y="-769.68" as="sourcePoint" />
            <mxPoint x="914.5" y="-939.68" as="targetPoint" />
            <Array as="points">
              <mxPoint x="1214.5" y="-939.68" />
            </Array>
          </mxGeometry>
        </mxCell>
        <mxCell id="lZq7xQ4H-G2b-LCNkSoX-189" value="state" style="html=1;shadow=0;dashed=0;shape=mxgraph.bootstrap.rrect;rSize=5;strokeColor=none;strokeWidth=1;fillColor=#1CA5B8;fontColor=#FFFFFF;whiteSpace=wrap;align=left;verticalAlign=middle;spacingLeft=0;fontStyle=1;fontSize=14;spacing=5;glass=0;sketch=0;" vertex="1" parent="1">
          <mxGeometry x="534.5" y="-929.68" width="40" height="20" as="geometry" />
        </mxCell>
        <mxCell id="lZq7xQ4H-G2b-LCNkSoX-190" value="" style="endArrow=classic;startArrow=classic;html=1;shadow=0;sketch=1;strokeColor=default;" edge="1" parent="1">
          <mxGeometry width="50" height="50" relative="1" as="geometry">
            <mxPoint x="464.5" y="-879.68" as="sourcePoint" />
            <mxPoint x="534.5" y="-919.68" as="targetPoint" />
            <Array as="points">
              <mxPoint x="464.5" y="-919.68" />
            </Array>
          </mxGeometry>
        </mxCell>
        <mxCell id="lZq7xQ4H-G2b-LCNkSoX-191" value="" style="endArrow=classic;html=1;shadow=0;sketch=1;strokeColor=default;entryX=0;entryY=0.5;entryDx=0;entryDy=0;" edge="1" parent="1" target="lZq7xQ4H-G2b-LCNkSoX-173">
          <mxGeometry width="50" height="50" relative="1" as="geometry">
            <mxPoint x="414.5" y="-564.68" as="sourcePoint" />
            <mxPoint x="394.5" y="-669.68" as="targetPoint" />
            <Array as="points">
              <mxPoint x="454.5" y="-564.68" />
              <mxPoint x="454.5" y="-724.68" />
            </Array>
          </mxGeometry>
        </mxCell>
        <mxCell id="lZq7xQ4H-G2b-LCNkSoX-193" style="rounded=0;orthogonalLoop=1;jettySize=auto;html=1;exitX=0;exitY=0;exitDx=0;exitDy=30;exitPerimeter=0;entryX=-0.004;entryY=0.008;entryDx=0;entryDy=0;entryPerimeter=0;endArrow=none;endFill=0;dashed=1;" edge="1" parent="1" source="lZq7xQ4H-G2b-LCNkSoX-192">
          <mxGeometry relative="1" as="geometry">
            <mxPoint x="-428.1520000000004" y="-587.2500000000001" as="targetPoint" />
          </mxGeometry>
        </mxCell>
        <mxCell id="lZq7xQ4H-G2b-LCNkSoX-194" style="edgeStyle=none;rounded=0;orthogonalLoop=1;jettySize=auto;html=1;exitX=1;exitY=1;exitDx=0;exitDy=0;exitPerimeter=0;endArrow=none;endFill=0;entryX=1.003;entryY=0.957;entryDx=0;entryDy=0;entryPerimeter=0;dashed=1;" edge="1" parent="1" source="lZq7xQ4H-G2b-LCNkSoX-192">
          <mxGeometry relative="1" as="geometry">
            <mxPoint x="-349.6060000000001" y="-549.2900000000001" as="targetPoint" />
          </mxGeometry>
        </mxCell>
        <mxCell id="lZq7xQ4H-G2b-LCNkSoX-195" style="edgeStyle=none;rounded=0;orthogonalLoop=1;jettySize=auto;html=1;exitX=1;exitY=0;exitDx=0;exitDy=0;exitPerimeter=0;endArrow=none;endFill=0;dashed=1;entryX=0.984;entryY=0.102;entryDx=0;entryDy=0;entryPerimeter=0;" edge="1" parent="1" source="lZq7xQ4H-G2b-LCNkSoX-192" target="lZq7xQ4H-G2b-LCNkSoX-201">
          <mxGeometry relative="1" as="geometry">
            <mxPoint x="-352.84000000000003" y="-588.87" as="targetPoint" />
          </mxGeometry>
        </mxCell>
        <mxCell id="lZq7xQ4H-G2b-LCNkSoX-196" style="edgeStyle=none;rounded=0;orthogonalLoop=1;jettySize=auto;html=1;exitX=0;exitY=1;exitDx=0;exitDy=0;exitPerimeter=0;entryX=0.015;entryY=1.026;entryDx=0;entryDy=0;entryPerimeter=0;endArrow=none;endFill=0;dashed=1;" edge="1" parent="1" source="lZq7xQ4H-G2b-LCNkSoX-192">
          <mxGeometry relative="1" as="geometry">
            <mxPoint x="-426.6700000000004" y="-546.5299999999999" as="targetPoint" />
          </mxGeometry>
        </mxCell>
        <mxCell id="lZq7xQ4H-G2b-LCNkSoX-192" value="ParaProxy" style="shape=card;whiteSpace=wrap;html=1;shadow=1;rounded=1;sketch=1;fontFamily=Comic Sans MS;fillColor=#f8cecc;strokeColor=#b85450;gradientColor=#FF99CC;" vertex="1" parent="1">
          <mxGeometry x="-402.84000000000003" y="-713.87" width="90" height="114.21" as="geometry" />
        </mxCell>
        <mxCell id="lZq7xQ4H-G2b-LCNkSoX-198" value="contains" style="swimlane;fontStyle=0;childLayout=stackLayout;horizontal=1;startSize=30;horizontalStack=0;resizeParent=1;resizeParentMax=0;resizeLast=0;collapsible=1;marginBottom=0;rounded=1;shadow=1;sketch=1;glass=0;fontFamily=Comic Sans MS;" vertex="1" parent="1">
          <mxGeometry x="-312.8399999999999" y="-713.8699999999995" width="160" height="60" as="geometry" />
        </mxCell>
        <mxCell id="lZq7xQ4H-G2b-LCNkSoX-199" value="updateImplementation" style="text;strokeColor=none;fillColor=none;align=left;verticalAlign=middle;spacingLeft=4;spacingRight=4;overflow=hidden;points=[[0,0.5],[1,0.5]];portConstraint=eastwest;rotatable=0;fontFamily=Comic Sans MS;" vertex="1" parent="lZq7xQ4H-G2b-LCNkSoX-198">
          <mxGeometry y="30" width="160" height="30" as="geometry" />
        </mxCell>
        <mxCell id="lZq7xQ4H-G2b-LCNkSoX-201" value="Pool" style="html=1;shadow=0;shape=mxgraph.bootstrap.rrect;rSize=5;strokeColor=#36393d;strokeWidth=1;fillColor=#f9f7ed;whiteSpace=wrap;align=center;verticalAlign=middle;spacingLeft=0;fontStyle=0;fontSize=24;spacing=5;glass=0;sketch=0;" vertex="1" parent="1">
          <mxGeometry x="-427.84000000000003" y="-587.5699999999998" width="78" height="40" as="geometry" />
        </mxCell>
        <mxCell id="lZq7xQ4H-G2b-LCNkSoX-202" value="" style="shape=flexArrow;endArrow=classic;html=1;rounded=0;dashed=1;strokeWidth=2;exitX=1;exitY=0.5;exitDx=0;exitDy=0;" edge="1" parent="1" source="lZq7xQ4H-G2b-LCNkSoX-76">
          <mxGeometry width="50" height="50" relative="1" as="geometry">
            <mxPoint x="94.5" y="-614.68" as="sourcePoint" />
            <mxPoint x="414.5" y="-564.68" as="targetPoint" />
          </mxGeometry>
        </mxCell>
        <mxCell id="lZq7xQ4H-G2b-LCNkSoX-204" value="" style="edgeStyle=none;html=1;exitX=1;exitY=0.5;exitDx=0;exitDy=0;endArrow=none;endFill=1;strokeColor=default;" edge="1" parent="1" source="lZq7xQ4H-G2b-LCNkSoX-154">
          <mxGeometry relative="1" as="geometry">
            <Array as="points" />
            <mxPoint x="849.5" y="-812.18" as="sourcePoint" />
            <mxPoint x="944.5" y="-811.68" as="targetPoint" />
          </mxGeometry>
        </mxCell>
        <mxCell id="lZq7xQ4H-G2b-LCNkSoX-183" value="" style="shape=flexArrow;endArrow=classic;html=1;strokeColor=default;entryX=0;entryY=0.5;entryDx=0;entryDy=0;shadow=0;sketch=1;fillColor=default;" edge="1" parent="1" target="lZq7xQ4H-G2b-LCNkSoX-136">
          <mxGeometry width="50" height="50" relative="1" as="geometry">
            <mxPoint x="914.5" y="-949.68" as="sourcePoint" />
            <mxPoint x="994.5" y="-964.68" as="targetPoint" />
            <Array as="points">
              <mxPoint x="954.5" y="-949.68" />
            </Array>
          </mxGeometry>
        </mxCell>
        <mxCell id="lZq7xQ4H-G2b-LCNkSoX-214" value="ParaSpace Entry point" style="html=1;shadow=0;dashed=0;shape=mxgraph.bootstrap.rrect;rSize=5;strokeColor=#DB2843;strokeWidth=1;fillColor=none;fontColor=#DB2843;whiteSpace=wrap;align=center;verticalAlign=middle;spacingLeft=0;fontStyle=0;fontSize=16;spacing=5;sketch=0;" vertex="1" parent="1">
          <mxGeometry x="-715.5" y="-624" width="260" height="40" as="geometry" />
        </mxCell>
        <mxCell id="lZq7xQ4H-G2b-LCNkSoX-216" value="" style="rounded=1;whiteSpace=wrap;html=1;shadow=1;glass=0;dashed=1;dashPattern=1 4;sketch=0;" vertex="1" parent="1">
          <mxGeometry x="-1702" y="-870" width="160" height="735.32" as="geometry" />
        </mxCell>
        <mxCell id="lZq7xQ4H-G2b-LCNkSoX-217" value="" style="shape=actor;whiteSpace=wrap;html=1;fillColor=#fff2cc;strokeColor=#d6b656;sketch=1;" vertex="1" parent="1">
          <mxGeometry x="-1642" y="-764.68" width="40" height="50" as="geometry" />
        </mxCell>
        <mxCell id="lZq7xQ4H-G2b-LCNkSoX-233" value="" style="edgeStyle=none;rounded=0;orthogonalLoop=1;jettySize=auto;html=1;dashed=1;strokeWidth=3;fontSize=22;endArrow=none;endFill=0;fillColor=default;entryX=0;entryY=0.5;entryDx=0;entryDy=0;" edge="1" parent="1" source="lZq7xQ4H-G2b-LCNkSoX-218" target="JjG118tm9zApAH-lwlYX-834">
          <mxGeometry relative="1" as="geometry">
            <Array as="points">
              <mxPoint x="-1052" y="-274.68" />
              <mxPoint x="-1052" y="-335.68" />
            </Array>
          </mxGeometry>
        </mxCell>
        <mxCell id="lZq7xQ4H-G2b-LCNkSoX-218" value="Other ERC20" style="html=1;shadow=0;dashed=0;shape=mxgraph.bootstrap.rrect;rSize=5;strokeColor=#36393d;strokeWidth=1;fillColor=#f9f7ed;whiteSpace=wrap;align=center;verticalAlign=middle;spacingLeft=0;fontStyle=0;fontSize=16;spacing=5;glass=0;dashPattern=1 4;sketch=0;" vertex="1" parent="1">
          <mxGeometry x="-1677" y="-291.0000000000001" width="110" height="40" as="geometry" />
        </mxCell>
        <mxCell id="lZq7xQ4H-G2b-LCNkSoX-229" value="" style="edgeStyle=none;rounded=0;orthogonalLoop=1;jettySize=auto;html=1;dashed=1;strokeWidth=3;fontSize=22;endArrow=none;endFill=0;fillColor=default;entryX=0;entryY=0;entryDx=0;entryDy=72.10499999999999;entryPerimeter=0;" edge="1" parent="1" source="lZq7xQ4H-G2b-LCNkSoX-219" target="lZq7xQ4H-G2b-LCNkSoX-225">
          <mxGeometry relative="1" as="geometry" />
        </mxCell>
        <mxCell id="lZq7xQ4H-G2b-LCNkSoX-219" value="MOONBIRDS" style="html=1;shadow=0;dashed=0;shape=mxgraph.bootstrap.rrect;rSize=5;strokeColor=#36393d;strokeWidth=1;fillColor=#f9f7ed;whiteSpace=wrap;align=center;verticalAlign=middle;spacingLeft=0;fontStyle=0;fontSize=16;spacing=5;glass=0;dashPattern=1 4;sketch=0;" vertex="1" parent="1">
          <mxGeometry x="-1677" y="-367.26000000000016" width="110" height="40" as="geometry" />
        </mxCell>
        <mxCell id="lZq7xQ4H-G2b-LCNkSoX-232" value="" style="edgeStyle=none;rounded=0;orthogonalLoop=1;jettySize=auto;html=1;dashed=1;strokeWidth=3;fontSize=22;endArrow=none;endFill=0;fillColor=default;entryX=0;entryY=0;entryDx=0;entryDy=72.10499999999999;entryPerimeter=0;" edge="1" parent="1" source="lZq7xQ4H-G2b-LCNkSoX-220" target="JjG118tm9zApAH-lwlYX-838">
          <mxGeometry relative="1" as="geometry" />
        </mxCell>
        <mxCell id="lZq7xQ4H-G2b-LCNkSoX-220" value="Cryptopunks" style="html=1;shadow=0;dashed=0;shape=mxgraph.bootstrap.rrect;rSize=5;strokeColor=#36393d;strokeWidth=1;fillColor=#f9f7ed;whiteSpace=wrap;align=center;verticalAlign=middle;spacingLeft=0;fontStyle=0;fontSize=16;spacing=5;glass=0;dashPattern=1 4;sketch=0;" vertex="1" parent="1">
          <mxGeometry x="-1677" y="-524.36" width="110" height="40" as="geometry" />
        </mxCell>
        <mxCell id="lZq7xQ4H-G2b-LCNkSoX-277" value="" style="edgeStyle=none;rounded=0;orthogonalLoop=1;jettySize=auto;html=1;strokeWidth=3;fontSize=22;endArrow=none;endFill=0;fillColor=default;entryX=0;entryY=0.5;entryDx=0;entryDy=0;dashed=1;" edge="1" parent="1" source="lZq7xQ4H-G2b-LCNkSoX-221" target="JjG118tm9zApAH-lwlYX-834">
          <mxGeometry relative="1" as="geometry">
            <Array as="points">
              <mxPoint x="-1050" y="-425" />
              <mxPoint x="-1050" y="-336" />
            </Array>
          </mxGeometry>
        </mxCell>
        <mxCell id="lZq7xQ4H-G2b-LCNkSoX-221" value="Other NFT" style="html=1;shadow=0;dashed=0;shape=mxgraph.bootstrap.rrect;rSize=5;strokeColor=#36393d;strokeWidth=1;fillColor=#f9f7ed;whiteSpace=wrap;align=center;verticalAlign=middle;spacingLeft=0;fontStyle=0;fontSize=16;spacing=5;glass=0;dashPattern=1 4;sketch=0;" vertex="1" parent="1">
          <mxGeometry x="-1677" y="-444.68000000000023" width="110" height="40" as="geometry" />
        </mxCell>
        <mxCell id="lZq7xQ4H-G2b-LCNkSoX-222" value="WETH" style="html=1;shadow=0;dashed=0;shape=mxgraph.bootstrap.rrect;rSize=5;strokeColor=#36393d;strokeWidth=1;fillColor=#f9f7ed;whiteSpace=wrap;align=center;verticalAlign=middle;spacingLeft=0;fontStyle=0;fontSize=16;spacing=5;glass=0;dashPattern=1 4;sketch=0;" vertex="1" parent="1">
          <mxGeometry x="-1677" y="-214.3600000000002" width="110" height="40" as="geometry" />
        </mxCell>
        <mxCell id="lZq7xQ4H-G2b-LCNkSoX-225" value="Moonbird&lt;br&gt;Gateway" style="shape=card;whiteSpace=wrap;html=1;shadow=1;rounded=1;sketch=1;fontFamily=Comic Sans MS;fillColor=#dae8fc;gradientColor=#7ea6e0;strokeColor=#6c8ebf;" vertex="1" parent="1">
          <mxGeometry x="-1432" y="-420.97000000000025" width="90" height="114.21" as="geometry" />
        </mxCell>
        <mxCell id="lZq7xQ4H-G2b-LCNkSoX-226" value="contains" style="swimlane;fontStyle=0;childLayout=stackLayout;horizontal=1;startSize=30;horizontalStack=0;resizeParent=1;resizeParentMax=0;resizeLast=0;collapsible=1;marginBottom=0;rounded=1;shadow=1;sketch=1;glass=0;fontFamily=Comic Sans MS;" vertex="1" parent="1">
          <mxGeometry x="-1342" y="-391.80999999999995" width="200" height="60" as="geometry" />
        </mxCell>
        <mxCell id="lZq7xQ4H-G2b-LCNkSoX-227" value="operate MOONBIRD via pool" style="text;strokeColor=none;fillColor=none;align=left;verticalAlign=middle;spacingLeft=4;spacingRight=4;overflow=hidden;points=[[0,0.5],[1,0.5]];portConstraint=eastwest;rotatable=0;fontFamily=Comic Sans MS;" vertex="1" parent="lZq7xQ4H-G2b-LCNkSoX-226">
          <mxGeometry y="30" width="200" height="30" as="geometry" />
        </mxCell>
        <mxCell id="lZq7xQ4H-G2b-LCNkSoX-230" value="" style="edgeStyle=none;rounded=0;orthogonalLoop=1;jettySize=auto;html=1;dashed=1;strokeWidth=3;fontSize=22;endArrow=none;endFill=0;fillColor=default;entryX=0;entryY=0;entryDx=0;entryDy=72.10499999999999;entryPerimeter=0;exitX=1.004;exitY=0.494;exitDx=0;exitDy=0;exitPerimeter=0;" edge="1" parent="1" source="lZq7xQ4H-G2b-LCNkSoX-222" target="JjG118tm9zApAH-lwlYX-835">
          <mxGeometry relative="1" as="geometry">
            <mxPoint x="-1556.9999999999998" y="-30.61460526315861" as="sourcePoint" />
            <mxPoint x="-1422" y="-31.755000000000308" as="targetPoint" />
          </mxGeometry>
        </mxCell>
        <mxCell id="lZq7xQ4H-G2b-LCNkSoX-237" value="FrontEnd" style="html=1;shadow=0;shape=mxgraph.bootstrap.rrect;rSize=5;strokeColor=#36393d;strokeWidth=1;fillColor=#f9f7ed;whiteSpace=wrap;align=center;verticalAlign=middle;spacingLeft=0;fontStyle=0;fontSize=24;spacing=5;glass=0;sketch=0;" vertex="1" parent="1">
          <mxGeometry x="-1020" y="-1111.79" width="130" height="40" as="geometry" />
        </mxCell>
        <mxCell id="lZq7xQ4H-G2b-LCNkSoX-238" value="User" style="html=1;shadow=0;shape=mxgraph.bootstrap.rrect;rSize=5;strokeColor=#36393d;strokeWidth=1;fillColor=#f9f7ed;whiteSpace=wrap;align=center;verticalAlign=middle;spacingLeft=0;fontStyle=0;fontSize=24;spacing=5;glass=0;sketch=0;" vertex="1" parent="1">
          <mxGeometry x="-1692" y="-834.6800000000001" width="140" height="40" as="geometry" />
        </mxCell>
        <mxCell id="lZq7xQ4H-G2b-LCNkSoX-242" style="edgeStyle=none;rounded=0;orthogonalLoop=1;jettySize=auto;html=1;exitX=1;exitY=0.5;exitDx=0;exitDy=0;entryX=0;entryY=0;entryDx=0;entryDy=72.10499999999999;entryPerimeter=0;strokeWidth=1;fontSize=22;endArrow=classic;endFill=1;fillColor=default;" edge="1" parent="1" source="53iojEwprmRMJmLowlNo-18" target="s4ikNIAql8R8ZUYxvxw--97">
          <mxGeometry relative="1" as="geometry">
            <Array as="points">
              <mxPoint x="-510" y="35" />
              <mxPoint x="-510" y="-297" />
            </Array>
          </mxGeometry>
        </mxCell>
        <mxCell id="lZq7xQ4H-G2b-LCNkSoX-244" style="edgeStyle=none;rounded=0;orthogonalLoop=1;jettySize=auto;html=1;exitX=1;exitY=0.5;exitDx=0;exitDy=0;entryX=0;entryY=0;entryDx=0;entryDy=72.10499999999999;entryPerimeter=0;strokeWidth=1;fontSize=22;endArrow=classic;endFill=1;fillColor=default;" edge="1" parent="1" source="53iojEwprmRMJmLowlNo-19" target="JjG118tm9zApAH-lwlYX-74">
          <mxGeometry relative="1" as="geometry">
            <Array as="points">
              <mxPoint x="-510" y="125" />
            </Array>
          </mxGeometry>
        </mxCell>
        <mxCell id="lZq7xQ4H-G2b-LCNkSoX-251" style="edgeStyle=none;rounded=0;orthogonalLoop=1;jettySize=auto;html=1;exitX=1;exitY=0.5;exitDx=0;exitDy=0;entryX=0;entryY=0;entryDx=0;entryDy=72.10499999999999;entryPerimeter=0;strokeWidth=1;fontSize=22;endArrow=classic;endFill=1;fillColor=default;" edge="1" parent="1" source="53iojEwprmRMJmLowlNo-39" target="53iojEwprmRMJmLowlNo-15">
          <mxGeometry relative="1" as="geometry" />
        </mxCell>
        <mxCell id="lZq7xQ4H-G2b-LCNkSoX-252" value="NFT Oracle Client" style="html=1;shadow=0;shape=mxgraph.bootstrap.rrect;rSize=5;strokeColor=#36393d;strokeWidth=1;fillColor=#f9f7ed;whiteSpace=wrap;align=center;verticalAlign=middle;spacingLeft=0;fontStyle=0;fontSize=24;spacing=5;glass=0;sketch=0;" vertex="1" parent="1">
          <mxGeometry x="-640" y="870" width="223" height="40" as="geometry" />
        </mxCell>
        <mxCell id="lZq7xQ4H-G2b-LCNkSoX-254" value="setBaseCurrency" style="edgeLabel;html=1;align=center;verticalAlign=middle;resizable=0;points=[];fontSize=12;fontFamily=Comic Sans MS;fontColor=#000000;" vertex="1" connectable="0" parent="1">
          <mxGeometry x="-1337" y="959.9999999999999" as="geometry" />
        </mxCell>
        <mxCell id="lZq7xQ4H-G2b-LCNkSoX-255" value="&lt;span style=&quot;font-family: &amp;quot;Comic Sans MS&amp;quot;; font-size: 22px;&quot;&gt;PriceOracle&lt;/span&gt;" style="html=1;shadow=0;shape=mxgraph.bootstrap.rrect;rSize=5;strokeColor=#36393d;strokeWidth=1;fillColor=#f9f7ed;whiteSpace=wrap;align=center;verticalAlign=middle;spacingLeft=0;fontStyle=0;fontSize=24;spacing=5;glass=0;sketch=0;" vertex="1" parent="1">
          <mxGeometry x="-1152" y="387.96" width="223" height="40" as="geometry" />
        </mxCell>
        <mxCell id="lZq7xQ4H-G2b-LCNkSoX-256" style="edgeStyle=none;rounded=0;orthogonalLoop=1;jettySize=auto;html=1;exitX=0;exitY=0.5;exitDx=0;exitDy=0;entryX=0.5;entryY=0;entryDx=0;entryDy=0;strokeWidth=1;fontSize=22;endArrow=classic;endFill=1;fillColor=default;" edge="1" parent="1" source="53iojEwprmRMJmLowlNo-21" target="JjG118tm9zApAH-lwlYX-11">
          <mxGeometry relative="1" as="geometry">
            <Array as="points">
              <mxPoint x="-932" y="275" />
            </Array>
          </mxGeometry>
        </mxCell>
        <mxCell id="lZq7xQ4H-G2b-LCNkSoX-257" value="Chainlink&lt;br&gt;Sources" style="shape=card;whiteSpace=wrap;html=1;shadow=1;rounded=1;sketch=1;fontFamily=Comic Sans MS;fillColor=#d5e8d4;gradientColor=#97d077;strokeColor=#82b366;" vertex="1" parent="1">
          <mxGeometry x="-1217" y="773.1400000000002" width="90" height="114.21" as="geometry" />
        </mxCell>
        <mxCell id="lZq7xQ4H-G2b-LCNkSoX-258" value="setERC20Source" style="edgeLabel;html=1;align=center;verticalAlign=middle;resizable=0;points=[];fontFamily=Comic Sans MS;" vertex="1" connectable="0" parent="1">
          <mxGeometry x="-1349.9960931623948" y="1160.001029844526" as="geometry">
            <mxPoint x="68" y="-320" as="offset" />
          </mxGeometry>
        </mxCell>
        <mxCell id="lZq7xQ4H-G2b-LCNkSoX-260" value="" style="endArrow=none;dashed=1;html=1;rounded=0;strokeWidth=1;fontSize=22;fillColor=default;" edge="1" parent="1">
          <mxGeometry width="50" height="50" relative="1" as="geometry">
            <mxPoint x="-630" y="750" as="sourcePoint" />
            <mxPoint x="-580" y="700" as="targetPoint" />
          </mxGeometry>
        </mxCell>
        <mxCell id="lZq7xQ4H-G2b-LCNkSoX-262" style="edgeStyle=none;rounded=0;orthogonalLoop=1;jettySize=auto;html=1;exitX=0;exitY=0.5;exitDx=0;exitDy=0;entryX=1.022;entryY=0.125;entryDx=0;entryDy=0;entryPerimeter=0;strokeWidth=1;fontSize=22;endArrow=classic;endFill=1;fillColor=default;" edge="1" parent="1" source="53iojEwprmRMJmLowlNo-20" target="JjG118tm9zApAH-lwlYX-656">
          <mxGeometry relative="1" as="geometry" />
        </mxCell>
        <mxCell id="lZq7xQ4H-G2b-LCNkSoX-263" value="XXX" style="shape=card;whiteSpace=wrap;html=1;shadow=1;rounded=1;sketch=1;fontFamily=Comic Sans MS;fillColor=#f8cecc;strokeColor=#b85450;gradientColor=#FF99CC;" vertex="1" parent="1">
          <mxGeometry x="-686" y="-1148.89" width="90" height="114.21" as="geometry" />
        </mxCell>
        <mxCell id="lZq7xQ4H-G2b-LCNkSoX-266" value="XXX" style="shape=card;whiteSpace=wrap;html=1;shadow=1;rounded=1;sketch=1;fontFamily=Comic Sans MS;fillColor=#dae8fc;gradientColor=#7ea6e0;strokeColor=#6c8ebf;" vertex="1" parent="1">
          <mxGeometry x="-571" y="-1148.89" width="90" height="114.21" as="geometry" />
        </mxCell>
        <mxCell id="lZq7xQ4H-G2b-LCNkSoX-267" value="XXX" style="shape=card;whiteSpace=wrap;html=1;shadow=1;rounded=1;sketch=1;fontFamily=Comic Sans MS;fillColor=#d5e8d4;gradientColor=#97d077;strokeColor=#82b366;" vertex="1" parent="1">
          <mxGeometry x="-461" y="-1148.89" width="90" height="114.21" as="geometry" />
        </mxCell>
        <mxCell id="lZq7xQ4H-G2b-LCNkSoX-268" value="ParaSpace contract" style="rounded=1;whiteSpace=wrap;html=1;arcSize=50;strokeColor=#36393d;strokeWidth=1;fillColor=#f9f7ed;whiteSpace=wrap;align=center;verticalAlign=middle;spacingLeft=0;fontStyle=1;fontSize=14;spacing=10;shadow=0;glass=0;dashed=1;sketch=0;" vertex="1" parent="1">
          <mxGeometry x="-690" y="-1194.68" width="319" height="20" as="geometry" />
        </mxCell>
        <mxCell id="lZq7xQ4H-G2b-LCNkSoX-269" value="" style="shape=image;verticalLabelPosition=bottom;labelBackgroundColor=default;verticalAlign=top;aspect=fixed;imageAspect=0;image=data:image/png,iVBORw0KGgoAAAANSUhEUgAAALwAAAC0CAYAAAAuGkbGAAAACXBIWXMAAAsTAAALEwEAmpwYAAAAAXNSR0IArs4c6QAAAARnQU1BAACxjwv8YQUAAIGzSURBVHgB7b1ptG3XVR445zrn3teoeU+SG1lu9Nzg3kYCQuhsBHYljASISRFCjSTYIaMGo34AHqPSVICUH1QCVQmF0zhA6GyTAAWGGAhgBp0EOMHYCEkGt8KS3Kjvnp5ed+89Z89aa835zTnXvleybEtPT8Zbuu+cs5u11177m9/85lxrr830ueUJv4gIvfV7af8xov0HiJYHd2hj2qCN1T5abqxI1nVd22+9JmmfO0Srw0tar+qnrNpq2t6ufxe9mLa+6Zt4TZ/FC9PnlifU0sD9C3+XFve8mA7sJ7pwsaAD05r2VUSXClpaFpLtiujlgqR936rrpql+r78b4Dfss5WFdVM1in371CDKstpDoTNntun0tx3lU/RZtnwO8E+ApYH8bf8LLR54GT1pc4cOrZd0PlV6niqgFxXM7XNpn6uJuAG93tipG0BdTxv1s4J53fZZKNgz+Jezde37NtfiT9NUyz/1wAk68R3/gbfos2D5HODP0aWB/HtfRcvnfjU9WSY6XPF9YWVyWRggG7gbc2+QMnj73dbzDk0NwGD7BvK2vtTd2mfVMbJc2vbmBdaxfcu2t99tn/bZDKBU8FcL2qZNOv4P/gmfpCfw8jnAn4PLm18vhxcX09MayCtMF20dLxWwvKr4LsQAfwP7wsCP4xu7V1VDi8T8bX3f3wDe9l+n4wD+Jm/I5E1mfsieBvybV3T30aO8TU/A5XOA32OR17/9MJ2hw+v9iytovTjcV6ZQrqLklmUpx/iH/+b19Cgubz4ql9aPSyuoDjXQTqJgbtsq+KlUcEr9XSoA2+8G4NK2V3TLIsDbjaNJnnVIGBjF0spbJynUfxdl/g56GIV5g8b8yxb8LofyTnxsh+6vwF/RE2j5Sw/4Dm6iKyptfj5z+cr6/cp6Sy8nZm6ygut/9aN96gd41NbVb79f97thmqZf3vjRr7uGPsXl6FFZPmdBz5yYnlnzIwugp1SwVykjZbN+ArirAG7bp3+v28RAmA0BMmcBI2iSpuqfnZ1gfsgeNrkz7QH+M/Vvs23bI9ithrVTKtu/7iifoSfI8pcS8B3ki/JameQ1FdhX1Nt4uN1JgJv0R4VzqT+FDdy6rW0S7uvbOhKzB12O1d+/XKbt7+Uf/YZbPlk9fuJfyuUba3rOdpfMFVSN0VlB2wHPyuBiQMT29tkLWDZvU/dJzA/wO4gT6BugIXUghcgyOpPpfXgAeIPO7ks1rGYA7fc82N1Y0n1/75/z/fQEWP5SAV7+97dfVWH6hsrIVxErP0swNUtWwYnJvZkA+AbHbgjNCUg3DdvG8AQ80TUsW/9wL+D/+HfJU5eb9KLK6gcyoDtoEWSWDqqpBowMedPUvEwjoEsF3Soxf/MGjclRbjEA5+MA+oUZAMoC6+N3L3/DtlmWpwauXSrNU5wbm3T/a7+L76VzfPmsB3xn8036zknk9fViDxMkSrtyAzwAzpwYW5TJQ8souPVT240N6GD4zvzuKlCD8payPtMZ/z8dlSdVLD6/FnJJcxEV8EPA2cG57kyugOMA3sOxfXMPDegN/G37akcNQUpIHVnE8T27s0zZnWQw04zh2/eu93MQm7R/CxWa5FkvehB8/H/9br6TzuHlsxbwHej7pwp0en0F4qGOaQMqwN2BnCRJB3g3CAN2ly3FjEAYHNmBzSppXAL1cpn8uF6WG9RHP3DwWf/4PRe+ZJ3Z3Bl4nSQIB/jbduzT/lYWOPd9E9tD/kDqwBC6EexTQEPy9HNbtmax2M368/x+r9MM/MtkpA38LW1Zy+ZJpdGxcxn0n3WA70A/uPrOioD6RxeFXJEuRbImb0B2Bu8grnaQWN+cwN6yBvjvwBYzmOJg7+fp58B2pruWF//8b178Jb8wSQSKYiAt3c46eDTwNA+A4BUAb8B3Dd/OubByJt23fW9OYknqFR4u04N9G/DbPjtth6WmPvtghNUYC/T8frWMfVXmtM+2ZPCjs6tmL4/VQPYOOgeXzyrAy/f8QmV0PsoWhIbmZgeuypD2W0ZWD0PotoGGERiHldQ1i6RmExoMyfS8ewgNgCNeuGPj4l/4rYu+9OcbjJqTWUln2g5YMZ3eQMk9K6jAb+umKQwCoG1ng7TBd+Hd67u8WZuhVCAvpgB4B/QyvEVjfk5Sas72857dtm6QPBva+VV7xO791u/mu+kcWz4rAC9H33ZV7VN/Q72cq3RFyqJQgHaeZqSOYPYA1CwjDKLpFsoavThbQ6wTPokGTxDnGeOEtty1vOQX3nHoS97WwVYUnJA20OpNvRQYAZkHMFlTwPw8BqXO/AsFMli/Gw7YPhsHND46r4rq/57fN92fU6Bd9iQ2z5Kn6Xg25kev7s5+uvXb/g9+gM6h5QkNeDn65sMkB2rWhV8vHnSKyYjIusxz6CZnSLKWR5khWSy2NUOJ3x68krkGC4S9LXOwm/V9aCSiWzee9pbfvfALf6Pb1mRATzpcjPkrc3a9zmvLyvBoBG3/tX33oDRp+fY5sLQZlUuVlN/PksczN2T5+eUemR7k+i0mmGv9xSattm+hj3zbj/EOnSNLoSfosnP0P181yf7r6p15PZUunIUMC42YO+ba1bEYUXedIR2nuk63azqGcCx4uB9j6/v+pZ6iWFlFt/dzlYbvSTOVrOdo+8pwPiJsh1k8fef2133+qQ+/VHSL/1FXIPWvtKuqseui/q3rd27qxvar68ziyrqur4DT9W2/UnFe17Vj+/ZWg7q+EW8F4aIfW7qhLvq+tbNrsazbV/Wc7Zj6vaZU6//U+msX7bidur6CmdtxNQ3Zz1sNg0vR75X62zGLur3aQLOZls2spa9oY+MyeiadQ8sTEvDyfT/7xsKLq+uNvVzJbDIQTqpiWNJf+t1Aa7Gqg5wV5A5w3acD1dZ3L8AKby+r71MSt4chqXFZfdpnDwg60L0e/fPFWzf9bxevHrygFV+oA3zRgD1ZTdppKtD8N0DfgFizI/37woC+MPBXBu9AL0szING/tk+38QpUAL9977VpYDejaeU0g2mgB/gXrOdswF6Y0S2s/KX9buBvfw347fe0ocfUy77wZ2s6ls6R5QklaaqEOVL72t9eq32FrvCkomnxrhlMuLNref2ddbsd61qHCBmVyLJY4GpBJ03kwW3OwvCg52n8TVkahVzy+tXlwXL+n7z9wq96o62dPPljAWqXKyZRuJgMkVnqskQg22UFRfaHWhZnvXcev29mlSV76X1sR36/ld2272tj7lNasyTt36TR1mS9u5brr25i9RsfpPe/7W2P/8MlTxiGX/1fP/2aablxXa3xFZmx+xUow6q0YBfhFQBTZ/T+V5g8hrVjYSPibD+xs3SSPl1kFy2/e4jSE+6k3mIyBo/9B8bv+07qFUxi9UKKepAL5MQXvfzMjS9uLD9xHxnZZU0FUQHL2zauoCsy2XZlf+7FGqt3RpUkfUzGwEPIOkknMH/yEI31F+ZpFqmMJndEwgP0z8rgqynO1X63zxq0dtZfLtVztO81mN386y+nZ9A5sDwhAC/f/5/fUAH79uprDzkIQ1pkmeHkTeypFQtfJ9xClz1qDKLjxFiljBoHwEtWjuobnsmlObi1TEl6vdcmjMo1fI83zBiEXrJ947d1WWBgM6Cqfi9dhy/a90HHG/jwX7F1PJM/XWZYmURdv3cwV/sP2aPlLNaQI62MRQL3YjxnB/rKYg1S/Z5/d+CvQvasWx3W9OSf/KdyAT3Oy5LO4aVlYWTf4s0VGq9pKJ1kzZ3uLMdtCRlGVkQDU6aUdEc2hjvDi6VvCnpIHYCs2RoxGcM9LdPJvWgHvx1p/5Hrjq7V1cpM1SQ5061EvDcWiqYDvUuuqe+1Qasnfdnp61753w9c+c4uT8R7Vv2Q5iTWOuRAT1k0yl4rErWTivt4l8WSPdPSvELPuy7II3Lpo4kXKoNWaoY6mKyVbfKlnWOF5ltrOpMXeik23mfRU5vinVttHFpv2nYuXtbzQObs1LLquReH6en1uA/S47icswwvP/DmI3RgcXUF2muILIjU2kpm55A2JrGDbRmMGsfVG2GZmcbi+qesjoA0MzGyLb38tgzbDWkwrMzqCGoZT2UYjzr7k0kcFsicZ+/c/re6LU/Kiitj+2LMX0HFLXPTszek0qbttwSj133Xtr9of4JLFrD9ZBmbxvI98DXp0hgcXmCyQLYZTs8SKYcsagfZAgHpnPnb9iZ5EOgKAmHWfXfM09R1h37yXz++LH9OAr6BvdJVA/sVrGACeMUzMWSpRZUaws6hCbCQHl3OTKHx2SQFWS8TJ4PK0oW8y1WyBs/noNm+7HVLGSM3st2yCGUvePvJL9268UXFAF2SPBFIFgN5+96AD5C2YyyRpA6wrZ/pfRhOUQnSU4yctP3avk99tLAaR09fck83Nub2fXdUGjFigrVYVolV2kDvi8mfjYUaWJc699El9Dgu5xzgt9/45itqt/R1taEvjxw5WW5F04oIVrtMsWATKUAHWDpO96OQHIygk1XDJCNSFp9ais22NZ7TsrvhcMrhZ92eYgvP/5MkL2Qmlgyl/1LF3A3hBTs3/S028DSmZwtioc+zhm+gbkdO0tm1twoC3fm+xu4LgncgB6oajDH8wph4B9rc1nW2bzn2SVuDc7BKEQMM7G+fzVDWKWd/4Hx6ytGr5HGT0ucU4Hf+zY9ftZzo9+rXQ5QyJS5RSmRUFKATglMRBiAbaqe+z66OJg9IKQW9NqKdUSZGdplM8myOGpAaHA05ebF1YPosc4RzcDwaCjI1ZHU/T06/4ILp5AU0B3f+mxzAztoL7WjqxsEma8DexcpiZHkM9B247CJr2L8Ys+8kOULWqdWCXbZ8O7I/y1bXdYC8GxNHpqdLIgtsa15y89lX0WX0OC3nDODlh37qtcvFooJdLjIGFjBhkhLQvAywk6cIjdeQhVEZhL9gWjJla4CdlORFe2cnZ2yGhzCp0oG7IAews3sGcPYu4WGc7WEoAD7OyxwG8le23/sqht6edksZGADYfG163wFt6yj95cyNnbp7iG4c1rmVvQHkx4a1ZE93srI0pf0gqZoBZD1v3kH9ZtFzuuZf9flzDtPjtJwTgJd/91OvrTf+LRYgeiAKAAoYvYinYLhwsHdKNaL3lAzYkhjebzuRG07pTlpcVqDcXccRDRKFQ5aYgdBM5pBfC2SOB8b4D7FJ8g6H6YHnU8iE4hq+eI9mgc5v4CqJ9d0rrCPgNQA7+NcpT68JLwUzm4doTM6m2xEETyGzFhnoi0X09OKvH4fhDUWZn234A9KW1SNd9Oaj8riA/nFPS8q/+4nX1n/f3G+RWLrOpAX7XlPPsDEGMNoTGJZop8hDmjLHwaI5diJP0dMwVLKnIifNtDNGU9o2Qh1QizicrMCOX6uD5LyjpkCteoysu23UZ/Zk6HZFzYXOl1PPv0BOnneczzttGc+eIvQHRyZtpWHQme1HivB4GKT08FwHGVntFiUGn63FMrRTOpa8XNZRy1p+T3/apdhAtdYN3LtOGQ+ksKZSbT9erDQ9um6mtia9fdo0slrQRdSeAT7Ly+PK8Ntv/LErauu+RSHWA8PGvBhwlVictFUtuOx3C4ErWS+6BaLmFdA3SZTSk0niWA++RExAU0gPDh2e05BzFkcvr5VhsoS8XOE8/oZojCdQJlsGSDyofcnqxs9nDUiZ2UvVTAx6ZEWZmZLEkMTkpURWphSTMCZ74AkWUe7CZZNlfAqNnVsLeJiFegln+xaUmoaHjocHmCxQbXo/d14181qsO+DP+vK4AX77jf/xio0N+T0EokqE0lV1AGOiMIA0qMuABmDZmPC+rXAYibjMIXEDKFaWZamHrE8KLgc5A0mSDYL31vLznt/Q8zEEgT3I7QbKOXPTtl9Ix9sIQ+TfNZNi39l0OOE3RSCa9f5kEqU5mvVk8qWVVWK4gpSQNiUZDwwiB7U9nhANXnOAi8+2roM6jeQE8POQBoYRMF1y9dGzn615XCSNvPFHjshmeXvl2YtUDTTANay7RtB1UBnFfwcxdxdAne965Kd+VOyZDRolkZ+5/4ueWv3J3kuLPdhSPyaJLL2fdHv/zepN0uLiyr8L0VgL7f0cBs9TOq+uuEiOP9fSjlKSJGF/DNecnMkTSJperWLhgZbZr634kwD9oRCuzEs61L7bnfas6oDhPpWw7S+QPKbW4kFfIR3I1n5X2VI2qI2zX6wXHVDTuuuZLnnaHZXFhl5er6NKnl7eB3foqXX9rXQWl7MO+A72fXx1/XaEXVHjDvY9lO4mRSPhwTuX2KRyXu+lTZOhIsSjVpiNy/H0TF48yNSPKJz0NwdkB5jmHxZj9HEHYhEDhBV0fbuOqd9fdntCvCDswxFiGIQbRz9mU7YuNvnB4p1q5M9mkYF/sqoyhTYm0+Nwl9lA+kgIMxLRIb+9PDMM6vrbqKUD1fa1cylgEQNohke6uLIhEAux5rH4ouf3pz7cQfMHeqmTPajO+/fRxfTZDHh585sPy+kzV9emO5KBF8RL1vSC8FMBjUczZrQoIt5h1PedtDy2sTBEeLY0HQQuFWMsRaZZlnhAyX5IBjapQ5BUB3M5fgozhCaTwpJ10ImOTrPyymDBOBNr2mQ6+KTp3ifdRZfci8Mm1Q4dzsUGK5sH9IC0fSZAt99NAnUQryfbH0GvhIcwu+ueoo/hER1XA+ZvjL0wL1Ls+HY+P1fxBlAFp3zlAWz3NjZGZ0FdknXTn1Z01sfJn10Nv3W6ZmMq2DX4k6R/JQWCnn8XGgJOC2RtX3KdLJbfxnga6uP9iBAHzDqw2vrJdbsme3IgaexNEbC6fp8FszpUQOsyDjsw2iVJ2pxyZ9cQCwzjc2zbkeljz2tjXlLuvefLoY8n9nT+kHaUCAy1AyqPlEwBbEn7YTvN8uvtb41OK9P76K2dn6tpfPQddFtiHftj5XknmaRgmDfovLOt48/ayeTHf+QNMk2vye4fMiWYGg9NSxLEYxpP92Vnf4OXGkPbPtkTF8Ukgiof6HVyrS4KdGduZ37UzT2Bq6zQ9qRKy3Yh1I+jruKlqqRx54UzWbyBQCXLqbbs450DDTwuZ5rRTZSeY+zyQWcULv2Z0s64JhP7OMzOyNIfIln00ZPK9B4LdOVjiWAwvHmJtkw9I6QVZn8gRZtiWlj5lL0LjtfLX3gqzG5p1+8lfHjb/6MHO8uftSk9zgrg5Sfe9Nrqz446Xhiq0VJymLfUAlU9SIA61b4dSfZJbhSmHwiDCATsCkgZApt4rfY2MTQ3NLgejH9l/C3B0D5/gZ191/52Hv3NWeQQYE9wThpRMozbZRSHrDpIpy8uNv8HJEt3NB03JhNU5+MBK7HJnTog3dThnOy7GQweAO9Cx4Cp2zG506Jnd7Qsa0LBeVUwejDdwM8IoFOeHwZQvUR3GT2ZyZ4800D8OJ1HZ3F5zAEvP/LGI/XjjQHsyYP9tt0ZPX6EDBBJuptCa2hHFCdC7D2kfTw7Y14ZsUi3TwCjUUAJUIJU1XCg9DnhVhLmE9j7XYLix7ZUoO0UDsoiPqdqMx6OowWeRtQbtKKWleHXqtd9giVj7v7I3XptBmBs3DesCYPeSp/nvV36goQSALs30Or2dips/CMdmH3WgZa9acA3yihZ7yfNj9hbEIT2gGjRJRbGyevNEj1nsUk5W736NINt5ebZHWbwmAJe3vzGw7UJr65Xf1EGeXzG/aaAv31Lz6NqaaEm+k+wr8mQfpAMHAzj6fBS4EdZCcx55iXMXeDbB8lDbhyZ41F1MS6OY2wp5AGq9+XKWM+QcYrCfXLmoqLJWiSR9OEPITyg4RKndxaRUYAFjNUoJpM+0YddbHpt7SlVmSIRhLaarQ2QorFRZ++1nbOlIsUSW2LyiJDibM27pDZkuFdhIk+HmvrRjJHxS2esSX36We2AeowZflGZXYf5SowZILvjSB1awoY865LAHrJE1Ytr/dANoGpMdCqckejuHudzm5IAewmjUeBk7jbHDTVNkoyJk5bPfiB7C5M5oEXKWR9sI1dmaJ79tHVYJM5KYWeS3KI+kqgA8xi4/ZD+/LUOMehuglz+SJrbpoEOlz5ZKnSymgiOJ9ixxeYAP2unVrc+S0UWd4C6X38ovVvjpJq+7deGG2OYAu3QWX0g5DHL0shb/9131tZ/XfNySFX3e9WDFh1GYBmK3ruu871EVt0yNortIjJkWTpB2G+9V6TH2nbP9AieT2Xv9SSinPmJMfSMEZd6tymdz4YLkGdxyDM3HWUYFpD2ieEG8TcONTDsMrI0UW4/GxN5VqOkHk0bIsDKtMWSTD1rMmEaj6KDv9o3PN3EU5cmutaGJuRRmJzG3mOgGlEapJbG2gsyMyXVSaIHWCwzQxjcVmLf1gO8SD3D9Z99/+k/9VdVnZXlMWH4KmWO1Nt4lCJ3rSl3ZTxGhoXZO+7sQGILfsDebHrenQECV+PHiAYFIx5LsDxb6BbCg1xL0GytBNuSr/ezhJ53tTLq+NDhFMfYY0JxRBSZfYHnSTqlEmgU5uep++5ruOfCy0TBwuaDaKnsWTB2Lc0333urMZWHBaNiet9DjMlaHPn4HDBPlpP3zJqdFwPFEDD3gWuTzjMpyNaYjEI97b515dTOs3mqB65nZSDZYwP4BV1Nbcxz6yrUFkG+QLcjoOxetIRUSQZhLjw6n8YsjUoen+/XBTjpWByvyiBvBoQ7gtOO5oV2LZAjprFT+S57OGVpIGfyvsjCUDQDRboyBa0FMswkXBJhZMMGrJdhstBDzEF5ynGtliL2cLcW1bYtzBlZirNJn4X1aZvm6/LDoh3t7OIx+5ID2HbeKfrSxJqqS6M1hitYh1cxKWYjtidcWe2c4sU9XdY8MQEvP/NDb6iXf3m69+IJiC5poke072/BpPeU6oTV0N4wDgmRG4DMPbHai6lFmjZnB2AGY2Jhthyb6gnb7kbhVDwwO4YRR5bHjAWiuCScu02FAfj+fbui37W+2RzDFFi778GIHHlt2Jh3/TNFF0AByMO22uckaxNSxXLmCtwmK/Qt3SjLMjisWl0NwADcW3Vt3sNcXItTl+Z9SEdjMnqDJ+0r6Mejh1esB7h9KTpx6yadpeVRBXyXMj3frmDxqS8sBu3Dfduid8dTz4L0o27WDKElmh3oATgDuZJuUC8chDg3Rlw7svLA9inLEx1LJlFsR90NPhl628CaykdUzKNRavkS26HDXCoNrYjKSftRIB16+VP/tKkUPNcjhmxtLWVT9QZr/41nyLQxJx+m1z1AWcesZDgXOpk6O8N4rEzSZ/e6B2gewsbGW0+eYSGupl3DBKMlTp5CDaTNUnzWAtdHl+H3TVcDdPlGdjgUcZa3HonQ68Oi+Xr7zqCzXkgx5uYsdQLo8xhAhpIBZoNJNigOltZdZ5VqPlhklm5MHoCSRcK4zE5VrpDHBObAdLfZgyLwPIZiHals8+JwaGBB/ooNhNPkdqPSgXT2XngEdCz1fVTOQEn5qEqMsUHCqnVKFTMq8eRmP0Gfuo+t57apopSzlxIcUxiWz32IsG5TYsCDKcg8nbXlUQO8/PwPVikzXe79Pd6B3ba602e/NUpXulU7jRToYvcSSgPgFwN7saFhrQOraIBquh+7MDp1Bp4xowlWJ/JAEewrRElghwHIXJMDLxSnGpYwLvc9WhA59PB71yY7l2rfNlNAbkkpACCNPaOUwc+huT0xZHl10pSlgxnVK/ritM7UimuVLb1KDeRT5LiaDNFJLtMU3gttuclkUSuz2sX+U0QX7RBdttVezVnoQD3gYrRS0f1pi+mub/9++dNawC20ohve9C/4GnqMFqZHYZGf+4EjVJY3SwKMqxnKxOk4tr6ejj6XNPEaGTA4xYqhD8r5sv+ysiyQzfvRHsdlHRFw3B0iBOP7UJ+Z23LDgV1IZnpyUeTb8jEozxAC7LcjGghOyXl3v+3MN/4sc4BYUu4delsQhEowduvrNNb3AftZ71uvJ8rDIAw9viPf5qSX2Nd0fT9Xf0drunI2bV/33f8g03O2S/1jel4F/DO8wYN7HAQwtwp4eVDPX1zqtfffMr1lvU2//6NH+RZ6lJZHh+EXi6u1A4e8a0RCdYTsSAbmqTwaZJ9vRyYH2nlQECw8EraRlfW+4AyOotkqsyiCvOnlGAJIy3OdsNcdygxuKA0vkFg8vQeT5lkgL7FA+OheiBF2ZLlt+hfSxAd7pbN01jYWLx3oCvqCsTY5xqb5wyGZ+U2nry2HQGvnAA021TP0N4Msi/WyKovve3BJLzrF9IWrQpfVVQe8BcS4YkrtnxsArah16B5DvDXplfXvK5c1Q//t/0reurND3/toAP8zZnj5xR/8zhq2/1uIdudP2L4zsMkNbCdmsJ6Hh/AEaV/FrHtTEr/l+tu3WQNmph6Y2ysc23et69/nXmC2fVhvQo1GZqeB5W3bHmXt9gh+vXTP+kk3/fqZr32HRJBKYNjM7mBh4iHDIlY9Z21J6y1D4mzPkCH5OMupL+AtskeogD9e6PJThV5UpcoX1FX749r8OpL7THShxjTcksbwx0NjQcQOM6VYUZ8x8D+jnlZ5e5Uysn49A+E9yhKwiaoVsudHWfuE4Lc1mGuhTYP2pMGM9ag6xpnQo2nIts6l/rA3i/Ve4l8cqS2Ese7oSfWeT/uN6UCsJXPvq7N27mnFb8plTTom3rcTzce2e9vsMWUI531tbD3qe5LOOynWo0mp15NIe0zxwLZw9Lyi55Rs3HrRARHFCMcf0O7buU+GurDgsq9DT63YxCVt/ZTGxrce0xNLevatm/QP769/FexfSv2lfeF1bFiyUl24ruAXT1ElHEGb2jGi7TnZWBv0nLe/b6mMf9N3fL+8oe1/9KjQp7p8Rgwvv/R/v7me8nX6I4rsIkRKhI6CtTLT5uyMhr1iWzC9pzATuc/jAT9iooFOom6jF9lr+27Wz+t57/Xphg4sv9cxMm9uDpafnfvG7c+79r+fecW1jNdbGoM3trVsR+/R5BAHnimhOJ2yAd7nRMHmU/ISJcUAmfV7sXauE4WeeXyDXrFTmd2yRlmx0a4Li0Yh62byn8kDdD9+2hi+ExzuPxo0OKwfw2TrmK7Z2aZ/dCnRzUePPnIYf9qA7+xOcpPeNFPaEuNvdwWsBm0EqyZVU/CKCBHuPuUAPR8PL8mUGzs9t+0+OY6Nsw+XPQAslyt7rKNZeamM+W+ey5eHKoN3SRqHQz339We+4Pev37riRiJ/K7dkWQF5wxjsZVrb9hYeh/Oif8+HBqBcy8DgkgXrRTM5VBn9mQ8s6ctX7O9qit7ruMYR4JTWpXbwrxJ5KjLAP1C8Bdxki0S5QhEidbvQMm5ebdOrPxXQf/qShunNcNCjHLBYiFWemGvTZmKkst21q8zpD4eB6Gwolckj7NtvrkseCVlhR4DKUI+QC1GvPL3H8O4lpCdNoozrkuyIa/GWH+ROmsLPP3N90/Em6Wb7Tl7WcbnglMuPcOoubxjTdfD4iJ5t8wFerFNZ93dH+b6pXJ9vkm0InZ2jAvyiO/bRN9y7Qd+8ruxO7HdxJItoR+vs8yV7H//z5gOsJezfOEBwHyFppthm98QlzpHlJv3OHUTPfqTy5tMCvLz9X72uNs9VqqXNi45gh7YO3aqaVwAMTnrfiW6muU3/qx/TyU71FTYG/AxOngEdfe2hkZN27gNKphmYJwfiUA/K+6S/sru+NJwv3+h0HEUddm+L37evLrvfwKnzy3AfXqtanXw8qI5KpD2eT425aLT52Pdf+P5YRzF6sY1EuneTvvSu/fQPthf0PFBxIQ9sB1QbYAFscTAKuRenmX91sGNf0oFk1l5ih0oCN+X9oettNNXly330248U9J9eWrLQGzp4tYaMR9bIQGkdOb1vSB9yIr1VbN44UpVIKeuFTmB2NCz8QSTkBZfNKSKiUDzKAkzkKQVKsgZBJFpQkhtmih4ooqRHkryRRFkgqNkxcwa0BV3Aubw4B1tVtH4r2dg+PR3o7xezlrVHvMi75AWdSBXaBWlHIn+srndCWXULh4a3k+o4er2g3oncmqsC/OJ799Or1kxPMu+hnXzpkpAifTho9Ttd7Fjx5kLThZew5m/XgOZJW71JzPvonIim/QXtofsfWe6n3zp2hr64fr//Yar2qTP86le/73WVR45YxTnPmU427hz9KCMTK+o6azsLi8oIvZNJxqB0ynIAx4ozIwXL+wwCM9aEbMnMH9sSE5MM60M2xf6yi+lpPF82kl0SZgq74LnMMa9X9HqrnLmfMVsAR6amSRPGTADUx7rrDAP2Bo7eRsVfd6n7sI5BnzCO3qQL6ElMGh3fRy+/+wD93Q52cj3vmHSeNjtHPBDkm+w+m3yxJkdbhPrEMANCZkdC0oDlAfFJjO2n0rM37Tfmt+l/tYxnr/bTL377v384U/w0AL9Y8BvI0omN5VWWGHP2i5p0m7Kd6T4hpCTx4IfNuCv+u0hMwVFGUAQAiZCgdI1t+6gAIhplCM3AOm6XDPSSzmuGEg+HgD8pldGvlUZpRbS3vEHdR6NyF2flYRbiFW3sEAcYKUkQM/f2aho8FtPlS9GJlfrfpE87uaF4OtKA7w9t1M+adbnwjoP09TUD8+XkmIzFqsj+hYMfzDvm8TNE+fhRivjnmMjQ9R5/WbTSx1Ck9R0nKE4RIE4m5q2qAbxy5zR9x8NJm09J0sivV3avgYKG+ebbcNMEcUXh1Otqz31YupFNi7iOEPtHNUX0UE1o6eAT+DK7YnUh4jTEqSEpSRZBJe036o3flJrenxeh8MBaD3aDy4foKjGpwqml0o6CQlL90QqWRklV6Mtdq6fcPU02+ErnV9dh7TEgDBejjImZAiAdtLox5CCxtEueus+DCzpSmf0VtbU3OWqrXRhKXUhtYtxcHsUcV2rAZ/10QSp2g/tOdktt8Ef2BbJSPT4ZKgwM1iZCrtfYu4itfLtGrGhLZYbvqcH2r9avt9Aey6fG8EXeAJkgzto6INfmUgs2ty4SfWQts9okA/P2JprEHKzer5hF2ISSGRA4LTM4ZfakMVCdMy3v7vThJCmGzAm2lySrKDH94EVoOB/nfbUdiJKXGiRN8iwo6+7Vkx9gzZz0N2JPORhlfb17+8/6LOATdXbhYkFoMeZHAIuz2ON19+6jv/rAJr1KAuyAZq+ZdyAFniQoVu9PMr7cDJ4kLi6AnK0d7JAtrRwDvJ3EvEAEpQhQe8hi++mVlwhwEdzW74frRf/EG94stNfyiBle3nH0dRUsR/q9LJpRlDTvS79odstjsJnvlRLA1gb+TcWN0ohyvosNN3kjU/LgF5Zvew5BK8Vt8GdH7NheXXAJJSbf9dvuygByr4lXTmvPwfIiYx1y8dkNwUv5OYP/79p52nFWOWIPHVlJrI/asebbMQhC8sMVJEM2xcem9Pi2ftthWtbA9JU11fhUZ2ci8jd5Ri1jdsHZJ2oDQ3DGzpenG3w8DVSgeRc4vGQShh/2OmAZuhJlduvA+l4f3faKe+6lV9bPP6DZ8sgZvmZmwOxIOgYLClJInJjLXnSquXbBK2qMhaEF/TsCXPay0sPbNAs+ydhTglIyy5a9mBS/Jz9u1Oczxm/nWtDAvEinAqkeCNOUzo99KZUvQ/1GLxTnbp/HpwsfOD0dXEOrs75JQxlaD1U2j6muPaXYOA/r875mNGWL6YJ79tPfaGDHbXVJGtXukEJSfxeH+IEmnXG95M3iotV3DVk1SCCjsGaEnm60e9kHwYG58x/Nc/IouCTWV2L4F3ux/CNiePmtf/G6+nGEyMWcCLpXxUIG9pnjYItMSE3hKE9RZj7zRtCsTi9jEsZAs0xDZCbsWl/pYkhQwumk0oNFd//2o0GX6UyRcsz0RDMmT3db/Rv5neDZdttfbF+8fsOXuuvxrUPHSQENRsM9RUvHMGFcsY2Db5OtypRmCNb69u1bRIeOHaSr6m4bUbfh1GBsbWFxh8gcl84utIU8xlqD5c3hUdixWBaGU7OOnqKu2VnolB/W6Ar5uH6mCK08VUqBinbuIiOc2so9Wf6RMXzh7+h+09mI3IkFuKzHlZTdyQaOkXVOWSbCO45iYBf1ZmTP7Jhf1vNwZGdmrJpYUzJblqyVx+08y/74+WYMnJmYE0PPe2EHdnZWp93xQdb3ybtkr4e/j28/9w6iNB1GZGj0LX0UU2NYi/feUk6dSKJDhf1NHieX9OxjBxTssFcgg3m0dUZNGPB0B8pkJ8BxNoNZT/ewSaa95A8jFWnpSP+r/6yLs7unHsW4zDqj8Od17Pq+JN2ux0amx9ZXQ/yeecbmkzK8/PZ3X1UPvjKu39rKxDyBZIkS6xErPUiyTWtWELRlcVzau+Vb+lLEWdKzQhxaPUydkwPIzDk4VasejIZD8yN2SHwtXtrggyh1ohDlG5pYW28Mx/GZ6bO+T5kjFNr+vXP7KSdEceXTcxj16mxdBhYrAiEKCpYpAaqx8Yl99OwTG/QyjmqMrgk3TNIaGYyCwe65NfLfcDnkD5FwvlQPcaIGffuqJEeNW12cxbXZbRscK2JEQ6HGBNMIBYPQV9yibwz0GRE+OcMv+HUDS2n+3TI1jfUny/Q5Cwr7uBey/WnOcs7mltvJ2RHd245lY04pmaWN8QlMmlg5dfUPHVGJ9YVGJs9laUeYxDGzfYPJ02+WXX/O5APr067j1QtoPv+B9aEH79+5eKu1OmlmRrMz1pL9c4qMDM0yNGJZGniHE/vpBScr2NMbQJA3cHwGKsfbnn56UGqcpSxLYcd7HhpaO8fz0PNkJclOcZZ2/BCFZp+g38mCattHwORWlwnrKJ23/t68kP5+rtzDAl6uPnqkNt23DG5bCU3thy3IpCm9vBdpdb947S7BzGDwnJrCDLlTVJpaSDyA0edgN6BzAjf255TaG8fv7Aah9846TWXw4hy0x1gd2gP8koLk2CeyOzLMUjYaJg3S7N6dS+/r80kmemGVM/5Z2N7rJDYozAJYf9GZSZ4HN+kFp5b0AqXNAKzdmhjlkKruNy3Y3aEAgHK+u347Y1+bldjtei5zZFb+qti4d5qlGGMMfETPrPNlGoKUNVlnJCYYSRmC27Z8XZY1Dy9pyvZr4xKVlFMOCtMjRsAqxkf602aosBhVcKHu1FhsJ+QbfZq5aEhGZxCMFy3HQoNvwzY8pYy7y54SIAdhUEwsnlpM2zII8r56LbgIa4JEXVaiXqYxm4PfLl7yCQwJN51+zj3WghGc2mOTkxaFGX3wdhm90TZ/DNscMMc36TmnN+i5DEE5UQSU0TQd68WYskkQAHFol9TqVoJwXCAZS7nc6REkjw2Ymrzfuilt3V70iZsk3xN7+An7A9haWhkkF9OsytauARihL78lyZpPJmleN7A7pxSk/WfMjPBJKwHJQjmNp0CX8BKijGsdUTNmR8immYnEjEwzL0B7egLf17YN6cEZ8+N6PFC14zMT52P8aapWdg6Ey+gJhHcHrvPgG/drJcvVx08953hnb07sLknCGLsrDhLzF3Tz0eL4Bj2vgv15Iokj2AEmbndxVegCccanvVifKDIl4mDy1+UYOEe44FgeQVXAF3XZLmbEYxBKMpMmlFOXOuW32Jga75CiLKMwF05dv+8wfW06996LXP3Prqo7H/GmhFrsYE1gIeJdcsLXEblc0f2ZA2CwQnZZojIppBKP+nwYkkvpfABfu2nYJ4F5V+589ngfz4wp5BPNZBGNk6gSjQZKtEu6zI832RdSxiTR3dtPeYBCBWjiwwBtV+5/kob4mkfovx/cR885s0HPdmD7zXSQcqJvycB0cBpAXTSP2wK7UY4PGCQiN3iJW+SSKpmge5vTy2rr5CwOUpyG3HuqDme5wh34U87sQONTdKTRaurpyb48NMNv8Gv9peNEHOC1Ky+uv8Vuqvh49wA6OYCjI0ay/rbvmMuk/2dpSx5Y30Cu/+FZUrAmOfgkgWmu9zPDusfiWQzgnmVmbOrd3CCsDSg8CtHca/g+M69BRWhkeaFPnH7uvRSghootien92dI2tzuZVscxFTiXnll0sGfHyl49sC+Db4izIDBgus53vS+UJSYyKgB35HyE5h7BD2CmyGhbuU3rby/b+7kJqUhKoA/QYnsYQ9bw7CE92YMiFF4CjF/p4Mug4/fU8HL165vmeZ3XXIWqIU5MdHM4Sv3JQdo+DSdRdP3q7jHFrqUtWS+DE8+Yi8V545RaIb13cce8OvDNaPSUFaWk9137M1MEb7LL9Yo3QLpOIUsaYiuni8OBrAZCrin1E23hVxDl/8XJ5x+zKqvcS5wsk5cOdpR8J2rHzYGaenyhtx2uPxiVcZ3e9OTNsiuYxDowtSsvXdXrkcp2IOfFy5ytsyN6sHFm0YGiM+pahDDpG0PY6uNHSNwUTppf7Bbog9+2YsLYeWv3+nH5bU+jQ3XTA3sHrRsbr/GrHGqdslneKqLQF7BVbirPD0QjiEdH44XAC3mQHC3m09MloLABdxeVkAzYxHU81FiedA/cOCI3T05hHloX8nN4sOoXAeMwY0T9xRjHYRvG277fvvWs+86sD7bJKxbGhjKRMzHSAcgXaBLETrVi2njwQM2z59sFG0wWxTRecMKw/xhAi7rTLmOQXE4OHvPdwzbsn1IffsCZKmesCfo1xaAhZwPNTwQG3dlYE0ePcOoKQRkcTTGtVvSy+vWdewOeyz8gsK+658RTmBzKdDbeq+yXLrD61C3QjUFhlAgekNdOqEH9RVVsld5tGRA6YL2Yf02T/rBbeJg6MjVso6085YCdrZUTiu0ccwTEuV0DJN7JR2PcbLqowWA/fuI5jd0XwRLuBzAdFO5ztiWpvZQbD+6nF9UDljxU1k/jX4Y0CIxQouqwQ1w+5d+0G/jDCcT1dZwhLo9p5jnstivDsxcrtg8YnK1OwXNM6G+E5+MUNGfP4xUx42gN+XLaC/DyJ//sWbRNX16L2lFHYV0BXm2dxMHajD0gjDqSN1+rYjEbB0+BMfVpBzzgxAOKvLrDPdq9HThOYGPM0D/ncN8Hdmi+X3g4X3bn3pLMZkh2ZzG0kHLiIkPc+D9LpqE+5BJqe9q3vunECx8wzCnNFO9lbUDGSF1Ux6F7ch89f9J5YYYz03BFtNsAcpsOljLa7S6ZQsnAZxtgQPmMrvEl7ZZAX/sKdtiaVyanR8H7oUQSqBLR2S3QVwuIkoDYzZDE7BR819Y9q63YzfBn5BW1tAr2pqvyoDm81JysT89gH83KqUYJn+w9sZi4wwOquPwR08ZvMO4A5hxU5L40v4MJ/xoh2JX7+f0GzYGqETPRMCwBvrKQG0fk3CNDx7gkCnBDDMlQZxko+/aTlx87vT7Q6rPwtBwmUFW/l5U/8uByYpOeUeXMQctZpyunYPG0bu4BfFu+VBq/Dw5vto/Mb8WMV0B5PLvLQOKpDZMz5LJE99E+g0myKlT06cMjab0ZSA9qSZKjEhrwZNzS5rncA/CF/y7pADhMsFYMKfp+IE/+SUkujd0B5WbDVXamZyFkWjkjRLePgzUCGCPIo4Uh2IYEcmr0OSX4i8v8JmafS9pqDAMLP5lvNSSVpN+5ZV3PGxkoShP9JC+CO/+h4y85xsnWei05SBMt7C1Z/zu1SU+tGY6neksngFtVBnDttUS9h2YdwotcgT1vA41UmsQtojSZuTYPsUy/e+5B0JjF1wmlALVPmCnRECVKdODjXAMIzWPW/3YzvLzrDRfS+syX1G87hISPklZ/GMFOUQYj6J4AfBWyBaDtS5k3F3Q9mgCTYguNWoKGtgpzT7FwdjDDulRGoh1OIpKTNwkDM8NAcRzyxdm6fxWPHSCh3E8JhCaRh5oDF+j5Tq8u3L711HNOCfnkp5qRsfQa8xDv9o/1kvZt1RRkYtroTIpLc6E2NFFehAbmxjq9Zhr0+4ggyvkKdf3JheV65au1jQ7xKsdWxgM6NTeCUErUGe8PyB3u4MbJiBIzKwiSY8z+PREUXdj+GRl+vfOldYcdO+fCULUIO+wSZ1Km75elskflj+aOyfr9Ima3o/MdT7yR88F7CUghGqIrmvtSmHguCPDk4ZdYtTitRhWH8nBsr46Eo+LYA8JwDuRENMMvNupWt63bb7jni+8hmyJ6IppPlQfQu0KqubblySUdwWlB7JLMNp3YA74cM7sz4NkxFMYVXLS3wRQmf5FBvnxrLiOW4AA7sTYD65j6mh/cEW1CnpSFtUCbxHUwRrsOFFZmt9lvP5mnAP+MPNZnThsBz+tX1x1WJs7bLOALUlVV7JaB0ZXd9dFHVq0vbIaggS4kD3AYraLVF+PoQiNloOnok7E8Uaak8BDYO/s41g4gCfkRziIZGBJM9j2z2vDdjvNUJYU8Ehrru+dv8/23njhymsx7wpZMx1qOlnzm4LbP6U16em3V/orHWUqfs3YerDJVPlMQM+Wrt1YaGYmzEaRlL/b2polUoZfNkarstaq9wav1woc7T845BgO/FYCF3Q7T8jRlRkGeELdiooA5yrMLPXq1zAAv9EWd4Zu9seBlK8rek9g7Pm0sG56px6zjerzpfPMGYpofD4JxAnS3a1d9lLhn920otCcwZ/dn1vwz42EKOSORq8/5duy/1zvAOdFX6Iww1LwdR2lGh2gMuPX7zQ+86PiJnYv6C/fSVevQn7BKn/+9at6n1DTkQW+edFBmZaLUVEK72Dk5HL380cfKbP+x+4A87pdZU6mkEHRwxsK0e/8TLWAtYTgyMzDJPCbDbRDrosLlw2jy++nUq9mTdRLNRTd9mJ7lgJd3/tPL6seldfPKQBxzEGLIDiXZgtMLmJ0Tw9txHKNbiFKZLVU5wQBkr76zaDaesXoKTgeyB4NKWsdJSUncwYH2KHpEOXmZYG/HiK1Pv0Bn6fZ6YJs5kHOiWiv+/nu/6LjEwML+Cpq4Z66g+snWTIutBV3iDs3rSx4EJovN9OELbMT4wptB0kZjRD98VxMLjRc78sJwvmSAQWGiY+3u309blLLHuN0Z+OkCcEPcqcIwEgyaSiysY3AU8oUmGp007WyQBMMvKruLszt3OaPaG6C14LTLHAO0gZ4sgI3xjU3/ry0+DsPhNE5E3yBkmcOJdkmaQRvT7mbtV532R7v0rwHm4Zh5C3iLpSTTDJiKDN59LPGg7x3YOG3ypVqloKs7Tz39zF2nLms56GKgLfZaPUxtgRP2VjhTpUzSrf4KPkpx9/yKC+0GfdqBk/FwMtCIRaPbUbLzpfFr5hGiDG4KxsYG8MHx/bTtt8l2mqLcDPAss3T8lPh1eWRnhuqpTNL3VbG9mVAN1qLOAPzEX1B3XhF5dmZNALGA3S2PQAZY5YNg7zAEe7khAlwM5eEkedQApGtYHy2amzxdFicwzm9jNhQa7rKz9i7jCbDm4yWVx5SNR1LRPGp/SrSZjh79QzB/+/jI/S89SWmUkdmHfwe7t8+afrxI2n1KzZBH/CF1RsF+EV4k3zlvsaHZctPnC8XuCC5pt2dgHsAvuZj5adr32jO8LeGZstjr+XcajYRt3zCeCMjZjtqVkLFKal3Gh+Gzhp+eW7fv0CBLpIF2TZxA76wOkHceMA/AAX6tPIxnD8lj4xOnxUIriWxcmKwz/ywTMjatjM2bwOje2XdjNxoHM496fp7z8DuD7dk4OPtlju56zimMiNja+U7sXLj+0H1fcMrIKr+2EZ8IYKca2J2/Wmg6zeoYALG9kY/W12kTkksEsKcWGzGeDMgXGVrS040OKJ7dBZ6lITmmicnr8j53H6TTlIxQIuDucqSkJkxuIw9f7P+mZnX50t85a+uMMSbACnXqgJerj55PfOrZpJmZKVjbpb8FqYIHEoDEYhNKhAcAqJGmLFRIsuRxdud6R/dN04K1c0Yit4Su2Mz2Qw5BZrdxdhfBkXuNqMrgH+4wOJUsi6KzG8ELjKyeQDyWQnGHAnmRPRG64Y4vf5D08TzV6exyIIrpdejzPh6a1zJqMJ625GPZX/nBY/DtNhrJsSgvmNh+lHSiMHoa8gfpmgew23ae0REd20fbVuboecwZTmTIUb53xiZAgyk6qcZ6G5WRQlwsBUoWfHJm+I2Tz6urld2RcvRMjI2ncZ1uoNb1k2ZvnL0NzF1RVR2PObHSEIWk49frxXkq5yV6D8wklfoiZx6SwFp96Iek8c75ymh5mmd2AoXJP9PgUbIswdc8VDkC5JSuYBqyKEqDeu6TW4fWH773yjPo0CV2i4nOJiUD2ip0Qf22GC5pXJjiLrur76dPYMUy5WZRVkxaKxW4B+vPqYVnKBsqQ3HtQCAOPLlRuzU3ulSO5gH9iHPE2PuKU9r3KWWFhjpGsJ1hoVJMO6fk//tW/vjSinsZNf0OkE80z6mHjNE7rG+iUIRaEGt22TusuhFMfhwCVHiDjmfeWE8byxh8FneDEtsDCz7ZOOf7CEZOd2R+Z2R+W3ZTw8D6e8knit+QL5KSS5G5meX3s5ep266/4ytOtdoKLkzBKV5T63iqf6WmIM+TeSTHDxmOcwIgJ7uUPWydc8CbCxKJy8sXPzAxDB+HpY1+7fl06fzH92l2Jp/Wi9Wm6odYJ1y2iolSp4fTD/TmeJtGePCYFDYNz5dTz7/3J9/RYRSdTCpNLHPTpuXg6IyCVocMwiAzdpkDw7Gkkeb4V6vNgzonMkJxY3T/NLA7+G199gKt6mW4HeQJK/cG+U7IrjYZb6eM4KdEYyUZQ/IOPJQx6n2xW9PWnThz4XTjPVduU6gPTTviQm3MRxsP3AJV043hXNrOk59QQZnAN2jndLWoaiEaUDZFMwwaF7ZMsX1Xa5EMLRYcksC9y9PVf+68gE4lUgomJ79tk2t6GunJYwT0usY5Iosk2pFV0BwwRIVLe4TSAN9yvFPP0EwOcrKMimZW1n0+FPbnEgLMemfz8II2F+KaYphBbFNJ1M+xWu0/TxIw/aFoT+MJOft7AkpwGx0lAFyOjFKjRuvjru7yBCM9DHkIa3ncn9gf/040oMa+BcOTS54bbn/lGREfk9RW6etPxVpHev5LaqB6gPRdTCAvS4vFTF+4ZFTdTjH2iEomyOHq3H77FWRQpqb0uD+KoxwE06zgeTO27+hWbH9bS1o9uK+nI/OoR9lVx5TB8fqgM0ksos8WbXlCkYgJpgj8yRFW6GPttwJ+Tc+sLWqSplWnBLNz1t7Q95aZKTYlDhcdSjBPSWKIMZuj1lRmzTkv96+n5ZIzJznocfmxDsYKXU9uDGRMH95BASfpLhDtjrJgFLznXXNbABj2Yn1CqkG9Du5uGCy55Dm1dWj68N1Xrro7nhz0C6QiMX6k0Uelp/2p5mEz1mmTZqKcB5E+DJeTLpdZWfMNnYEkDGrO6mM84mPlIi1oTZHy46mCUda9B+hM0uRY73n+JIUQeA7/QuNbW/XSEZTCuJ2fcmwSlVKGlz/97svp9M6qwlTB2Uc2eD4defhILeoYGfUAGmMVe8MhglaVPOjAyh1Slqs/s3Xw0vbukghKFcAduCLeSYNAFvm+SF0mQwHYXQyHB2A0X77laGqU640SYA4OfygKi7sxbHLjiGRx+3Ldra/cIdLMDPOg7Cc7pl/2WsHu89LMzsqZ9fVgGkCFa5Fgtz54Iz0ERpSvwhJICHD9GfXcROTOioxJ2cuCsSWA2f7j7/r38cP0IPHIvgM483VwlIkOCYzu5ixW7FYz2n0i93uDZem1frx9Lmnr5EEq+3Z6VoUso8ImV3o23Zh7ot1A7wCe7MEQMxQFNcbQWEYGPbV6D6bV5gFBZzoFQL0zSMBFBmKJoDWmjk3BLO2OA/CdiP33cNczaw9NNPcC2MfueoZr3m7nmj8MfufxI9ONd16pr3UTBxICyv482GQpNMHLCZLdZSkx3j9lEcBlkgEsbrVmc6FnaXiuPsxcxivKTnAWH8SnDJ4APOG8jJj+5CZtn95HO357E5P48ZwSdXFHnKeFh91R/zzOTzzLg9G80Q4NvZA0B59RNc2qmtDUV/fBvT0wNUnDmoJcsM5rWCwjUxPoCnIDNXOWNOodJmj3yVOcq50DF67WG5vsIDck4M6IaXljbb+9bgSxTzD8CHYaUpppvUkmj9Jy8w9oSa067PMQ2xMF8Yxf/vDGb1hhqwGgHac9imI3rf6tuLJ7zpKMp9TaIaCMzAOeb2dnfhmDXYMJuxSQAGXusU1NsGvEhtl0L7t7DJxwfqz+QNjiwe8nLqLjACchUEV6kS2fFZ4jSxrtYLImpsjwDEMO4jIV6jbLA6YK0m0LurV91lBiez8tyypy5dDpk+Xbi7G0BagTg+lj2IC+XiVy7Ny8BU8aD+QcPpft7QOHOruDHrJcEdoFbuJZ9kbmx0jiA6FdWZ/kLfSGwBjMAHJzUb7Te93OGev7OqbI3JD7lb+460o5sXWYE2OJ3XI8Y4CbjhcboIqYbUQG4EqkFDtTPwTzz7AY9iqpfP9qaQfak7V3Mbh7jNl2X5nramXe13pXDYh+Ys0FTjzZaFGe2ejMMBzs5g1xW3C9sGdOd2iyyT/6fJcr+kRbt6TF4qJqsqueni8G7hZYFR9lrN8lB7ESOXXd3waSmQySolKt5+g1GYFZb7e3D16kcsZ8KAJTN/ksX8gB64w9GMSM3bPkyb/nZSMb5NSSJM+8u5B4950Fih5ie/t64swhuu6jV5G1mTO5OQO46KZnWxZmA2aDM1iR4XdCKvhNNrbHTjO8DccnOrCV1vxId3bQ826T34sCsAr7F21O1HM47r7z6eSpzZ4B7Hk/Qdxgql1icLlD1QJU8XXoj9D19tTrXlUyb6HG1Pbp+7bDTy3ofW2HKmn4wnpLdJTkhKwKOo1Y7VJPG5mbGGtjk2NjO9u4eTu2iD5Eojemypn9F653NvZDsgSl4CrJwR+sDIM1spIEWJ6xe96Hkr6nPYwCdx0GxQF6kKtzVL6TA65492+789d/9Kvp5JmLKDG3gtlcuDF8mdRC2FJtw1VTtBChesbs9k7ihOAI/niepaEAvnIG+0NXNFR+SlZn+2VUpZctOcMi8O1XbnlyjGlpu9xag1UbCtDBynmUxpQsmpIXKT4GxkduuRGAGzWtpPvzzC7FPFYhPGn54Dv+Hrc3q7RReLJJfQw8RwcRpeyKnnKh1mLGoCkW60TqyaHSszwF0qU3hQK9GUyXPMxbWwcu1PmMocGDYUNqcGJxGr9nnvI82CygtXUwkr0CYdCkpMyQ3uiQOoBLDBib+VChWQ9vGMeJ0xfRR+64QnBaSFG7HZhYCNNvLDjGyIkBEmccGBo3ZmB/1coUGHVk9juXq0i4khw8SgpicQmxs9MC8R5DjjM/pMPYmu30Bu3cfohO+oVorfTFbETIJvgrLTmyDexglQHQumNM6RGLGQTbsdaAGEv059itMrxs1FO18Q0VsnXXtT3Z1CX/pEOExUCrE7TE2BkxrZ+fgOqSpufl1qr7LXit33bOXPAkmjDf8QjicYRhAt0M3DSXLTQawAj+OAc8h9rTzEg4eQUK3a+HhpTi8XYnbcBRx/r9t679VmF/b4UjgWM+iv5/cRSTo3u8hX6O8DUwOT9MbNAWgBLbo2cW1Z4xNmWDAr+k/aNbLbyLVSbZWNg/aoxmOZZy7+6ZJucHTVzbYxpoQfvs/3SZUQzgSHMC0OQNginDAJe4SXHM+ygAzxXwtN3BOrFlYTqQld25jFKmM7uAxe2xv3q69ZQY3j7RU9vOuVrs2z6z/0lqyiZp+ih9tty7NaGb9W6Gd8/gRsEj6+fj53JHAthhDPACUafI9iTGF6G43SmWwOLnZnrvX3xVlTKHPUGkBCaJjeMJvuEfFE7B4Kg+cdLeHIxKRJJGSSJVyYmp3cas3DjVCH4f6TjwDqUlWeOuIQ57LG3lh59G93hN0UpAxhTgNOtFK6oTghGAudlvC/ntKXAA5MOsTb+7QfbBK4X+GPVaVoBX6cH64AfkSA5Op5xTZzb7ss4oVs0/5OVrc7R3OjRDKWYUdfvW6QufirEzw7iUKQAKWbGLsZF7a1vL3gYhTpEJuAZka8Pdv1MLRmxAESNYvRAwwwBwHHKB4KaTpw7Rn33kq/v9IfPZE/pK7Han9Av77XUqCsadoQcGgxuMHRwGqArY0WjVsU7pIKPRIfNBWQfDYMgLzbzp6EXAa9YpFKeg2w/TcZtZjGhWV1HmDuGRqkzIwpA55nRh3lQ8OvCJ04Pg5N4Cz7uSbGtKUgFPLYKW9MSS6fKmwae1diZxClKV9Rfd4axbBkdCyvh+xbxBgT3z6ZMXXubZmbX5IgB8YHW0Nlo8MaxdnW83IAGYTPDN4kihlJlRYGuEOGRvaA8vwaNRDOyfsj7B+ES/8+5/1Hy0edkuCtiei1SWFySnNQSL6DK4DW/rJMpIid0seAMYtbAZGHk0CvImyqfTHXw4gj2uP6KWvNkdgKjcoJ9xDpy/nudjF9MxxuXaZVml2JUpkXcGSJI6fgvZmzrgEtUa6kh2bDJbbHvgV/4+vx+7LvugMbYOp6m0DqXSZ6RpnSNloZodzD9N6EhSu25Hr5N+R+qyDAbULmGxs7P/MBxwzpZAluCFBvPA1EcdEjkLxwxfwbhodeJgd+XR3Wwv6Xyczrd3SpNG8Ke4AIbRyvvAX1wlp08fBn9zYiS/NNyZYKOEvxD62CuD2INMzncb7p4yf8ftfihPQch20DDAC5mi3jyFd2OfUo0y+OMi9GsLVu+6kE55OezN1b9PRHnGccqxDDxPDqDFzdN5DYfpqqzvFbm5Rd6VL6AFrat+egWzAnVSdiKyeWnImLoztwWuYtkZ7UDWjiYMEXawq8zZ2T54cL2172J3/3A6WYtTMGyAPIDqxpu2eUaHUjkJuMM5SP0jzzI1kCwe/VHeLoYacTb33xTHnT59Ib3vQ1dpLMcYAFlMaOmLrDzvzLjvzvYEY8D1oV4ZbcjzSLqXXhUDYwJOQDtw6ADmrOXnzJ/Ls+aek+ZePzsNmgT50FPpnilliPy8tk8p6Vbb5kQj8CBdD2arG8BtMEEcYHdL90xdyCXp97ZA0min08QqaTpjdwdnIx8ha7iYphg7nPBtjaAXL6/U47ZPXXBYJPlLTtEKWDpLGW+CAK6/1UMkPEK6S0pXkqhEbMLxAC7TqNXnBkE29M4lD1HyBknjp8B3td5Hf/ju18IzuORUgzdg6xvDHKxIKDsNC0yA7NoS7hzh4P2gdKIhW0Ngf2QuKAGEomVBuGE4Y4wwegaZ4TwANyw9NKurK7tv3/RUug/SK12DrO2WTOKX4RUKN0MxHh/DrSZtrmHgGXtGJ96ilLfp+acaRLw713NZdz9R99NReu29yLSI4QWN2fsDssboSEkiA5PTkzqwWnPv3uOqGZszpy64tA0F9OwGQGm1BZgJutquPOv48e3F4tsAUA9TMkPjGXiCt7C+GQuQKQF30P3JSII7Qu/nlOYHbnwFna7Bqnlu8ugOYl2EcqpPbXPUFgA6IOxGRepTfYq+OfMrNXPGDKMK5FzBuZc2M79hSmY25f53OCSoOLCePAP2/fgldL+BTneXGI2JSxCKobVoHsrSJ+9InT55mnATx/CBLYgVn41J19ut/8Sv/23+QNq9S5pTddOy16GnICfwdeqEwvQaBeNtrKNPbF8PTvtbLNDRpE0tleHPf7r3IUsAFmlCMDMj94QuxKzzDWgEIzFQ+lu3U6SzK+NDmf7E6SiALU51lDI0GoFIGBVa3I75xK0voVtu+SLy2DFrc8+4sOrdxLWckMJ+jzgQ0AFjW9J7nwO0CU12I3sNZmAGbrz6sMiReQfwUwCSJfYZNH+ePJUAVvtx01PofnQa2W7a8xpP0kFC4bye7rdBaZF54miOZGYusSgZqGUHJLVk+2dg97ZUoC9WPfRcrGv4uSg980I+9wzmcio2aAxGoMBvqr0/xiAxc0HrN5wm721drfZtrrf3PVlrJh4ZgbX7FVpqUhCkTtG6EaYLhbtPQF0TjTqexmMSyGFQvYTJ7hMHm8dwBSEaGDsFvbbt9JkL6IMf+irtYCIiYbcJYpfT1ifSRV/L36T4ErRmX0Nm8QDkPVMTkGie4jRMJmMgx1YAH9NrWuWc2TPzz7wEtnNCaGhz7GzR28cvpvuOH6At9ypmyV27x/MlXukkSxAo56sEerP6U8/TGlbNxDuqRIxiyaCkge+g3xXwsn6gHnNQAb1uYnOtQagNHkN+voD5OQaOdZu1B0D6fZwWfR99f3v3BNsnDl+mSshuSwpUO+C6T53NPwPA+eMsEvO7w2BcVhC5ps9BJiYTT4YQQbJYy2WGTwYhkcHJIEfzrtab9J73fCOttzcVUHWnySZoVpRPCDEZtkmMKtkPCf/sTiGBPR4S1x6/YSJmIm9LlwAUg1QSfv0LwGoG4FLCwQ+AJ+ATwJ+XqIDQjH3/7Fl0ux0QkzlHbJ4di19y9irpnLkJyGYh1SYDDCzfa1JG+uxJIea6BKq65T20C/BFHqjB5pMNRcWyNZP/xpDhyQaXLdAZxRaurheGxmoIC9X77B3H5cyJC57ShxP0kQoB3N5e7SrWQv5WnSLugynpeo+/AcyCG2vgTczNtp9MKeC1uxuz8kCm8N4MDyCyUB73A+B/+IOvoK3TF4SXFbx1k1wleJUN3uJCnELKhTAfEKVNS44UIXFRDdXuKAJaElwi+JTw/0nv7wKzNYVkaKdsyDTb391XOvZjl9A9xw/SNo4RZdgxYYbqWuU412V2fk6H9FRJQCK8h1lv/3+hvOm3odC7f/3r+FaiOeDXvEU9NamQqJJEgd3OtU5BajvtgmLcu/jkTHBO2mHcjQJpTObtkxdcrk8A6n6yDoam/N3vnF0LtDmYzYroTL6GMYxeQdlgciAjVM+gF2vKXWN3cP6s6ee9uvX7R2+6ku68/YU0vAfSeCoYTOyy4g1vc6Jkv/PkdelszjCWJFtxHvcC5GdyI/P1I2oBfvcUji7fTN7o+XDRu0yUBpcFUwuu19bTDUfodmF7yK6Ek4Q3sDtNKYDGGJgk98mDbHvxqXMkZ7NOtm4jvbydbHxv2+3ttMeypP3n3Uc7p3Z0WG+VJ+vqDJalTdpR7BW4OsTHZxIzcJfUM5slD8bT9EFlXGr+/VD39mu2NzNMDBbu7ZbAKjBjMo2dgIicliQJojo2ZXsoeQsKiTOXPCFtbL/5d+y3xn56S+6955n0sZu+kPq41IGSBO2tzmXsC+JM4GBu355YnglAx3Yr238OCqLXYUpl8nAWogylIZ2JeovnBlH66G+m8Ag90UypuPhOH38S3f3AQdrqG6aQR5Iaph87od4zeYLwIrVTOxATohq/ucbPWV0Ypul6S22RbAv9Ce2xVIbfOkl9Tsk+pkZZvjH7YqPpDRs3UzQwRUdT60mdLG3ZU5lFgZ8nTmWdQbgGrJeh8UWHJRB52kFz1T64G61hABSXNsbSa+cJinRmAo5rcUl5fT23TicLlkzgTzpedbAMx4Hht7bOp4988JXwouF9hBCYktgIyQIJY+UNdsGBX0gbGCgluot+BqIZv1kzsT0MG7+xx66JZRwZRPMxtRTg7IXwWM1YphTQ8rCFrjtCtxHyU+rnNeSY9AxMdn/hTuwRf4MF94BTm2B4cVkrQWy9vf6mr1hQ+GRKE7AiL1hP9e7f+9rdcqYtS1rce5ymi1Y90GxAXiyUyXtRCxvei44n9LT2/sJF36dlaVYN3G0CivZddGhCtY6Tdz3lmTocmAA26UoaF2svOkOvAu6258kNjB7oecfSLLgEqNxrAAgz4NqTzvASYFRyVjWwIJawWGNr+yB98L1/jVY7G2arbNPFqhHriOheQwO6xa6maQZpIpYRhaehzNsA/4goZKYQG2TBG9nOOFY9VezjQBOaY5U45QhhfGWm9wfwJ7i3lR97Mt117Hw6A8XZHUnL82mCunJmypzg9ClfLhwOuUuoGJOMO6qDVuCFwg2pjUqoS/Bm/fwVeohlyV/0Yzvyh//sQSqr8zqTI68+rUpPU3btbvn2XueF6fhJMzEtOm5ja0rBPm1MTpdB26cvONSTsHZldqd1ntgEsCFAtVAlOqPYWJuM4e0PbJzYHEMSIGeQ5cjlOE/lcorY5OJWhymC2u2tg/Th9341bZ85D5kCRw/6lbyPiXWwmA0fYBYGwQ0gDbA7PeP+BuyFov44BDAcjkVWJ36r6Y3mM9Tb2iNiBbZyQNPYG2UONuuS5fQ+2rr2ufSJdrvWSHOg+ZOrsEtkPFydi/Zri3HvHcwscQnw3SaNBs0/L6rT4HJvOdMWm3ms3EOysUm8iuG+y4XJljXHWJoObtXsbNv7aEozkLZuwahy2T554WU02bxDrOzXe9gtCVQB7N0zas4WWXXEGwv3ez4xpoCFxAgHm1leKIJg2Tt/zxI3F9mbdUgkrG97r9YbdNOfv0J2zpxHmHs0ywAyKYPGZgeQ34mAsrGnJS+xPYGLZhQc9SPJSYlgdNMoSRLN0GAcHTYf/WKEMiSuCYP04qJk+NATxDXdcinddf/Byu6iUsaKEHtsUQpurbFwPzxJHZQ4DPhiIsGzYCV+26Xo5YdhYSAaAuTmw6/+7b/Gt9FDLAr4aX281uQpmq5vAenSxsysS5y2fq7tGRVMgV36dB6Wk1+UHuguCQPRptWJ855Rj+nRpk6vWq+7NJDgqSdOweZwN/shoqKAW85J5YMkNkwBL1mKk/ONg8EYN+JY1/jk65ngUQxYdvzHb/wrtHXyMNiVcT/sSPsS4DC10QuDsHCSs1TjNCKOAkqz8jiBjYOlPU9P2rU9TOYSUSmBDCiA6jVXFplC/tguJCkdyr5S9ycdFYjXDJ7eT1vvegF9rO8R3Sg8qabQoYUIUrFOR2cNlAw7peK3rkeTXedrBhoPwcMpeSaH4QRJn6QqGtY8pJxpiwL+qafvpds2jtDmPqaNBuydQqsK5o2q53fKog83YEs39kFmK+uFNQPg/mgg97QlxuC0yHu9PJAe29Vr689tGY9azrBKCs4avNc89aACrJylD5gerwSDQVAyilTeXjJnGJjtHkVv6ic+cgU9eM/TaGBxsWuw/QexYDslP8yE89mN7TI1uQRPlQrNAIkPdg0RDI/2s+MNCW6GQimQdehbGUYAU/Z4jEsjPJFRSpI7nIyMg5FuuJw+umabWq64zekjfPhtjy+3gwsmGIx3rzpwhSLIdWMwnT+h+0Qvr39ORaf3IIqQpl8W0W2/+zV8DX0ywPPn/Yct+aN/fKJGZQe0/7QCfaPog9lL0V4szYrWvEvRCZj6Cc0QoO19NKW+v3U6s/9ZrceppyKnNppichUmNteWhE82crPVLE5YNTdlHTf6gF4PdkmVcksdOskasClJGRcie8gcHANgIkC+/ebPp+N3PcNbmdTNKDw4AzWhy5w0u2/dK3Vpv5niODF2T2Q8sLwkOgTrJg3v9bBNHtgm8MfeqAfKCRRJLn+SVDYsHF6I6dQBPvPe59AdVlyff50sa9wDVonAnG0umsny8331mjxfzlgfDi2CW/YVMvxWd9Nz/ghazVoflt3bEq+8ObDvXjqzvrSzeztFe7Fgf4nIRv1dGb09rbWuUmdjshnKxMbNt+ouTPKISpoG+iqLZL04T7XAwvLvCzFvQW7jxWzcmTiBHelIfS0EQN+1v2d41Py1WdJQBIAKQs8f4sagMQ5joKT/77zpZfLA3Ze5TyoWjFrGse+l1GLc2mpV+tgCcyzan6IvEcl0a+fVYymnb7Sg0QBwsoHZKYryLkxiNzQAHYvPdUeRIvEZm6fwJJqOpfAwUYLXK/cd/NYV7aFoDiDaFvT/5I4qy5oQ581Fs8RAj9aLpGf37FlXpjFQ9SA2GkLvKPu+Tfj+Gn2SJQDPW8doZ3pSZ/cG5uWisXlL+7M5qdI7pFYry+JUpbXsZL6oefsa5La7uDC9vyinbrs0hgSr4Nfb1HvYi4KaTM2wsbU1SZvHiZtnCGNgDCwjY3cPeJVSzf1aSxQEyGEAePjDQQgtb/NFt2FAd3/ihXL8nsswB7mVplWdLH8QjxiZg2/FToI8pF4rs+PJGR0qhwLQiVaJsjSSDO5Y71GhBAUOw49tHc2cQsaxa3bicCAJzHZNXnfzqf77pkv5jlsv4QftErSN8DYvRaEyPq7KUpQmPeKhDo7OIm+eDgg7lbG/tmsAuxdquX4b0olb8t9++1UPHaxiccDz5//gSbn69Q/QZjm/1rIev6qnWi4Ic8XLZv29o6CfSFVUn3G4JqQWRWcra/8qEMvWAxdfUvutKmgnxk3UPmKDkTJ4BxIb01sqkpuhUApg0/Ng4tQK7wCJ0i+ivwDWqVKQNN+VvjQGNRqdpiXd/uEraevU+WyzEbHn1U06DQGh2WA/v80B47jublwihen6muzcOC8NrJ8DxjAQPV4MbN6ORBG9EY05QKdCnHHAP2W9P5YnQRwy9zpa2vaSV//jJeVmLcedAyZ7NgcXwCcNItsT0H4JjYY9Z28vMpsQDE3RHD6Fh8oV8k4sNNMiwG5HfVJ2b8v4Ju7l/gr4aV/vPOLa07qsoG6M3m1qWzMy/QlYzF3TwLVQ+dMmYyV4Ayrr0/sO9EaY8lxqhFy5h60O9picvNO+RWMR1uC4KSfmkHGxW9YfjK7yqXocTX8KexTaOzXU+Hp9ioJltb1Jd938Uto+fZ45DB35WJBIDPA5JAxYnFHlY/kn9rWMRD2BzHlv2UDwRH5k2jUzv+TDaFdGx5TdCPIEbKYUgFLyFLTbC3Gc2/wWve9y/vi9tZPJD5GQGh6zhxxxZ6UOwOxocrZ3L8hJo8MTSHqtcC9n7gjzHZjow9e8iq+lR7CMgP+KCvh3nzhM21x7YCvNTpW9y6YBG/LGwN4lz7rYdByiHVFN46iByPb+fTrqQGupQcqU0l0N2Mb+a1G2VFa2if6Qoo8eDegjZeu6x9oEPNtMAW0fHbKsJRVrGxA7FxOW1RNU8Dew3/mRl/X5ZIv15av56J3nwVIJr2jTSxEvuRP8pH0MZGg15GXmJZIZgNiZVtci2EPKE0f7GD3cfaKcDTKRHIazy65SNsh7Vl1DWOM4VY5UDZyd2Cdnrn65sruCoE8T6CMiZfBj5B29tr7vq+i2MTIWILXdWqdVe5fjpIXG+91twsfChLiPbUJW/2wVrjD7OXqEywB45qNTlTX308HlRbTdZE0LYFfO2rRjqccmeVbbOnqybW/DESYbaqDoLDsnDj6128lEENN6n1SYKRuvF8ruuDnMPvTX8vOdsdXpMVyua3dx9rdsbfsOTd7FZPL/ruMrWKsH2D51iO69+QW1sZc+JrtXFaAwfi/GeD6vjD3Lw5AxDPjKHjpCHOjtp0pP3QZgA+jAg7OaZKaltLffLV3X7JppkEJ5u93YEY5xwykFG7ZqrA+Y9de+ZOOGDj67PU2W24wHvUGgOhQsFGGB7qN8bY8VJZDT2qYIWHOSKMZtE5O3M0UuP9hfq3zbO7+Kf50e4bLcteb3Dx+nV586SHRqWXtfmdgYXQz4YkEtb1jOvVZ1tS59LDxmJNtpefmKUp2HRi+5paIsWPU7ry3aAe0ZGZMvIZxJ38ADkkSASxqV9sB2Eh+QZJ4hjAR8BplUV52892l0/PbLffJPNSOJwZmkZGJRgHipZAE2kVfNZxVD3cCb7tNNzAJEqJK4NLLzeXuQA9MDWMH10zjSUs9GST+Mh9q5XTEwjXYhvr8WgfrSIMFufHq57WNP1kB1StWzqlrYYpdgup2ylsfuaVaw/pxqW72wqk2Wc9dnhXhm333kR8/lS2oiDZR/nD6FZRfg+Whl+S/9xw/QJedfWKVNoTOnC51Xgb+zqZJmv5Su2ZGObMMRNhvjb5W+T7vpmxVeZ/Y/FSZKDkBi6yEQ68pXXLPlpixXbsB0N0YTzJ7SH8R4shyjCZXAmgolzc70MtoI6AdvfzqffuBJlm4h3Bl00hqZghn1fuoYMPM4hLusB6QUMvsAcpqz7VxmcGLVnC0BuGFnw51J3xHLRcQ2R0h8B4CRRffKkqQcvw+9plHDnzzAp695+eImsi59skwLpAlTsmeKGQngCTyIpZA9zuQW8K+VrPTSJ6+WfmBMhxBZwohscFprptv+4BX8G/QpLMu9VvJf7xmbDdp/cF9XVm1KzDZs4LyKmq0Dlc1XOgRBpZx6gd492lKW/V1lRaaqxuLFB+yPlNvUGR2UgFn39ypV5j2hvYWKYL0qCHYDYH1PAxgW0seMyZ5EaOvWqyUd+9jzat/aJnmMpClRx6bf/ixijdWLqodROkSiTO+QTGGLgW7d5vYbxmK13lOKWCtZdXi3/ieKlKReixfZlYOIszRy8V4AEeGJc88aTdk9RH3e9cLFR+4+xKfiGslz42QAyCoS1ZB0SXm9bdPxppAp9hR1vxaTPF1pmU4qCno8hoy3grR58X6CPsVl+ZBbrqrS5p13HqKDBxd06nRl9nraM7UKy1OawSGTOTsbi2oMa1rsWE+rpiVrwCpN7VgwyToFlZppi8I6ifdIcdI8d3pSCccEQrTZ+kELMLPPuWwpzdYYi96b69MHFG3t0/ddXGXMU2rjLTWSdDxLFj32r/BDtEga/YinYvJtJBoHZwlFIJnkiJ0bt34wDkRhhlwE+D4kgtBBkKk/Bat2LsTqISCwX2bwOA+NF+FU/KFnllv/6CXLT8AxcJpEFRe1NqkNpWWdqTH3jPp2+HoG5wlTPOXI5MMR1naRZgTSB7bY+Xt60wKFisbb3/kV/A76FJfyUBtaAEsPvuhUzdas6PB5Kzp5cNXfBSWLHTotKzpQP3la1Z7XbTrQ5pevf/vKTpU8K9qWlWwtL+MmMVoCpV3uqsJlsmdIVg3nRWccmFQpdSfRx6vpMfq779/37eTZIL9i3W/S8KFnNrtxFcF4N7bRDeutTTr+sSN06q5LdRycTDaVcb9DolPTSmfDooLdtotr2WLb2dZju3S5SUjxI6wglIn9/W8S389eRa7zZaMO/VxRFny4Hm8IchtGEIzv+NMyMNpv934om4hyWfP96t+JA3T6d67cuNEcWT+B6IOdap6MJIw7q56xQaeT2bHYsaA63YdMvaFM7AdEIm9fdOSIkA08FztWuj/6Sfo0luXDbeS/8R1bcuO3E905bdJh1odDTvdcY6GtmqUpB2pFdrhmZlW/n9fQWNl/c6sm/pbTNBXvLgOlduHZxIw+vSSQ+GIdOSpc+lUxGI6L+Tt73V1/3I900JmOXe+JH2Rh+r5bxw/TmWOXdL9Helo9SG86Hqm2CApyibMgR27BvDyiCDZjKJCUIQtSIBqqhbML0e2ZUBOjQ78bHAgB565zBMwonnyK4DQ6pWbsLaGk85ZdT3DX33/0ksWNd1/EZ+AUzK5cyOY5273qVsoEKWKnyXNJQt6wi02zvxxgoLr5jSSsg8hYndnt//3LPnV2b8vyk+3QB5b9wt8ResHlG3Rf7XzaOL8GqMeqtLm4YqhKnZMV/IvaC7u/Bbjb+szrcrPm4cW6IDjpa6u295BSdGDiPkew2rM6Qgmd1pnkMgmqkUOcTOtNOXPfk2jnzH6THpQCQgcYh/vvwxC0mhN5FsbA4fM1WlBAEwxRMBCOHIC4jsik6PfCKaqbyQf/KTJodewbU4coRCwyichuN060aBjZoLpyYMtRBb9IXfuBZ5RPvPOlG5/IxXX/uiBPOoV28T3czix8iCEGKmvc3EpUB03t23JWhzD/hTnDtVhwS/RT9Gku5ZHsxN/0tm267/wtoqes6LabVzRduKLV8RrG1s/DF6zo1Jn29pAVrU3mVMnTB4qtSsd5lyiQHGLfm/Son/3dI7qPJnImG4TZhiWsu4G4vFF5VLQMid/9mHUNJY5dJCdvfQavT+9nkwjqOXvDTlzIZYGY+1cZA3ff+8J0RpE2PpMmyAQWZEL74H8h8XJUaghkAUGCGCVm2QEpA5kySJ5OjZNLHRxDeV+CDEpSJsmsLJEgX0aZJS6baDiOtM+ifj9epcwvvWLf+4AMQcNQAic0+EzmYHsvXh8MdefV15l0WZusMR01sZXFKokmlEsREk1mcO2O/uG7vpR/kz7N5REBvtftq46u6Pdpm55z0Yqes1X1/KkVLXlFd53YofM3dkjq5wXLCviq86mCfuJj/RJWGtm4fter1VRj/4RW59Dz9h26vmY+NQBOOl21ftu/Av2BQ3T61svaJ2cQdZCbHCm4yZO1bQez6MAvIijMfsvs5qr3tnKINFPjXQD99vV7RVn7j/qdIh5IcUHeThKafbfunpepVOuvTxR0ZIv/zY8rjqsR6Lpe0rm1jX7uqzf/pOr3nUnHvwnA2n5P1m82ZWGl79Nz4Geg2nbo8wg0SFUksRuFa3syYyrJqLCulVFv95voM1g+qaTJS8/RH60nPnqU6Sv/rPQXR6/36RNSD9TPzQe5BrNCFxxsOfFjHdxM3rOKWmMQmUDvsg7B7RqiZWH02VXur4otLmdJxu4MXp/ZRzsnz6/ZwIWrCRNEmgyyTErBIE0buutyWkI08EzX4pLVTZt0UlE1ShFX6OJSAWp6PtkS+zrbS5IOxz4mMcTWx1kkHe+BhU1mHqI4dIK1yOyKcC4ty+Va3/V/vHj5oZuetryfyZyLP505FKFVKGg/Xce5zWzuuTYPHcdsB97VwWSTO0kMHy6m0rDf2g5K/RyNN3/zPV/Md9BnsHxKgO9XQx3w3ehFrmF6298pdOAlTJfcxnRXBf0Flyzo3o8w77BlphTHPpyASOcuKTa+q4807sOHVbOt9C70jX16VgvVempTo94mWdZnDhKm4MY0ftraYpJfZ38odke7/ejvnNK2HifGfIkGJYyDt64A6w9wnhXvXSXKutvTikxhezKAe+iBYlgyvpODMQesgvPgnDCIZER+TMY3IGbndL2OzSklevsli7v/61fs+wBhV/SHlfRk0doCVbsslysWiNol9WZAKlKKAdy6pNnGwcDYetaFvRPLoxUzSMYzq/V7A/pb6TNcPmXA50XvwdsqJN9Wvx1luqb9vm2ipz+3aez7dYJhEbwoR9Hep4pyYqH+JlfLx+gcGR1egm5Eow5ZL2m9s0Gys08HPXq6QcMabawpiMTi3MlvsGZh2ByxdvE6capR2pdJLHSegGG2GyR+rBuV8buDGGhgimDTgUcDWK1e/XfZBfCgT3gJmE+ssmORA6Sc0SHK+X4i2BU0BcElVN3Op37mVfv+hO1BLdLZvKwTxed96UN7QccYrltwB6xUr3Ux8Mp4JZ6NAboJ/rp/74NRbNaxuHPUle5b/vQLPzN2b8tnBHgsKiWOKut3m6/gXzXAU+cKBo9BS9hDk8rqojN8gWZZ38PeJ+RuDy/WHtJpZ8Nmi2VCZw6RZzRNczijunRRIFGwY25Cw5CPHxEoeH1ayR4wUOkNT4GMR98+ueYIpjXv4LIB4ibuLhuV+9ABq1uWN8jRxbvfotc0DAZtD59EKSPFw3Wi0rppLnmIfvmV+999+0WLE6RMzRzSAszCYGZCX7bJFgdzpBvdzIkC07SggP1k5fPQO9u3Wq+td1z1qW2Y/uJPr+TfokdhecRB6yNdOizaqMsdvpnRcdQ7i9o4CdZYvAWcazWT5iZLz9rUS1vVv+0Nmk7tl/WDB2mq0ROd2WzPkLQxYmoPk8wDudbwopkUy5iQZ2NmmQrrKKK+jlP2Qp2PJgrcC4BVU5aGkCkp5i16IGuZmiIpK2NAHX8TReYFwIvrKSmw7d8nZGrsWqaU+aGxvOLHaZnR+URDYOpZGVv3rhdv/vn1z924gzT41G4/Hc/SEsiTYq87SjyegefBPVRGa1EOVmmwKYBDj9VcfrRyZHMU/IioqT8stT6zQ0fpUVoeFYbfa+kGbeJOAxTNJ5iep3TrSbN6HF3zTDHHi7pVZ1C9iViFsBeLiQGhCMYs9WiCIPrNjWkH0evqQ3JOHFRtvVvNdtvzuXhMETofAS5OHuw8LtEdFCImyxDxKylJY1v1aOw84qirHatMn0uOwt0zWIvd9NTlJ37+qv3vFaVkNnmic1JNrst1aJ/Zt1+QvhsmhivpWFkhTMPBLme87t2j9g5vwguR1GOofFLj4fAQdu9/+v1f/JlLGSyPGeDXE12/LJYV6WvgvyFIyOZlJVPDpM+h9skR9Jrx4DawyykbrG0hHGkZCiXYl/Dl1prDs9MIVsWHrxhAPKvixWDYDo0ySeeAnyBdXD0YGDnbFYzejZi8EWiUKGSaIXAuEVy6gc4Vs8yOnQlnb/3IBj14gE/85N88/52Cx0dM9VmD5kypA1PENLs6m7V11mm8XyxDasMCMIiVQ9mx2EwDtHBHpjG/9dxSXvTX7dddyf+FHsXlMWT49bF8b/EgdBnxxBxMpSDWx/DcRlT7B+NjbYxfd6RFL35fPepeNrI1PpVIGhD2cv9chOyBGvJqmEnaAX3aELKedkqpTrc/VASzICO9xkNKU9zRuOqVSG9KmqV4GEIALyBRHvS5RGgRVpTO11ZtLXjrP77m/N98sL2tgzQTspj6JCoR92pgwlZMmayTVySxr27UoDYyBppkiydCskkKU7SQYJSbyZp+zDouf6fQP6FHeWF6DJc7v+HD+dYSUnh9yIDpEnAA2NB8mkA2u7smPFAdJmSDCvKl2GwaaV/MipDrgErNyyZKCeVUHkDGo0AJk4gECPy9eBGKIje+VA//7tfuB6XjtU0kdJCf20nf683GEPncuWz9/PmvOu93/uBl+z7us1ezpf9oCDVMPaq8IdBQhAf6EEckhrpd9/NoQSVndOym9M9oNULiwZ14apT/csPL+GfoUV4eM4ZvS73CW+rHkT3Wk8n5yvpJD08mCQs6iXR3h8hwM4WzBzD+t0nMQvKQ33Vy52qtG/7dn6dTT4T9JngR8d21DqYbYFYg2t3ZEWXpwkFzgdlkqlmrA7imZF1nSDImiYvyrBU83BQEkHU8m9H8jxfvu/b3X7rvFqsI2+1gdPCJuJaH8gPYYQCTFc4252N0JKEVVZ5MxBHSiK5B61C6yriYyav53hte+uiDvS2PKeArjK+XBviQnColNFDpILf3HnH0dIo/FpJulhi+tG2SdKcQBbaIDzi0TBo8PFOWuhLw0j3B0ugR1rqZubHY3bAfbmQkc8AmCQIJlEw3aJnTOhmuYOBjYJ/Ss6u+yVrMixGaT62RA4I/etH+P/npV593rbeBzRIqAVKLT8gQqzLGS8NUt8WMIkY2FDM6vLuRLbRxT4FqSmJyyc528jTlnbKffogeo+UxZni+JWhUgQ0G7qsEnXngfElJGdldnrt4YpExyNTOIMvGINnc74QaSOADG0MdtfE0gkyMD/tln9yPBaRO461yQk9si9jBJ3zKVzAoWYrOpKhPdAMnGWPHDmytDexaqv2GQbhdJb1/86UbN73lr5/3bieKqecM1taCHqha2kzfBqCTI64tBPGETAs9J7WEtYUM2v2gl4RnV10eWQzmI2NtIjjN54/01cbW/Jc/ex7fRY/R8pgCXmR9QzERDr8HDATA2xcdastzu4eGSXfYAkXT7xRsShHEQrI4pRjLu3IRSoKin8cmFGYlqaG82Ms1Scgj8riEMmOTA9rtgiOTw4YLGuvv24mR1khu3woHp5eUcSEkXU2HeGRoYD9xoBz/kddc8DtC/l437kBGlsVrQvqYvT5kz4KJA7h3sxGGRlkbFpBIj6fjqlUiofrswGY/VqfbAyzUAkrv5f3Z972If5cew+UxBfxiQdf0hzVwpZLSlCYFiEZ50JmKcrqQIEY1lqcuLO1xAAtMbaoJSBhIllhcMNiYgmBaq4sFtrKXY3GDc4lEfgVwU+TpyK79fX/tChD4dfcSIeF8e2g0Sfbk4Cai+WCzkEtJr3M2aK5g5+P/9hsP/+J955XTlvTx2T37fkXB3LI0/am6khhfAsAFbMwO5MnKsKSl23ivjmBMG/ule6pT8GhNMSsp3RHfWcH+iOeX+XQXpsd4OfZ1H7ivXtRFIWuMTmy73UJ7JCmWYfuemRUyzkV5Mm5Djp38dmgckM4fMkgL272OSKfvc8HtU3FQ3i/OpdcCaZUVjYOWfAggMit+rSHZklOjPa8d7ZLbK69r308eXDzw//7tC99289M2jlMaCm+T7QyMKwZAiufQWWe+DuCnv+iokj7+j9MMBjnjU3B3zRn29Kaxfpp4ke5eLui73/sYShksj/rQgvlSr/5X/GEM0a5tdH1HF7iNS2/bdRJN9Ms6NehDGVEG43jt2lfkTdJnropeE03odWqypy2jG18h188l6NFWN0Riwwn6uadhjH0Suj3wxtjy4lYxnoeBcrEhCV1P6G+UVSCcbZ0/mKH61srn4dpBvSibUQ8r5+QBfuCH/ucLf/6WSzeOic7hqI/LsE2PhfHuWkIfVoD9WkKx59XFhhXYsdjP6qX7cJ+fDuXhuP74DNtgyB4r6Haduk7bajKmn5ZC3382wN6Wx1TS6LK+gdRP5o6cPu1eGQJOQqoD+XkzCsp5dPaEPUGr2/gXQiyW3q9gurRhe5HYWVnZuIV9BHA/dcgOjyXEJH7oetftpNLK9Ety6XYOrTDOJ74T+c7wBMiS5n4F72U2yreXEMa1k8mbdD3tY7XBZ37yay74r39x6cb9JbIkeDV7d3VC/u423R5VM81hGRrxkMD1+EQUb86T/ooMrzKLTaun55mYd+f4JbI37UGPX3zvC/hmOkvLYy5p7v+aDxxZLKabISloD0kzdC6lDicS1+SEuD7P3De4cIn842QSpq8PwZ3Pi+xyyAy2spBkgagGwAmngW1F/AEphFnIfH+XI+zWRy5jgPoY2ZnrE1mhKCvqn49P6+vv7SWfedPXH/qZaz9v/51EhKcKyIAYJUVaMiZUArApHCiOJRzLse8k3hmF2eTYpY452VL8BY3eYSWow4p+6f0v4bfRWVwec8C35fjfeN/N9WovnwAW6/0E0AF2175ECTDpphooJXkFBxSNGlhXs3kIAlEax4fmFosKRWgAFmEf1Fe3caSTycyX8RKvBOhkjLuAbgXM9yPspwgaYoA4dha/2HorS8F++D+/5wX776ApNDXBnBGEGjjt4QpsKxJXz8msCxwoDIPZ31HOdudgEDrA24woAx+tYZfYjn/P+1/Aj1m+/aGWx1zDt6VG/28hkniI2mfngI612yah03U4rELNHrZW/Tqh/1qH9xaBJnQNPDxQTYShv33eJ9Pm+kwrJS3OWk8pE4634cN49lV/i52PEBuQpOsCVef0hqRPwnXGg+CxPet4ztfjcUDej6LdenusFnTmTV93+K1/+vz9txWNgXoCiNmG9Wp6SfX41D+7Fu/Q1+HALU3Z/mwK3P4npuF1BiE7vv8WHz4srtttv/aOmJJ0PGIH0Qc8+tNLx86nH6XHYTkLGr4HXNekt4Lbp+WeaaSVnme3VoyZe9uMAwUDuvz5WD3IkpriyRiGHnapNPmRehrKOoclJpRAotSm5PBcOaXEm1VYrADTHu2MltXwbslQ2r6SkHen3HmVe13B6dA1pAaATrChpez79lLO/Mevv+inrn3h/jskNLvagz7BtO4zeGG9yY5JH6HX4QLtMibLuECr46q1k0rvZWoPgXcwfW9PK0G360yfbN6Etexap3uqVfzAbU+P6fvO5nJWJE1bTn3Nn99cz3bEgGjBEt4AQu7CCZ2l9gt9VWIPow5SJrl1osCNcqbJDDIJ089hQetw1bxL8hDK5KT92QsLWZGPTQbhKVLX/0C2Kup47JD9qapZ/ZN+l/Q7am1TVtVszOL+H/2bh37mj1948HYA2bS0em/tQGJIF9Lx6A5QMWDju5AzgoJ+6rP2MqbNtOq5RCEDdZk0RmCcZ7Jz2cDhomXdU63gX3/oBXwPPU7LWWH4ttTb89Z6194QPxWS1l03zHOPzA2ZyodANnXLnBjagS/RC+idW2RcyHmor0oAPc6GESgwGe7Dig5y5hy2WiZH9TxHEAHtnXEpFCtUXpHkl9YJx0RGYXV2YIa3WX14gvbtxP5y3//zTZf8+AeesXl/Y+F+vE6VEe+fsI4kAfDjnRR9e/tvoYycO5hQdfGcvbG4Tnk4XiRjmIJlZHpdiuXx2WcuuLse+28+9GK+lx7H5awx/P1XXXf4wL7F/XPmpMTY3ukj2csXvFCMhgDRD0+dTbR3kNc7Y/V4fyEBrCAC37FOxq5At2V10KkbQ5OZh9c86ZdZXQYvFF+tfhx3wUJAwfwOxuLJU3m7PFjB/gPf/OQfrWA/VlKGBKUUZHUtEyMpfd+n0CgRsPo7imlXtkaPt+vyGvabErVGEKvqR4Pjnp2BJ2E6tV7Rv/zA4wz2Xlk6i8vWX3vv2+vH38J4RsiOlEkhIuTLdchwjMFiB6+HpFmK27H9t4n/LmPZHcQMgFYYzkmjTOJQGjQYJIHkEWqHZ2p0OiGzjXrxDOiQOvTQEmy4JqRaiTwmOXb+4hPf9a1P+ZFbDy/PJAnTS09De/WMOpygIBdusqO45AC4zRtQMgyrsuUGRqlDyij6zgtImFmqs2h5pxaF/u17P4/z1H2P23JWAb/zNX92lUxydfuueESHDlnenTzXrrXj3XrZYkExreIg3QV+omEYQ/ruwiOMJzOxGo1GvhBQ1h8wZ+ldvyMXT2m4AfMeQO4nUU/hVdgjlz+r/42X7fvjH/zGS3759sPL04VnqcSkt+19SQC7MYS9HIi8vcLiu8DTbTYCcgA9GfD9XCmw9Vy7gR1GUwu9b7GgHz9XwN6Wswr4tuz8T++tgJevRJA3BHSKec43mHLAyUxZ+jwkWw7g55kapkHyaPmSAtySzuf7oWum6w0rM84xM6bUkTaXNRacoKqZ0aMMjmB1uJZ3P//gb/zLb37yO8gA18i15QHLgjC6EePaPRPT9130cbw9sLTuH+aZZ/BW8adTTerYE6uMTAtcm427cTkz9fNoGfq44L18gN70vmfxfXQOLWctaPVF1t9bfefVQ1TI6LZX7dxvt6Y4gBOGqtDDDFoSohKYjtRdEZfqMgJTERzpQSby4fX6cHb/QnECiixg/+7jEmwowh4zCXO2MlVW2C8/TJ3UOWHqnXAD6qO2l+XU737+eb/4pq+75F1tF0vvdY3cZvSd1lSKHWvPiarmgrGsexApxg9c1tr931OVk+tt1eZij9CTSRJlhAkvWrGboMOOis8oxlJSx1YNUHlFP3yugb0tZ53h27J69fVNy79Ga8A500JgQTKYUBq5KAPrS9LcpjYkgslIC87ATmDi3euawjL3H/GFq4GUsvRgMkmava6FEXvIrnNl9s7X5mVZeSf3lXt+9Guf9MO/+7KDt9nMXyo/jOXtGB37Voxd9VBPSxZl3vYuJS2Vo5u/QKoUnbzYucO8AYYklDIEt5qbN/2epU41wFtpm376fS8598DelscF8HLVdUdkUf60nv0w0pHi81AxjWCmLG86+Qg5wn27A3AGRiIeh/smAOpueYjCGLD2dWWIFRjr2RKS0NxDPXfp75BXNP7eFazmY+8+tPzgd7320h++9ckbp3t3qbExcUiYIRBFHS2z8lBSh8jlTmj5tp/tX0yyZCCbUfEM+P5oIKvcufbB/fTfbjnC/vLic215XADflu2vvu71i8JvnK+XEbCueWOcCQ2AgYHozraOiIa0IvEewaINUmteHF6BdnuRcR0NsYL9Ho2J07Ez1gb4c33m5SHteu3zDvzyP/+Wp/2KsXOj2dImZysTxchp6PhpmCwJJy3oZLJA1hmfKGVyVIposGoGZR1J7D3HjKl4IgbwIJVdl/3e+1/Av0fn+PK4Ab4tVdpcXStwla+I3vIYgejP5fHuNB49XLBKAD05wJLsmR3bf1og7cwdaUinZjemKa3FY1SSPECcn2gcJDerD6Vt9ffp/eWun3vl4Z/4+a+86EN+YZwYGlIETN0MwdqsA3sdjN+lyDQYAi8ruNeRWdcLn4L17VzuIZDx6cdpw6jUMcav5zhT1/1mzbH/KT0BlrMftKZlZyX/cHPJ19Wvh9tvTmxtNKUzBxgBW4cUp5HAhGE1IngYPB7A9rH2YFvj5CzSJWCIHsi+Up+bjV5d8L9l4EUT1sWkmAkasdgVY03y+JlSyFNKMDSc2gLrWy/efM/3vPZpP/bxp2ycGrIt1psgobF9TPtksw5sNOCLvsO5Z09qoLmA91GAtsE+pU9jbRkWERsx2Rh+QRgLpC3HPpVlr9tKg9T+Jr00pu3YvtP01uuv5GP0BFkeV4Zvi7zqhtdWFn9LrOijxxJYFN3Q9TYlhssJyBts6+sx5JfoYYNL5L3dkwSWEJqFzNDjxGMElJOGNLsHIQovxQ+TW7d124ty4j3P3/9Lb/iWy97hnqsx6ZJ0/GEay4KglEzeJGmDCg8avwe6a5MtJkdIPYPvC/YnGzzWU52p99akDuZ61mtZ0LtPbtAfnMt6fa/lcQd8W9avvuEN1OfY9jQ3yFbSO0rR6ZSCRP3iPiEki+6v8xvs6gCaA99+eOA8PBm1RwwwBsp2LLgdrMqjdscQBJwL+917weLP/803POWH/+RF57dRhK7N+8iUherkBUDIKiuQX4fUUZsIAHuu3PT7enIZVDyAtYwPNPs8uO1jpWdlWK/u1mpNv/vhl/IN9ARczgnAt2X16uveUtv9te27y5Ck6TkFkfMFABy/x8ERuBqvE3nPKZh+CD6t11dco+vBk4ehPPYIZ6APhhN6aF6H1ZJP/NpfufBNP/QNT/1jSlq8KGBVL9u1O9CnLj06YyO7smwvDqXQ9NYGYGofPUn6ot/iQe4iAZ/Ug3hWBx1Odj4HfqGPnV7QO256Lj9AT9DlnAF8W6ZXX39dRfXn9x88q1tidybvt2GaS5bOsynYBGjdA5APQAM+5sFuRBFpmIFVYfAKSKPy7izRkOocvYTc8rQDv/h93/zk//oXTztwiijkSgOX6W4F9Fq/g+GJPIMyAH9g/N6QyuSLqPsQ3ArtkdVJLF/mUqcGpouJ3vVnL+Jr6Qm+nFOAr/n5w+slv31X5oZ319MDyYfYPrIu0ptDkGq7xTAAmoFfpUgRH7HIMRW8BW0oFjp/JrmG9GNzUNesRb7v63/4hX/8wGn6sgrCAxJA7cc1cK8M5GLGsKaxo8m1u8kSojG/PuTJG0Ovk9RJQwAkGQ56bylr/KaTVnTD1oL+6Mbn8xZ9FiznFOCxVE1f8/Py+j03AuBJ7ug6YUyTR7OOJ7KAV5X5mAYctfroCdxL9O27O5MwbHjQ7CaH0mCz5gVuqYV960W/9qJrcBnP+JgcOO8UfclGoYMd4I2tl8bqYcAD8O1inPFLkhx4AGPO+Bgl2WXhlDqSUurRNX4CfK36beUMvfu9Lz93Bn49Gss5Cfi27Lz6uqM1nnqDr8gA7787v+qogpw5sWXQ/Fn27MrY0BjooklyT+pgPKHphQkSwaMDMeCLDta5pa793kO//qK30h7Ll1bQP7hFf5Ub6NddguhEpBawttnAVm3Htm05At/qUcq6vx4ygP7wjI+L2BXcUjD87dWY3vPhF/Ct9Fm4nLOAb0sF/VVF+M0V0JdLTpw76PP3zOq2IGGPPOZM+mTZ0XbDC7V0mY90pJA+83WarceUIq0it1Q4fe/5DwH0+fLSD8uL6rmPgL1XALyBv7Exb6o0cW3Pus/GOjH7LMikEfi9putkGLMA9o4V07UfeiHfRp/FyzkN+Lacvuq6I5uLyvRMr9M1gUoeHhyJhffK6DyE1h/8AsOeiuQxPipzkLlBynI0MOmSmK+ZePr3F77j5b9Mn+Lygg/KBZsL+oIKwINJS7tcaey/TZaNSVma9nuxMCOxi+9XMntSqfCYb+/X3WenojtredfVntLb6S/Bcs4DHsv2VdddsVjw22uNj/QVBmAPXj/Jwg+T1hy2p+EIpOtshxhlnDIwza8cqwbylh2WX73gN192DX2Gy/M/JE/fV+h5FZTndTlT+8IX2zYvJKecO6sEIngBVmlTd+hAh/YfUpAWxNZA9O56TJuo6f3vf2m3o780yxMG8FhWX33d6yr2/k8D/m5pgyWNP5gD/aGMZFcswCFjUqBrq8o1E02/sm9reitfc+Wj3rX+kvfJxWU/PX21oqfWn5uQOh3kyy5vCrxbx/BkMUAKPFtFi84JtlMv61jdfisfoo+/91I+SX9Jlycc4LGYvv+WkDrIuexmcnsh2GgUD5nujPE4tluTMI0fj1VjuKGW9Stl57EB+UMtL/mYXDydoEumQocq8A/Urv5DSuazvD31cTen67qdtdDxaUnHNk7QAxsruv/aL+Id+tzyxAU8lp67X9BV9X5/fY3CrqpoPaIbcnblk0saM4C8NIBfX/Pw11cm/9Xliq4/myD/ZEu90OWHr6XNvO62L3p8Jjd6Ii1PeMDPl/ZwSTWAKyrWr6gIf3lhPtzkT/1+uIL+UAZ93ecWSyHeUmnylrrio8LTR6cdun7zmiuvp88tn3XL/w8s6TOZvQ/O3wAAAABJRU5ErkJggg==;" vertex="1" parent="1">
          <mxGeometry x="-670.3" y="-789.8199999999999" width="155.3" height="148.7" as="geometry" />
        </mxCell>
        <mxCell id="lZq7xQ4H-G2b-LCNkSoX-275" value="" style="edgeStyle=none;rounded=0;orthogonalLoop=1;jettySize=auto;html=1;strokeWidth=3;fontSize=22;endArrow=none;endFill=0;fillColor=default;exitX=1.001;exitY=0.496;exitDx=0;exitDy=0;exitPerimeter=0;entryX=0;entryY=0;entryDx=0;entryDy=72.105;entryPerimeter=0;dashed=1;" edge="1" parent="1" source="lZq7xQ4H-G2b-LCNkSoX-271" target="lZq7xQ4H-G2b-LCNkSoX-272">
          <mxGeometry relative="1" as="geometry" />
        </mxCell>
        <mxCell id="lZq7xQ4H-G2b-LCNkSoX-271" value="UniswapV3" style="html=1;shadow=0;dashed=0;shape=mxgraph.bootstrap.rrect;rSize=5;strokeColor=#36393d;strokeWidth=1;fillColor=#f9f7ed;whiteSpace=wrap;align=center;verticalAlign=middle;spacingLeft=0;fontStyle=0;fontSize=16;spacing=5;glass=0;dashPattern=1 4;sketch=0;" vertex="1" parent="1">
          <mxGeometry x="-1677" y="-676.77" width="110" height="40" as="geometry" />
        </mxCell>
        <mxCell id="lZq7xQ4H-G2b-LCNkSoX-272" value="UniswapV3&lt;br&gt;Gateway" style="shape=card;whiteSpace=wrap;html=1;shadow=1;rounded=1;sketch=1;fontFamily=Comic Sans MS;fillColor=#dae8fc;gradientColor=#7ea6e0;strokeColor=#6c8ebf;" vertex="1" parent="1">
          <mxGeometry x="-1432" y="-728.0799999999997" width="90" height="114.21" as="geometry" />
        </mxCell>
        <mxCell id="lZq7xQ4H-G2b-LCNkSoX-276" style="edgeStyle=none;rounded=0;orthogonalLoop=1;jettySize=auto;html=1;exitX=1;exitY=0.25;exitDx=0;exitDy=0;entryX=0;entryY=0.5;entryDx=0;entryDy=0;strokeWidth=3;fontSize=22;endArrow=none;endFill=0;fillColor=default;dashed=1;" edge="1" parent="1" source="lZq7xQ4H-G2b-LCNkSoX-273" target="JjG118tm9zApAH-lwlYX-834">
          <mxGeometry relative="1" as="geometry">
            <Array as="points">
              <mxPoint x="-1050" y="-680" />
              <mxPoint x="-1050" y="-336" />
            </Array>
          </mxGeometry>
        </mxCell>
        <mxCell id="lZq7xQ4H-G2b-LCNkSoX-273" value="contains" style="swimlane;fontStyle=0;childLayout=stackLayout;horizontal=1;startSize=30;horizontalStack=0;resizeParent=1;resizeParentMax=0;resizeLast=0;collapsible=1;marginBottom=0;rounded=1;shadow=1;sketch=1;glass=0;fontFamily=Comic Sans MS;" vertex="1" parent="1">
          <mxGeometry x="-1342" y="-694.5899999999997" width="200" height="60" as="geometry" />
        </mxCell>
        <mxCell id="lZq7xQ4H-G2b-LCNkSoX-274" value="operate UniswapV3 via pool" style="text;strokeColor=none;fillColor=none;align=left;verticalAlign=middle;spacingLeft=4;spacingRight=4;overflow=hidden;points=[[0,0.5],[1,0.5]];portConstraint=eastwest;rotatable=0;fontFamily=Comic Sans MS;" vertex="1" parent="lZq7xQ4H-G2b-LCNkSoX-273">
          <mxGeometry y="30" width="200" height="30" as="geometry" />
        </mxCell>
        <mxCell id="lZq7xQ4H-G2b-LCNkSoX-279" value="Paraspace&lt;br style=&quot;font-size: 40px;&quot;&gt;Protocol&lt;br style=&quot;font-size: 40px;&quot;&gt;Overview" style="html=1;shadow=0;shape=mxgraph.bootstrap.rrect;rSize=5;strokeColor=#36393d;strokeWidth=1;fillColor=#f9f7ed;whiteSpace=wrap;align=center;verticalAlign=middle;spacingLeft=0;fontStyle=0;fontSize=40;spacing=5;glass=0;sketch=0;" vertex="1" parent="1">
          <mxGeometry x="100" y="894.46" width="370" height="161.11" as="geometry" />
        </mxCell>
        <mxCell id="lZq7xQ4H-G2b-LCNkSoX-280" value="UniswapV3&lt;br&gt;Dynamic&lt;br&gt;Configs&lt;br&gt;Strategy" style="shape=card;whiteSpace=wrap;html=1;shadow=1;rounded=1;sketch=1;fontFamily=Comic Sans MS;fillColor=#dae8fc;gradientColor=#7ea6e0;strokeColor=#6c8ebf;" vertex="1" parent="1">
          <mxGeometry x="1286.5" y="350.85999999999996" width="90" height="114.21" as="geometry" />
        </mxCell>
        <mxCell id="lZq7xQ4H-G2b-LCNkSoX-281" value="NToken&lt;br&gt;Monnbird" style="shape=card;whiteSpace=wrap;html=1;shadow=1;rounded=1;sketch=1;fontFamily=Comic Sans MS;fillColor=#dae8fc;gradientColor=#7ea6e0;strokeColor=#6c8ebf;" vertex="1" parent="1">
          <mxGeometry x="1316.5" y="171.64999999999998" width="90" height="114.21" as="geometry" />
        </mxCell>
        <mxCell id="lZq7xQ4H-G2b-LCNkSoX-282" value="NToken&lt;br&gt;UniswapV3" style="shape=card;whiteSpace=wrap;html=1;shadow=1;rounded=1;sketch=1;fontFamily=Comic Sans MS;fillColor=#dae8fc;gradientColor=#7ea6e0;strokeColor=#6c8ebf;" vertex="1" parent="1">
          <mxGeometry x="1426.5" y="171.64999999999998" width="90" height="114.21" as="geometry" />
        </mxCell>
      </root>
    </mxGraphModel>
  </diagram>
</mxfile>
